SplineFontDB: 3.0
FontName: GoudyBookletter1911Condensed
FullName: GoudyBookletter1911 Condensed
FamilyName: GoudyBookletter1911Condensed
Weight: Condensed
Copyright: This font has been released into the public domain by its author, Barry Schwartz. This applies worldwide.\n\nIn some countries this may not be legally possible; if so:\n\nBarry Schwartz grants anyone the right to use this work for any purpose, without any conditions, unless such conditions are required by law.
Version: 2010.07.03
ItalicAngle: 0
UnderlinePosition: -90
UnderlineWidth: 45
Ascent: 737
Descent: 263
LayerCount: 2
Layer: 0 0 "Back"  1
Layer: 1 0 "Fore"  0
NeedsXUIDChange: 1
XUID: [1021 658 797806517 331928]
UniqueID: 4088483
FSType: 0
OS2Version: 3
OS2_WeightWidthSlopeOnly: 0
OS2_UseTypoMetrics: 1
CreationTime: 1199071125
ModificationTime: 1329137372
PfmFamily: 17
TTFWeight: 400
TTFWidth: 5
LineGap: 90
VLineGap: 0
Panose: 2 0 5 3 0 0 0 0 0 0
OS2TypoAscent: 0
OS2TypoAOffset: 1
OS2TypoDescent: 0
OS2TypoDOffset: 1
OS2TypoLinegap: 90
OS2WinAscent: 0
OS2WinAOffset: 1
OS2WinDescent: -1
OS2WinDOffset: 1
HheadAscent: 0
HheadAOffset: 1
HheadDescent: 1
HheadDOffset: 1
OS2SubXSize: 650
OS2SubYSize: 700
OS2SubXOff: 0
OS2SubYOff: 140
OS2SupXSize: 650
OS2SupYSize: 700
OS2SupXOff: 0
OS2SupYOff: 480
OS2StrikeYSize: 49
OS2StrikeYPos: 258
OS2Vendor: 'PfEd'
OS2CodePages: 00000092.0d940000
OS2UnicodeRanges: 8000002f.0000004a.00000000.00000000
Lookup: 1 0 0 "'ss01' Style Set 1 in Latin lookup 0"  {"'ss01' Style Set 1 in Latin lookup 0 subtable"  } ['aalt' ('DFLT' <'dflt' > 'latn' <'dflt' > ) 'ss01' ('DFLT' <'dflt' > 'latn' <'dflt' > ) ]
Lookup: 4 0 1 "'liga' Standard Ligatures in Latin lookup 1"  {"'liga' Standard Ligatures in Latin lookup 1 per glyph data 0"  "'liga' Standard Ligatures in Latin lookup 1 per glyph data 1"  "'liga' Standard Ligatures in Latin lookup 1 per glyph data 2"  "'liga' Standard Ligatures in Latin lookup 1 per glyph data 3"  } ['liga' ('DFLT' <'dflt' > 'latn' <'dflt' > ) ]

StartChar: .notdef
Encoding: 65536 -1 0
Width: 450
Flags: HW
HStem: 0 50<130 370> 441 50<130 370>
VStem: 90 40<50 441> 370 40<50 441>
LayerCount: 2
Fore
SplineSet
90 0 m 1
 90 491 l 1
 410 491 l 1
 410 0 l 1
 90 0 l 1
130 50 m 1
 370 50 l 1
 370 441 l 1
 130 441 l 1
 130 50 l 1
EndSplineSet
EndChar

StartChar: exclam
Encoding: 33 33 2
Width: 292
GlyphClass: 2
Flags: HW
HStem: -16 101<131.167 198.312>
VStem: 118.9 76.8<367.096 637.634> 123.7 82.4<-6.4071 75.7681> 134.1 25.6<195.064 282.718>
LayerCount: 2
Fore
SplineSet
187.7 674 m 0xc0
 194.9 674 195.7 667 195.7 648 c 2
 195.7 625 l 2xc0
 195.7 411 165.3 232 159.7 211 c 0
 158.1 205 154.1 195 146.1 195 c 0
 135.7 195 134.1 210 134.1 225 c 2
 134.1 242 l 1x90
 129.3 464 118.9 610 118.9 611 c 0
 118.9 625 122.9 629 129.3 634 c 0
 183.7 674 182.9 674 187.7 674 c 0xc0
165.3 85 m 0
 186.9 85 206.1 63 206.1 34 c 0
 206.1 7 188.5 -16 165.3 -16 c 0
 143.7 -16 123.7 5 123.7 35 c 0xa0
 123.7 65 143.7 85 165.3 85 c 0
EndSplineSet
EndChar

StartChar: quotedbl
Encoding: 34 34 3
Width: 350
GlyphClass: 2
Flags: HW
HStem: 457 258
VStem: 69.4 251.2
LayerCount: 2
Fore
SplineSet
159 715 m 0
 177.4 715 188.6 697 188.6 677 c 0
 188.6 661 182.2 649 177.4 638 c 0
 151.8 581 102.2 471 99.7998 467 c 0
 95.7998 461 91 457 85.4004 457 c 0
 75.7998 457 69.4004 468 69.4004 479 c 2
 69.4004 480 l 2
 69.4004 487 70.2002 488 116.6 659 c 0
 123.8 683 134.2 715 159 715 c 0
291.8 715 m 0
 309.4 715 320.6 697 320.6 677 c 0
 320.6 661 315 649 310.2 638 c 0
 283.8 581 235 471 231.8 467 c 0
 227.8 461 223 457 217.4 457 c 0
 207.8 457 201.4 468 201.4 479 c 2
 201.4 480 l 2
 201.4 487 202.2 488 249.4 659 c 0
 255.8 683 266.2 715 291.8 715 c 0
EndSplineSet
EndChar

StartChar: numbersign
Encoding: 35 35 4
Width: 496
GlyphClass: 2
Flags: HW
HStem: 157 45<98.4114 177.598 220.11 310.271 352.989 453.584> 353 45<98.4163 199.198 242.402 331.999 375.201 453.513>
VStem: 177.6 36<-3.6207 156.771> 206.4 36<398 553.952> 310.4 35.2<-10.2178 157> 316.8 36<202 347.564> 339.2 36<398 558.829>
LayerCount: 2
Fore
SplineSet
332 348 m 0xd4
 332 351 331.2 353 326.4 353 c 2
 242.4 353 l 2
 236.8 353 236 350 235.2 346 c 0
 230.4 300 220 212 220 207 c 0
 220 203 222.4 202 226.4 202 c 2
 308 202 l 2
 311.2 202 316 202 316.8 210 c 0
 328 311 332 339 332 348 c 0xd4
378.4 615 m 1
 384 615 l 2
 392 615 396.8 612 396.8 604 c 0
 396.8 594 375.2 413 375.2 403 c 0xd2
 375.2 400 376 398 379.2 398 c 2
 438.4 398 l 2
 450.4 398 453.6 390 453.6 372 c 0
 453.6 356 448.8 353 440.8 353 c 2
 372 353 l 2
 368.8 353 368.8 350 368 347 c 0
 363.2 301 352.8 212 352.8 208 c 0xc4
 352.8 204 354.4 202 358.4 202 c 2
 439.2 202 l 2
 448 202 453.6 199 453.6 180 c 0
 453.6 164 450.4 157 439.2 157 c 2
 356 157 l 2
 348 157 346.4 152 345.6 146 c 0
 325.6 -32 327.2 -27 324.8 -33 c 0
 321.6 -41 315.2 -43 307.2 -43 c 0
 295.2 -43 291.2 -37 291.2 -29 c 0
 291.2 -22 310.4 146 310.4 151 c 0
 310.4 156 307.2 157 304 157 c 2
 248.8 157 l 2
 216 157 214.4 156 213.6 149 c 0
 193.6 -31 194.4 -29 192.8 -34 c 0
 189.6 -41 184.8 -43 172.8 -43 c 0
 164.8 -43 157.6 -40 157.6 -29 c 0
 157.6 -23 177.6 145 177.6 150 c 0xe8
 177.6 155 175.2 157 170.4 157 c 2
 111.2 157 l 2
 100 157 98.4004 165 98.4004 176 c 0
 98.4004 193 98.4004 202 111.2 202 c 2
 180.8 202 l 2
 182.4 202 183.2 202 183.2 204 c 0
 188.8 252 199.2 343 199.2 348 c 0
 199.2 352 196.8 353 193.6 353 c 2
 112.8 353 l 2
 104 353 98.4004 356 98.4004 375 c 0
 98.4004 390 101.6 398 112.8 398 c 2
 199.2 398 l 2
 204.8 398 206.4 401 206.4 406 c 0
 228.8 604 227.2 602 229.6 607 c 0
 232.8 613 236.8 615 248 615 c 2
 248.8 615 l 2
 255.2 615 264.8 614 264.8 602 c 0
 264.8 595 242.4 409 242.4 403 c 0
 242.4 399 244.8 398 248.8 398 c 2
 332 398 l 2
 335.2 398 338.4 398 339.2 405 c 0xd2
 361.6 603 360.8 604 363.2 608 c 0
 366.4 614 372.8 615 376 615 c 2
 378.4 615 l 1
EndSplineSet
EndChar

StartChar: dollar
Encoding: 36 36 5
Width: 427
GlyphClass: 2
Flags: HW
HStem: 1 41<142.83 190.598> 599 39<153.782 190.593 224.2 253.824>
VStem: 54.6 72.8<74.0898 178.771> 74.6 46.4<446.429 562.384> 190.6 32.8<-96.9934 1.49219 48.8126 294.997 409.001 594.467 636.303 684.991> 307.4 56<101.123 239.657>
LayerCount: 2
Fore
SplineSet
342.6 531 m 0xdc
 342.6 506 329.8 487 309.8 487 c 0
 259.4 487 279.4 586 229.8 599 c 1
 228.2 599 l 2
 226.6 599 224.2 598 224.2 594 c 2
 224.2 420 l 2
 224.2 414 223.4 407 223.4 404 c 0
 223.4 384 233 387 261.8 372 c 0
 330.6 335 348.2 283 356.2 250 c 0
 361 230 363.4 209 363.4 189 c 0
 363.4 77 297 17 229.8 3 c 0
 223.4 1 223.4 -3 223.4 -9 c 2
 223.4 -78 l 2
 223.4 -88 220.2 -97 207.4 -97 c 0
 195.4 -97 191.4 -89 191.4 -78 c 2
 191.4 -9 l 2
 191.4 -2 189.8 1 184.2 1 c 0
 105 4 54.5996 80 54.5996 133 c 0
 54.5996 164 71.4004 188 93.7998 188 c 0
 112.2 188 127.4 171 127.4 142 c 0xec
 127.4 130 125 120 125 107 c 0
 125 55 168.2 42 186.6 42 c 0
 189 42 190.6 43 190.6 46 c 2
 190.6 306 l 2
 190.6 316 188.2 318 183.4 319 c 0
 109 339 74.5996 419 74.5996 484 c 0
 74.5996 565 121.8 630 183.4 636 c 0
 188.2 637 190.6 638 190.6 644 c 2
 190.6 665 l 2
 190.6 672 191.4 685 206.6 685 c 2
 207.4 685 l 2
 221 685 224.2 675 224.2 665 c 2
 224.2 646 l 1
 224.2 644 l 2
 224.2 641 225 638 229 638 c 0
 299.4 628 342.6 573 342.6 531 c 0xdc
188.2 599 m 0
 174.6 599 121 571 121 504 c 0xdc
 121 433 183.4 409 186.6 409 c 0
 189.8 409 190.6 411 190.6 414 c 2
 190.6 489 l 1
 190.6 572 l 2
 190.6 597 190.6 599 188.2 599 c 0
229 295 m 0
 224.2 295 223.4 291 223.4 286 c 0
 223.4 165 222.6 105 222.6 75 c 0
 222.6 44 223.4 44 225.8 44 c 2
 227.4 44 l 2
 239.4 44 307.4 82 307.4 171 c 0
 307.4 259 237.8 295 229 295 c 0
EndSplineSet
EndChar

StartChar: percent
Encoding: 37 37 6
Width: 738
GlyphClass: 2
Flags: HW
HStem: -93 39<558.821 630.838> 170 38<200.421 272.438> 252 38<548.949 619.042> 515 38<190.626 260.642>
VStem: 114.8 48<264.374 459.62> 298.8 48<265.244 456.628> 473.2 48<2.06218 116 118 196.557> 657.2 48<2.68817 193.628>
LayerCount: 2
Fore
SplineSet
252.4 -123 m 0
 242.8 -123 232.4 -115 232.4 -104 c 0
 232.4 -99 234 -96 235.6 -92 c 0
 551.6 582 550.8 581 554 585 c 0
 558 591 564.4 595 572.4 595 c 0
 578.8 595 596.4 591 596.4 577 c 0
 596.4 573 594.8 569 593.2 566 c 0
 272.4 -110 274 -107 270 -112 c 0
 266 -118 260.4 -123 252.4 -123 c 0
225.2 515 m 0
 174 515 162.8 427 162.8 379 c 0
 162.8 338 172.4 256 201.2 225 c 0
 214.8 211 229.2 208 236.4 208 c 0
 283.6 208 292.4 272 294.8 293 c 0
 297.2 311 298.8 330 298.8 348 c 0
 298.8 426 274 515 225.2 515 c 0
236.4 553 m 0
 280.4 553 346.8 513 346.8 375 c 0
 346.8 254 298 170 225.2 170 c 0
 181.2 170 114.8 209 114.8 346 c 0
 114.8 484 172.4 553 236.4 553 c 0
583.6 252 m 0
 532.4 252 520.4 165 520.4 118 c 1
 521.2 116 l 1
 521.2 76 530.8 -6 559.6 -37 c 0
 573.2 -52 587.6 -54 594.8 -54 c 0
 642 -54 650.8 10 653.2 30 c 0
 655.6 48 657.2 67 657.2 86 c 0
 657.2 163 632.4 252 583.6 252 c 0
594.8 290 m 0
 638.8 290 705.2 250 705.2 112 c 0
 705.2 -8 656.4 -93 583.6 -93 c 0
 539.6 -93 473.2 -54 473.2 83 c 0
 473.2 221 530.8 290 594.8 290 c 0
EndSplineSet
EndChar

StartChar: ampersand
Encoding: 38 38 7
Width: 746
GlyphClass: 2
Flags: HW
HStem: -23 77<286.558 433.3> 154 35<397.734 457.955> 360 32<230.882 324.802> 384 62<189.027 223.571> 440 33<229.254 324.366> 645 56<205.055 282.865> 677 38<598.71 663.78>
VStem: 107.9 63.2<178.938 345.842> 130.3 35.2<460.076 594.439> 163.9 60.8<400.864 431.197> 326.3 28<395.011 436.183> 354.3 28.8<206.326 300.965> 458.3 42.4<191.42 247> 542.3 56<616.704 676.103> 552.7 26.4<156.893 293.79> 698.3 32.8<504.154 630.001>
LayerCount: 2
Fore
SplineSet
163.9 422 m 2xd249
 163.9 433 130.3 463 130.3 529 c 0
 130.3 619 195.9 701 270.3 701 c 0
 299.1 701 355.9 688 355.9 640 c 0
 355.9 614 337.5 595 319.9 595 c 0
 287.1 595 285.5 645 250.3 645 c 0
 216.7 645 165.5 601 165.5 529 c 0
 165.5 488 185.5 446 196.7 446 c 0xd489
 203.1 446 236.7 473 284.7 473 c 0
 323.9 473 354.3 451 354.3 417 c 0
 354.3 383 321.5 360 280.7 360 c 2
 279.9 360 l 2xe8a9
 235.9 360 208.7 384 203.1 384 c 0
 196.7 384 193.5 373 192.7 372 c 0
 178.3 340 171.1 304 171.1 268 c 0
 171.1 183 217.5 63 371.1 54 c 1
 385.5 54 l 2
 515.1 54 552.7 158 552.7 227 c 0xd12b
 552.7 294 519.9 347 469.5 347 c 0
 422.3 347 383.1 300 383.1 251 c 0
 383.1 219 401.5 189 429.5 189 c 0
 439.9 189 458.3 196 458.3 206 c 0
 458.3 217 440.7 210 428.7 230 c 0
 425.5 236 423.1 244 423.1 252 c 0
 423.1 271 435.9 288 454.3 288 c 0
 477.5 288 500.7 264 500.7 230 c 0
 500.7 191 471.1 154 431.9 154 c 0
 388.7 154 354.3 199 354.3 255 c 0
 354.3 308 383.9 358 431.9 388 c 0
 499.1 430 574.3 421 629.5 451 c 0
 663.1 470 698.3 509 698.3 570 c 0
 698.3 633 660.7 677 622.3 677 c 0
 615.1 677 598.3 675 598.3 668 c 0
 598.3 663 611.1 656 611.1 633 c 0
 611.1 611 597.5 592 578.3 592 c 0
 557.5 592 542.3 615 542.3 641 c 0xd21d
 542.3 684 575.9 715 612.7 715 c 0
 669.5 715 731.1 647 731.1 548 c 0
 731.1 440 653.5 354 563.9 352 c 0
 557.5 352 551.9 352 551.9 344 c 0
 551.9 337 579.1 301 579.1 232 c 2
 579.1 230 l 2
 579.1 96 471.9 -23 340.7 -23 c 0
 207.1 -23 107.9 102 107.9 245 c 0xd30b
 107.9 350 159.1 407 162.3 414 c 0
 163.1 416 163.9 419 163.9 421 c 2
 163.9 422 l 2xd249
292.7 392 m 0xe869
 308.7 392 326.3 396 326.3 415 c 0
 326.3 425 320.7 440 291.9 440 c 0
 251.9 440 224.7 426 224.7 417 c 0
 224.7 414 226.3 412 227.1 411 c 0
 246.3 393 266.3 392 292.7 392 c 0xe869
EndSplineSet
EndChar

StartChar: quotesingle
Encoding: 39 39 8
Width: 201
GlyphClass: 2
Flags: HW
HStem: 457 258
VStem: 52.9 119.2
LayerCount: 2
Fore
SplineSet
142.5 715 m 0
 160.9 715 172.1 697 172.1 677 c 0
 172.1 662 165.7 649 160.9 638 c 0
 135.3 581 85.7002 471 83.2998 467 c 0
 79.2998 461 74.5 457 68.9004 457 c 0
 59.2998 457 52.9004 468 52.9004 480 c 2
 52.9004 481 l 2
 52.9004 487 53.7002 488 100.1 659 c 0
 107.3 683 117.7 715 142.5 715 c 0
EndSplineSet
EndChar

StartChar: parenleft
Encoding: 40 40 9
Width: 326
GlyphClass: 2
Flags: HW
HStem: 698 20G<269.1 278.7>
VStem: 72.3 60.8<116.498 405.186>
LayerCount: 2
Fore
SplineSet
289.1 -174 m 0
 289.1 -186 281.1 -194 272.3 -194 c 0
 265.1 -194 258.7 -190 253.1 -184 c 0
 145.9 -79 72.2998 84 72.2998 262 c 0
 72.2998 423 136.3 590 249.9 704 c 0
 256.3 710 264.3 718 273.9 718 c 0
 283.5 718 290.7 710 290.7 699 c 0
 290.7 687 283.5 679 279.5 675 c 0
 198.7 584 133.1 442 133.1 263 c 0
 133.1 101 186.7 -45 276.3 -147 c 0
 280.3 -152 289.1 -161 289.1 -174 c 0
EndSplineSet
EndChar

StartChar: parenright
Encoding: 41 41 10
Width: 326
GlyphClass: 2
Flags: HW
HStem: 702 20G<87.1 95.1>
VStem: 229.9 60.8<121.91 410.739>
LayerCount: 2
Fore
SplineSet
74.7002 701 m 0
 74.7002 714 82.7002 722 91.5 722 c 0
 98.7002 722 104.3 717 110.7 711 c 0
 217.9 606 290.7 443 290.7 265 c 0
 290.7 104 226.7 -63 113.1 -177 c 0
 106.7 -183 98.7002 -191 89.0996 -191 c 0
 80.2998 -191 72.2998 -183 72.2998 -171 c 0
 72.2998 -160 80.2998 -152 84.2998 -147 c 0
 165.1 -56 229.9 85 229.9 264 c 0
 229.9 427 177.1 572 87.5 675 c 0
 82.7002 680 74.7002 688 74.7002 701 c 0
EndSplineSet
EndChar

StartChar: asterisk
Encoding: 42 42 11
Width: 301
GlyphClass: 2
Flags: HW
HStem: 448 21G<244.3 265.9> 497 109<118.417 142.298 191.901 214.508> 701 20G<160.7 179.9>
VStem: 136.7 62.4<389.462 485.336 613.573 717.469> 142.3 49.6<426.987 496.937 607.071 673.685>
LayerCount: 2
Fore
SplineSet
290.3 617 m 0xe8
 290.3 575 215.9 567 215.9 552 c 0
 215.9 534 288.7 544 288.7 487 c 0
 288.7 464 273.5 448 258.3 448 c 0
 230.3 448 206.3 501 197.5 501 c 0
 192.7 501 191.9 498 191.9 492 c 0xe8
 191.9 467 199.1 437 199.1 423 c 0
 199.1 392 173.5 384 165.5 384 c 0
 155.9 384 136.7 393 136.7 426 c 0xf0
 136.7 447 142.3 472 142.3 486 c 0xe8
 142.3 492 141.5 497 137.5 497 c 0
 124.7 497 99.9004 453 70.2998 453 c 0
 50.2998 453 44.7002 481 44.7002 488 c 0
 44.7002 533 117.5 542 117.5 560 c 0
 117.5 580 47.0996 571 47.0996 624 c 0
 47.0996 645 63.9004 659 77.5 659 c 0
 103.9 659 120.7 606 139.9 606 c 0
 142.3 606 143.9 607 143.9 613 c 0
 143.9 625 136.7 652 136.7 676 c 0xf0
 136.7 711 152.7 721 168.7 721 c 0
 191.1 721 199.9 701 199.9 675 c 0
 199.9 647 190.3 616 190.3 609 c 0
 190.3 608 191.1 607 191.9 607 c 0
 202.3 607 231.1 656 259.1 656 c 0
 274.3 656 290.3 639 290.3 617 c 0xe8
EndSplineSet
EndChar

StartChar: plus
Encoding: 43 43 12
Width: 631
GlyphClass: 2
Flags: HW
HStem: 231 57<112.6 327.8 374.2 589.363>
VStem: 327.8 46.4<-38 231 288 556.954>
LayerCount: 2
Fore
SplineSet
131 231 m 2
 119 231 112.6 235 112.6 253 c 2
 112.6 266 l 2
 112.6 287 123 288 131.8 288 c 2
 327.8 288 l 1
 327.8 537 l 2
 327.8 550 331 557 343.8 557 c 2
 355 557 l 2
 372.6 557 374.2 543 374.2 531 c 2
 374.2 288 l 1
 573.4 288 l 2
 583.8 288 589.4 284 589.4 269 c 2
 589.4 255 l 2
 589.4 232 578.2 231 567.8 231 c 2
 374.2 231 l 1
 374.2 -16 l 2
 374.2 -31 370.2 -38 356.6 -38 c 2
 345.4 -38 l 2
 328.6 -38 327.8 -26 327.8 -15 c 2
 327.8 231 l 1
 131 231 l 2
EndSplineSet
EndChar

StartChar: comma
Encoding: 44 44 13
Width: 204
GlyphClass: 2
Flags: HW
HStem: -147 247<84.3 109.1>
VStem: 132.3 40.8<-86.0814 -11.7099>
LayerCount: 2
Fore
SplineSet
102.7 100 m 0
 140.3 100 173.1 49 173.1 -15 c 0
 173.1 -104 109.1 -147 92.2998 -147 c 0
 84.2998 -147 77.0996 -141 77.0996 -130 c 0
 77.0996 -113 93.0996 -112 111.5 -91 c 0
 129.9 -70 132.3 -53 132.3 -44 c 0
 132.3 7 80.2998 -18 60.2998 19 c 0
 56.2998 26 53.9004 35 53.9004 45 c 0
 53.9004 77 77.9004 100 102.7 100 c 0
EndSplineSet
EndChar

StartChar: hyphen
Encoding: 45 45 14
Width: 204
GlyphClass: 2
Flags: HW
HStem: 154 181
VStem: 32.3 162.4
LayerCount: 2
Fore
SplineSet
181.9 335 m 0
 192.3 335 194.7 318 194.7 296 c 0
 194.7 283 188.3 276 180.3 268 c 0
 63.5 166 57.0996 154 46.7002 154 c 0
 34.7002 154 32.2998 168 32.2998 180 c 2
 32.2998 194 l 2
 32.2998 208 34.7002 211 47.5 222 c 0
 169.1 328 173.9 335 181.9 335 c 0
EndSplineSet
EndChar

StartChar: period
Encoding: 46 46 15
Width: 204
GlyphClass: 2
Flags: HW
HStem: -17 118<77.4131 149.846>
VStem: 65.9 95.2<-2.99638 86.7526>
LayerCount: 2
Fore
SplineSet
113.1 101 m 0
 138.7 101 161.1 75 161.1 42 c 0
 161.1 11 141.1 -17 113.9 -17 c 0
 89.0996 -17 65.9004 8 65.9004 43 c 0
 65.9004 78 88.2998 101 113.1 101 c 0
EndSplineSet
EndChar

StartChar: slash
Encoding: 47 47 16
Width: 391
GlyphClass: 2
Flags: HW
LayerCount: 2
Fore
SplineSet
72.2998 -187 m 0
 65.9004 -187 48.2998 -186 48.2998 -173 c 0
 48.2998 -168 48.2998 -169 349.9 571 c 0
 352.3 576 354.7 580 361.9 580 c 0
 368.3 580 386.7 577 386.7 562 c 0
 386.7 556 385.1 554 249.9 234 c 1
 82.7002 -181 85.0996 -180 82.7002 -183 c 0
 79.5 -186 76.2998 -187 72.2998 -187 c 0
EndSplineSet
EndChar

StartChar: zero
Encoding: 48 48 17
Width: 426
GlyphClass: 2
Flags: HW
HStem: -18 60<176.774 295.702> 385 55<174.2 294.358>
VStem: 56.4 52.8<130.19 299.792> 362 49.6<126.916 295.427>
LayerCount: 2
Fore
SplineSet
234.8 440 m 0
 331.6 440 411.6 338 411.6 211 c 0
 411.6 85 331.6 -18 234 -18 c 0
 138 -18 56.4004 82 56.4004 211 c 0
 56.4004 338 137.2 440 234.8 440 c 0
234 385 m 0
 165.2 385 109.2 308 109.2 215 c 0
 109.2 120 166 42 236.4 42 c 0
 300.4 42 362 109 362 211 c 0
 362 311 301.2 385 234 385 c 0
EndSplineSet
EndChar

StartChar: one
Encoding: 49 49 18
Width: 319
GlyphClass: 2
Flags: HW
HStem: -6 40<67.2049 142.29 203.62 288.759> 381 43<55.4384 142.4 203.2 274.392>
VStem: 142.4 60.8<39.854 381.18>
LayerCount: 2
Fore
SplineSet
165.6 421 m 0
 224 421 253.6 424 263.2 424 c 0
 272.8 424 274.4 416 274.4 402 c 0
 274.4 381 264 385 214.4 381 c 0
 204.8 380 203.2 375 203.2 365 c 2
 203.2 61 l 2
 203.2 49 205.6 41 217.6 40 c 0
 275.2 34 288.8 40 288.8 12 c 0
 288.8 1 284 -6 275.2 -6 c 0
 272 -6 228.8 0 176 0 c 0
 124 0 81.5996 -6 78.4004 -6 c 0
 68.7998 -6 67.2002 3 67.2002 15 c 0
 67.2002 30 73.5996 33 81.5996 34 c 0
 137.6 40 142.4 35 142.4 58 c 2
 142.4 365 l 2
 142.4 378 137.6 380 130.4 381 c 0
 67.2002 385 55.2002 378 55.2002 408 c 0
 55.2002 418 59.2002 424 67.2002 424 c 0
 76.7998 424 106.4 421 165.6 421 c 0
EndSplineSet
EndChar

StartChar: two
Encoding: 50 50 19
Width: 404
GlyphClass: 2
Flags: HW
HStem: -13 21G<96.4 108.8> 0 58<199.367 313.75> 362 62<112.28 217.806>
VStem: 64.4 28.8<265.197 333.097> 265.2 49.6<205.76 305.971> 355.6 24<119.161 154.717>
LayerCount: 2
Fore
SplineSet
105.2 -13 m 0xbc
 87.5996 -13 83.5996 -1 83.5996 6 c 0
 83.5996 24 98 22 146.8 69 c 0
 183.6 105 217.2 146 246 192 c 0
 253.2 204 265.2 224 265.2 250 c 0
 265.2 314 206 362 159.6 362 c 0
 118 362 94.7998 326 93.2002 291 c 0
 93.2002 280 92.4004 265 81.2002 265 c 2
 80.4004 265 l 2
 74 265 64.4004 272 64.4004 301 c 0
 64.4004 373 111.6 424 174.8 424 c 0
 247.6 424 314.8 364 314.8 278 c 0
 314.8 197 257.2 149 199.6 73 c 0
 198 70 196.4 68 196.4 66 c 0
 196.4 62 198 58 205.2 58 c 0
 206.8 58 243.6 60 263.6 62 c 0
 297.2 65 329.2 75 355.6 145 c 0
 357.2 150 359.6 155 365.2 155 c 0
 366.8 155 379.6 154 379.6 143 c 0
 379.6 138 379.6 140 350 15 c 0
 346 -1 338.8 1 326.8 0 c 0x7c
 252.4 -4 112.4 -13 105.2 -13 c 0xbc
EndSplineSet
EndChar

StartChar: three
Encoding: 51 51 20
Width: 324
GlyphClass: 2
Flags: HW
HStem: -182 43<144.702 227.789> 370 73<87.7814 175.236>
VStem: 57.3 28<298.009 363.51> 200.5 7.2<180 273> 264.5 43.2<-79.2107 66.58>
LayerCount: 2
Fore
SplineSet
131.7 443 m 0
 163.7 443 254.1 410 254.1 326 c 0
 254.1 266 207.7 185 207.7 180 c 0
 207.7 168 228.5 174 262.1 149 c 0
 282.9 134 307.7 103 307.7 35 c 0
 307.7 4 302.1 -71 273.3 -117 c 0
 245.3 -163 194.1 -182 150.9 -182 c 0
 86.9004 -182 58.9004 -132 58.9004 -109 c 0
 58.9004 -85 76.5 -69 94.0996 -69 c 0
 134.9 -69 126.9 -139 191.7 -139 c 0
 246.1 -139 264.5 -71 264.5 -10 c 0
 264.5 52 245.3 104 166.9 104 c 0
 147.7 104 141.3 102 134.9 102 c 0
 125.3 102 121.3 110 121.3 115 c 0
 121.3 125 126.1 123 149.3 151 c 0
 175.7 183 200.5 224 200.5 273 c 0
 200.5 308 186.1 370 126.9 370 c 0
 89.2998 370 85.2998 350 85.2998 332 c 0
 85.2998 323 86.0996 313 86.0996 311 c 0
 86.0996 301 74.9004 298 71.7002 298 c 0
 62.9004 298 57.2998 307 57.2998 339 c 0
 57.2998 392 82.9004 443 131.7 443 c 0
EndSplineSet
EndChar

StartChar: four
Encoding: 52 52 21
Width: 401
GlyphClass: 2
Flags: HW
HStem: 0 74<308.125 369.587> 0 66<131.301 260.1> 409 20G<294.9 300.1>
VStem: 260.1 48<-186 -1.19998e-07 74.157 299.997>
LayerCount: 2
Fore
SplineSet
76.0996 0 m 2x70
 69.7002 0 62.5 2 62.5 14 c 0
 62.5 26 70.5 36 76.0996 46 c 0
 284.1 420 279.3 411 284.9 420 c 0
 288.1 425 292.1 429 297.7 429 c 0
 302.5 429 308.9 426 308.9 411 c 2
 308.1 85 l 2
 308.1 78 309.7 74 316.1 74 c 2
 328.9 74 l 2
 352.9 74 356.1 76 362.5 76 c 0
 374.5 76 378.5 71 378.5 63 c 0
 378.5 61 372.9 9 369.7 4 c 0
 367.3 1 364.9 0 360.1 0 c 2
 315.3 0 l 2xb0
 311.3 0 308.1 -1 308.1 -7 c 2
 308.1 -174 l 2
 308.1 -182 307.3 -186 300.1 -186 c 2
 268.1 -186 l 2
 260.9 -186 260.1 -181 260.1 -174 c 2
 260.1 -10 l 2
 260.1 -4 259.3 0 253.7 0 c 2
 76.0996 0 l 2x70
252.1 66 m 2x70
 258.5 66 260.1 73 260.1 79 c 2
 260.1 292 l 2
 260.1 296 259.3 300 256.1 300 c 0
 252.9 300 252.1 297 251.3 296 c 0
 131.3 74 131.3 74 131.3 71 c 0
 131.3 69 132.1 66 136.1 66 c 2
 252.1 66 l 2x70
EndSplineSet
EndChar

StartChar: five
Encoding: 53 53 22
Width: 343
GlyphClass: 2
Flags: HW
HStem: 191 66<117.408 175.21> 299 88<211.257 286.343> 347 88<129.908 191.887>
VStem: 226.9 48.8<-40.5996 120.982>
LayerCount: 2
Fore
SplineSet
132.5 257 m 2xb0
 205.3 257 275.7 183 275.7 61 c 0
 275.7 2 258.1 -51 238.1 -88 c 0
 208.5 -143 150.9 -194 130.1 -194 c 0
 123.7 -194 116.5 -189 116.5 -179 c 0
 116.5 -157 158.9 -156 198.1 -81 c 0
 213.3 -51 226.9 -10 226.9 38 c 0
 226.9 134 173.3 191 120.5 191 c 0
 98.0996 191 84.5 181 79.7002 181 c 0
 72.5 181 69.2998 188 69.2998 196 c 0
 69.2998 203 119.7 421 119.7 422 c 0
 121.3 427 125.3 435 133.3 435 c 0xb0
 142.9 435 254.9 387 266.9 387 c 0
 281.3 387 294.9 423 300.5 430 c 0
 303.7 433 306.1 433 306.9 433 c 0
 311.7 433 319.7 428 319.7 419 c 0
 319.7 415 319.7 416 282.9 310 c 0
 281.3 304 278.9 299 272.5 299 c 0xd0
 262.9 299 148.5 346 142.1 347 c 1
 141.3 347 l 2
 132.5 347 132.5 337 117.3 268 c 0
 117.3 267 116.5 265 116.5 263 c 0
 116.5 261 118.1 257 122.1 257 c 2
 132.5 257 l 2xb0
EndSplineSet
EndChar

StartChar: six
Encoding: 54 54 23
Width: 434
GlyphClass: 2
Flags: HW
HStem: -28 40<197.949 300.751> 365 36<167.25 258.356>
VStem: 74.2 51.2<112.246 315.477> 342.2 61.6<76.1476 246.159>
LayerCount: 2
Fore
SplineSet
342.2 142 m 0
 342.2 230 299.8 365 207.8 365 c 0
 142.2 365 125.4 284 125.4 217 c 0
 125.4 98 183 12 250.2 12 c 0
 301.4 12 342.2 61 342.2 142 c 0
211 401 m 0
 315 401 403.8 303 403.8 169 c 0
 403.8 63 343 -28 251.8 -28 c 0
 164.6 -28 74.2002 63 74.2002 227 c 0
 74.2002 418 195 592 355 629 c 0
 356.6 630 358.2 630 360.6 630 c 0
 371 630 376.6 616 376.6 607 c 0
 376.6 596 369.4 592 363.8 589 c 0
 284.6 557 214.2 493 167 402 c 0
 167 401 166.2 400 166.2 399 c 0
 166.2 397 167.8 396 169.4 396 c 0
 170.2 396 188.6 401 211 401 c 0
EndSplineSet
EndChar

StartChar: seven
Encoding: 55 55 24
Width: 406
GlyphClass: 2
Flags: HW
HStem: 330 82<119.794 221.781> 337 75<136.638 325.799>
VStem: 74.6 26.4<217.026 286.324> 89.8 31.2<412 469.92>
LayerCount: 2
Fore
SplineSet
88.2002 217 m 0xa0
 84.2002 217 74.5996 220 74.5996 233 c 0xa0
 74.5996 242 88.2002 330 89.7998 451 c 0
 89.7998 462 92.2002 470 104.2 470 c 0
 117 470 115.4 458 121 424 c 0
 122.6 413 126.6 412 132.2 412 c 2x90
 373.8 412 l 2
 383.4 412 391.4 409 391.4 394 c 2
 391.4 393 l 2
 391.4 386 390.6 385 345 215 c 0
 230.6 -219 248.2 -216 229 -218 c 0
 224.2 -219 218.6 -219 213.8 -219 c 2
 213 -219 l 1
 208.2 -219 l 2
 195.4 -219 185.8 -218 185.8 -205 c 0
 185.8 -199 185.8 -200 274.6 125 c 1
 309.8 246 326.6 301 326.6 308 c 0
 326.6 327 312.2 330 302.6 332 c 0
 276.2 335 250.6 337 223.4 337 c 0x50
 189 337 145 333 136.2 330 c 0
 121 326 122.6 321 101 232 c 0
 99.4004 226 97 217 88.2002 217 c 0xa0
EndSplineSet
EndChar

StartChar: eight
Encoding: 56 56 25
Width: 401
GlyphClass: 2
Flags: HW
HStem: -22 47<161.106 277.058> 308 58<185.075 225.825> 621 47<157.171 249.03>
VStem: 56.9 59.2<81.6211 226.516> 70.5 55.2<439.759 579.141> 284.1 59.2<442.856 574.658> 317.7 66.4<85.8585 202.16>
LayerCount: 2
Fore
SplineSet
125.7 514 m 0xec
 125.7 415 205.7 366 224.9 366 c 0
 229.7 366 232.9 369 236.1 373 c 0
 263.3 404 284.1 451 284.1 503 c 0
 284.1 566 250.5 621 202.5 621 c 2
 201.7 621 l 1
 158.5 620 125.7 572 125.7 514 c 0xec
220.1 25 m 0
 272.1 25 317.7 72 317.7 136 c 0
 317.7 203 266.5 262 202.5 302 c 0
 198.5 305 194.5 308 190.5 308 c 0
 179.3 308 116.1 239 116.1 151 c 0xf2
 116.1 76 164.9 25 220.1 25 c 0
211.3 -22 m 0
 124.9 -22 56.9004 60 56.9004 153 c 0xf2
 56.9004 212 84.0996 249 112.1 277 c 0
 159.3 323 160.1 322 160.1 326 c 0
 160.1 328 158.5 330 156.1 332 c 0
 108.9 372 70.5 434 70.5 502 c 0
 70.5 581 127.3 668 211.3 668 c 0
 280.1 668 343.3 621 343.3 526 c 0xec
 343.3 458 307.3 391 258.5 357 c 0
 256.9 356 256.1 354 256.1 352 c 0
 256.1 350 257.7 349 258.5 348 c 0
 332.9 306 384.1 236 384.1 161 c 0
 384.1 64 301.7 -22 211.3 -22 c 0
EndSplineSet
EndChar

StartChar: nine
Encoding: 57 57 26
Width: 457
GlyphClass: 2
Flags: HW
HStem: -5 39<217.868 332.058> 383 45<173.96 286.072>
VStem: 76 58.4<148.813 316.685> 366.4 61.6<81.1 269.826>
LayerCount: 2
Fore
SplineSet
134.4 250 m 0
 134.4 154 183.2 34 277.6 34 c 0
 329.6 34 347.2 65 357.6 105 c 0
 363.2 128 366.4 152 366.4 176 c 0
 366.4 291 299.2 383 227.2 383 c 0
 185.6 383 134.4 346 134.4 250 c 0
270.4 -5 m 0
 162.4 -5 76 104 76 227 c 0
 76 342 152 428 240.8 428 c 0
 341.6 428 428 318 428 175 c 0
 428 24 328.8 -144 174.4 -204 c 0
 162.4 -208 154.4 -211 149.6 -211 c 0
 137.6 -211 134.4 -193 134.4 -187 c 0
 134.4 -177 140 -173 148 -170 c 0
 273.6 -121 337.6 1 337.6 5 c 0
 337.6 7 336.8 8 335.2 8 c 0
 333.6 8 304.8 -5 270.4 -5 c 0
EndSplineSet
EndChar

StartChar: colon
Encoding: 58 58 27
Width: 207
GlyphClass: 2
Flags: HW
HStem: -17 118<88.0877 160.628> 293 118<88.0877 160.628>
VStem: 76.9 95.2<-2.99638 86.7526 307.004 396.622>
LayerCount: 2
Fore
SplineSet
124.1 411 m 0
 149.7 411 172.1 385 172.1 352 c 0
 172.1 321 151.3 293 124.1 293 c 0
 99.2998 293 76.9004 318 76.9004 353 c 0
 76.9004 387 99.2998 411 124.1 411 c 0
124.1 101 m 0
 149.7 101 172.1 75 172.1 42 c 0
 172.1 11 151.3 -17 124.1 -17 c 0
 99.2998 -17 76.9004 8 76.9004 43 c 0
 76.9004 78 99.2998 101 124.1 101 c 0
EndSplineSet
EndChar

StartChar: semicolon
Encoding: 59 59 28
Width: 209
GlyphClass: 2
Flags: HW
HStem: 293 118<90.6877 163.228>
VStem: 79.5 95.2<307.004 396.622> 156.3 40.8<-85.0525 -12.0097>
LayerCount: 2
Fore
SplineSet
126.7 100 m 0xa0
 164.3 100 197.1 49 197.1 -15 c 0
 197.1 -104 133.1 -147 115.5 -147 c 0
 108.3 -147 101.1 -141 101.1 -130 c 0
 101.1 -113 117.1 -112 135.5 -91 c 0
 153.1 -70 156.3 -53 156.3 -44 c 2
 156.3 -43 l 1
 155.5 7 104.3 -18 84.2998 19 c 1
 79.5 26 77.9004 35 77.9004 45 c 0
 77.9004 77 101.9 100 126.7 100 c 0xa0
126.7 411 m 0
 152.3 411 174.7 385 174.7 352 c 0
 174.7 321 153.9 293 126.7 293 c 0
 101.9 293 79.5 318 79.5 353 c 0xc0
 79.5 387 101.9 411 126.7 411 c 0
EndSplineSet
EndChar

StartChar: less
Encoding: 60 60 29
Width: 604
GlyphClass: 2
Flags: HW
LayerCount: 2
Fore
SplineSet
108.9 249 m 2
 108.9 260 116.9 264 123.3 267 c 0
 540.1 457 539.3 458 545.7 458 c 0
 555.3 458 564.1 447 564.1 420 c 0
 564.1 408 556.9 403 548.9 400 c 2
 196.1 239 l 1
 553.7 77 l 2
 560.1 74 564.1 69 564.1 60 c 0
 564.1 50 559.3 23 540.9 23 c 0
 534.5 23 536.9 23 122.5 212 c 0
 115.3 215 108.9 219 108.9 230 c 2
 108.9 249 l 2
EndSplineSet
EndChar

StartChar: equal
Encoding: 61 61 30
Width: 631
GlyphClass: 2
Flags: HW
HStem: 156 58<113.4 589.363> 305 58<112.6 588.498>
LayerCount: 2
Fore
SplineSet
131 305 m 2
 119 305 112.6 309 112.6 327 c 2
 112.6 341 l 2
 112.6 362 122.2 363 131 363 c 2
 572.6 363 l 2
 583 363 588.6 359 588.6 343 c 2
 588.6 330 l 2
 588.6 307 577.4 305 567.8 305 c 2
 131 305 l 2
131 156 m 2
 119 156 113.4 161 113.4 178 c 2
 113.4 192 l 2
 113.4 213 123 214 131.8 214 c 2
 573.4 214 l 2
 583.8 214 589.4 210 589.4 194 c 2
 589.4 180 l 2
 589.4 157 578.2 156 568.6 156 c 2
 131 156 l 2
EndSplineSet
EndChar

StartChar: greater
Encoding: 62 62 31
Width: 604
GlyphClass: 2
Flags: HW
LayerCount: 2
Fore
SplineSet
564.1 249 m 2
 564.1 230 l 2
 564.1 219 557.7 215 550.5 212 c 0
 137.7 24 137.7 23 132.1 23 c 0
 113.7 23 108.9 50 108.9 60 c 0
 108.9 69 112.9 74 119.3 77 c 2
 476.9 239 l 1
 124.1 400 l 2
 116.1 403 108.9 408 108.9 420 c 0
 108.9 447 117.7 458 127.3 458 c 0
 133.7 458 132.9 457 549.7 267 c 0
 556.1 264 564.1 260 564.1 249 c 2
EndSplineSet
EndChar

StartChar: question
Encoding: 63 63 32
Width: 339
GlyphClass: 2
Flags: HW
HStem: -17 118<125.913 198.928> 577 103<60.7547 111.246> 651 38<131.425 206.555>
VStem: 114.4 96<-2.99638 86.7526> 130.4 41.6<192.704 327.862> 236.8 68<470.93 612.194>
LayerCount: 2
Fore
SplineSet
162.4 101 m 0x94
 188 101 210.4 75 210.4 42 c 0
 210.4 11 189.6 -17 162.4 -17 c 0
 137.6 -17 114.4 8 114.4 43 c 0
 114.4 78 137.6 101 162.4 101 c 0x94
163.2 689 m 0xac
 265.6 689 304.8 601 304.8 542 c 0
 304.8 417 172 390 172 250 c 0
 172 241 172.8 235 172.8 228 c 0
 172.8 201 160 192 152 192 c 0
 143.2 192 130.4 200 130.4 247 c 0
 130.4 378 236.8 432 236.8 547 c 0
 236.8 604 206.4 651 167.2 651 c 0xac
 116 651 120.8 577 80.7998 577 c 0
 61.5996 577 47.2002 597 47.2002 621 c 0
 47.2002 633 49.5996 667 98.4004 680 c 0xcc
 119.2 686 141.6 689 163.2 689 c 0xac
EndSplineSet
EndChar

StartChar: at
Encoding: 64 64 33
Width: 895
GlyphClass: 2
Flags: HW
HStem: -176 38<405.853 583.814> -14 66<401.39 467.485> -8 46<577.535 665.929> 363 33<523.198 573.305> 409 20G<610.6 616.6> 572 39<436.434 616.988>
VStem: 165.8 65.6<70.9096 316.808> 337 59.2<57.2769 161.388> 754.6 33.6<176.781 411.103>
LayerCount: 2
Fore
SplineSet
675.4 -71 m 0xbf80
 679.4 -71 685 -74 685 -83 c 0
 685 -107 621.8 -143 589 -156 c 0
 553.8 -170 517.8 -176 481 -176 c 2
 480.2 -176 l 1
 305.8 -175 165.8 -41 165.8 186 c 2
 165.8 187 l 2
 165.8 284 193.8 456 355.4 557 c 0
 398.6 584 459.4 611 529 611 c 0
 685.8 611 788.2 469 788.2 296 c 0
 788.2 126 694.6 -8 601 -8 c 0xbf80
 524.2 -8 525.8 66 520.2 66 c 0
 518.6 66 517.8 64 516.2 62 c 0
 493 26 453.8 -14 411.4 -14 c 0xdf80
 370.6 -14 337 25 337 83 c 0
 337 176 437 325 498.6 372 c 0
 517 386 537 396 558.6 396 c 0
 573 396 577.8 393 581.8 393 c 0
 592.2 393 596.2 419 601.8 425 c 0
 605 428 609 429 612.2 429 c 0
 621 429 630.6 423 630.6 412 c 0
 630.6 398 600.2 306 575.4 125 c 0
 573.8 116 571.4 100 571.4 86 c 0
 571.4 48 593.8 38 609.8 38 c 0
 642.6 38 688.2 67 713.8 112 c 0
 740.2 158 754.6 230 754.6 300 c 2
 754.6 301 l 2
 754.6 478 652.2 572 529.8 572 c 0
 374.6 572 231.4 425 231.4 198 c 0
 231.4 3 337 -138 495.4 -138 c 0
 573 -138 635.4 -105 660.2 -80 c 0
 664.2 -77 669.8 -71 675.4 -71 c 0xbf80
565 353 m 0
 565 359 561.8 363 556.2 363 c 0
 526.6 363 446.6 287 407.4 162 c 0
 401 143 396.2 122 396.2 102 c 0
 396.2 62 416.2 52 429.8 52 c 0xdf80
 445.8 52 484.2 70 508.2 105 c 0
 521 123 523.4 124 525.8 139 c 0
 565 351 565 349 565 353 c 0
EndSplineSet
EndChar

StartChar: A
Encoding: 65 65 34
Width: 739
GlyphClass: 2
Flags: HW
HStem: -6 51<90.3625 160.116 230.108 297.221 517.724 580.191> 300 52<321.001 496.998>
VStem: 580.2 156<9.5 73>
DStem2: 171.4 93 299.4 288 0.33282 0.94299<10.8452 256.855 307.001 496.836> 470.6 668 426.6 565 0.321903 -0.946773<60.8798 288.443 343.161 591.615>
LayerCount: 2
Fore
SplineSet
192.2 0 m 0
 145 0 108.2 -6 105.8 -6 c 0
 93 -6 89.7998 7 89.7998 15 c 0
 89.7998 42 101.8 41 125.8 45 c 0
 151.4 49 159.4 59 171.4 93 c 0
 209.8 200 250.6 307 293.8 413 c 1
 413.8 698 408.2 688 417.8 698 c 0
 423.4 703 429.8 706 437 706 c 0
 457.8 706 467.4 678 470.6 668 c 2
 585.8 336 l 1
 673 71 669.8 77 674.6 68 c 0
 694.6 31 729.8 53 734.6 29 c 0
 735.4 25 736.2 18 736.2 16 c 0
 736.2 3 730.6 -6 720.2 -6 c 0
 717 -6 677 0 628.2 0 c 0
 570.6 0 542.6 -6 533 -6 c 0
 521.8 -6 517 1 517 11 c 0
 517 42 525.8 39 564.2 45 c 0
 568.2 46 580.2 47 580.2 64 c 0
 580.2 82 551.4 201 520.2 290 c 0
 517 299 513 300 505.8 300 c 2
 317.8 300 l 2
 309 300 304.2 299 299.4 288 c 0
 260.2 197 229.8 92 229.8 72 c 0
 229.8 44 246.6 45 280.2 40 c 0
 287.4 39 297.8 36 297.8 16 c 0
 297.8 3 290.6 -6 280.2 -6 c 0
 271.4 -6 245 0 192.2 0 c 0
489.8 352 m 2
 493.8 352 497 353 497 359 c 0
 497 369 438.6 541 426.6 565 c 0
 424.2 570 421.8 572 417.8 572 c 0
 410.6 572 405.8 562 402.6 555 c 0
 353 439 321 362 321 356 c 0
 321 354 322.6 352 325.8 352 c 2
 489.8 352 l 2
EndSplineSet
EndChar

StartChar: B
Encoding: 66 66 35
Width: 506
GlyphClass: 2
Flags: HMW
HStem: -6 47<69.15 130.448 201.144 340.726> 355 43<199.3 333.006> 651 44<201.51 327.707>
VStem: 130.5 68.8<46.989 355 398 639.812> 376.9 71.2<461.932 592.593> 412.9 71.2<121.063 282.491>
LayerCount: 2
Fore
SplineSet
127.3 686 m 0xf4
 176.1 686 218.5 695 266.5 695 c 0
 299.3 695 357.7 691 399.3 655 c 0
 422.5 634 448.1 594 448.1 540 c 0xf8
 448.1 477 414.5 419 372.1 386 c 0
 371.3 385 370.5 384 370.5 383 c 0
 370.5 382 371.3 381 372.9 380 c 0
 434.5 365 484.1 295 484.1 206 c 0
 484.1 110 429.7 43 382.5 17 c 0
 373.7 12 344.1 -6 286.5 -6 c 0
 249.7 -6 213.7 0 176.9 0 c 0
 148.9 0 121.7 -2 85.7002 -2 c 2
 84.0996 -2 l 2
 76.0996 -2 68.9004 -1 68.9004 22 c 0
 68.9004 41 79.2998 40 113.7 45 c 0
 122.5 47 130.5 48 130.5 65 c 2
 130.5 612 l 2
 130.5 640 116.1 641 88.9004 644 c 0
 80.9004 644 74.5 648 74.5 669 c 0
 74.5 680 79.2998 687 88.9004 687 c 0
 92.0996 687 104.1 686 127.3 686 c 0xf4
376.9 519 m 0
 376.9 567 352.9 651 259.3 651 c 0
 243.3 651 211.3 648 203.3 640 c 0
 199.3 636 199.3 631 199.3 627 c 2
 199.3 625 l 1
 199.3 411 l 2
 199.3 403 200.1 398 207.3 398 c 2
 243.3 398 l 1
 253.7 398 l 2
 285.7 398 340.1 401 365.7 462 c 0
 372.9 480 376.9 499 376.9 519 c 0
260.9 41 m 0
 340.1 41 412.9 96 412.9 201 c 0xf4
 412.9 260 388.1 330 318.5 349 c 0
 296.9 355 273.7 355 251.3 355 c 2
 210.5 355 l 2
 200.1 355 199.3 348 199.3 340 c 2
 199.3 82 l 2
 199.3 65 200.1 50 223.3 45 c 0
 235.3 43 248.1 41 260.9 41 c 0
EndSplineSet
EndChar

StartChar: C
Encoding: 67 67 36
Width: 630
GlyphClass: 2
Flags: HW
HStem: -24 51<307.766 470.337> 439 21G<573.9 591.1> 650 46<297.362 459.825>
VStem: 85.9 76.8<225.341 451.697> 561.1 39.2<439.285 545.701>
LayerCount: 2
Fore
SplineSet
162.7 354 m 0
 162.7 170 262.7 27 387.5 27 c 0
 479.5 27 566.7 104 596.3 224 c 0
 597.1 227 598.7 237 608.3 237 c 0
 613.9 237 621.1 234 621.1 226 c 1
 621.1 226 603.5 70 601.1 63 c 1
 597.9 48 587.5 47 583.5 47 c 2
 582.7 47 l 1
 560.3 47 l 2
 541.1 47 539.5 39 522.7 26 c 0
 471.5 -11 419.5 -24 374.7 -24 c 0
 300.3 -24 225.9 14 172.3 79 c 0
 117.9 145 85.9004 240 85.9004 335 c 0
 85.9004 436 122.7 531 174.7 594 c 0
 229.1 659 304.3 696 378.7 696 c 2
 379.5 696 l 2
 476.3 696 525.9 643 536.3 643 c 0
 549.9 643 544.3 674 559.5 679 c 0
 561.9 679 566.7 680 568.3 680 c 0
 576.3 680 577.9 674 578.7 668 c 0
 578.7 667 600.3 466 600.3 456 c 0
 600.3 449 597.9 439 584.3 439 c 0
 563.5 439 565.1 446 561.1 486 c 0
 557.9 513 554.7 529 540.3 552 c 0
 507.5 604 450.7 650 377.1 650 c 0
 267.5 650 162.7 539 162.7 354 c 0
EndSplineSet
EndChar

StartChar: D
Encoding: 68 68 37
Width: 637
GlyphClass: 2
Flags: HW
HStem: 0 48<78.8118 157.842 234.782 405.23> 633 42<79.3076 156.935 231.15 385.024>
VStem: 159.3 71.2<58.0293 626.875> 546.5 80<233.039 436.012>
LayerCount: 2
Fore
SplineSet
310.5 48 m 0
 427.3 48 546.5 139 546.5 316 c 0
 546.5 412 513.7 512 450.5 571 c 1
 397.7 619 333.7 633 284.1 633 c 0
 237.7 633 230.5 627 230.5 602 c 2
 230.5 93 l 2
 230.5 68 238.5 59 259.3 54 c 0
 276.1 50 292.9 48 310.5 48 c 0
79.2998 654 m 0
 79.2998 673 89.7002 675 96.9004 675 c 2
 242.5 675 l 2
 320.9 675 403.3 672 474.5 631 c 0
 553.7 585 626.5 485 626.5 343 c 0
 626.5 166 508.9 32 394.5 6 c 0
 371.3 1 347.3 0 323.3 0 c 2
 96.9004 0 l 2
 89.7002 0 78.5 2 78.5 28 c 0
 78.5 53 95.2998 49 137.7 52 c 0
 156.1 53 159.3 66 159.3 88 c 2
 159.3 594 l 2
 159.3 633 140.9 629 93.7002 631 c 0
 81.7002 631 79.2998 640 79.2998 654 c 0
EndSplineSet
EndChar

StartChar: E
Encoding: 69 69 38
Width: 519
GlyphClass: 2
Flags: HW
HStem: -12 73<79.4322 139.876> 0 62<215.326 312.738> 0 55<240.662 428.308> 369 58<216.28 383.34> 638 53<69.3563 142.7 216.446 420.677>
VStem: 142.7 71.2<64.3716 365.73 427 636.673> 384.3 44<271.454 368.907 428.208 512.546>
LayerCount: 2
Fore
SplineSet
405.9 513 m 0x9e
 426.7 513 428.3 495 428.3 484 c 2
 428.3 300 l 2
 428.3 289 426.7 271 405.9 271 c 0
 385.9 271 384.3 284 384.3 293 c 2
 384.3 347 l 2
 384.3 367 374.7 369 363.5 369 c 2
 253.1 369 l 2
 234.7 369 213.9 367 213.9 329 c 2
 213.9 100 l 2
 213.9 82 216.3 66 239.5 62 c 0x5e
 264.3 57 289.1 55 313.9 55 c 0
 339.5 55 413.1 61 429.1 76 c 0
 443.5 90 471.5 173 484.3 183 c 0
 487.5 185 489.9 186 492.3 186 c 0
 497.9 186 506.7 180 506.7 163 c 2
 506.7 162 l 2
 506.7 156 505.9 154 481.9 20 c 0
 479.5 5 474.7 0 457.9 0 c 2
 182.7 0 l 2x3e
 122.7 0 97.9004 -12 83.5 -12 c 0
 68.2998 -12 64.2998 13 64.2998 18 c 0
 64.2998 36 72.2998 36 125.1 61 c 0
 140.3 68 142.7 78 142.7 100 c 2
 142.7 621 l 2
 142.7 636 138.7 637 121.1 641 c 0
 89.9004 647 68.2998 640 68.2998 669 c 0
 68.2998 689 76.2998 691 83.5 691 c 2
 451.5 691 l 2
 462.7 691 466.7 685 469.1 675 c 0
 476.3 630 492.3 547 492.3 542 c 0
 492.3 536 489.1 527 475.5 527 c 0
 461.9 527 457.1 538 453.1 545 c 0
 413.1 634 415.5 638 390.7 638 c 2
 240.3 638 l 2
 217.1 638 215.5 619 215.5 600 c 2
 215.5 449 l 2
 215.5 439 216.3 427 231.5 427 c 2
 353.9 427 l 2
 367.5 427 384.3 428 384.3 460 c 2
 384.3 491 l 2
 384.3 501 386.7 513 405.9 513 c 0x9e
EndSplineSet
EndChar

StartChar: F
Encoding: 70 70 39
Width: 486
GlyphClass: 2
Flags: HW
HStem: -6 53<62.7657 131.611 208.101 310.286> 360 58<208.832 370.141> 636 51<61.7578 131.57 209.383 407.098>
VStem: 131.9 75.2<49.7348 360 418 634.561> 369.5 44<270.499 360> 375.9 37.6<418.264 503.907>
LayerCount: 2
Fore
SplineSet
413.5 483 m 0xf4
 413.5 473 410.3 446 410.3 390 c 0
 410.3 333 413.5 305 413.5 296 c 0
 413.5 275 400.7 270 391.9 270 c 0
 372.7 270 375.1 288 369.5 346 c 0xf8
 368.7 357 364.7 360 355.1 360 c 2
 224.7 360 l 2
 207.9 360 207.1 346 207.1 332 c 2
 207.1 84 l 2
 207.1 67 207.1 49 239.9 47 c 0
 291.9 45 310.3 51 310.3 24 c 2
 310.3 15 l 2
 310.3 4 307.1 -6 296.7 -6 c 0
 292.7 -6 246.3 0 188.7 0 c 0
 130.3 0 83.9004 -6 80.7002 -6 c 0
 68.7002 -6 62.2998 3 62.2998 17 c 0
 62.2998 46 73.5 41 107.9 45 c 0
 128.7 48 131.9 59 131.9 76 c 2
 131.9 606 l 2
 131.9 638 119.9 635 79.9004 637 c 0
 75.9004 637 61.5 637 61.5 658 c 0
 61.5 681 67.0996 688 75.9004 688 c 0
 83.0996 688 103.1 684 143.1 684 c 0
 173.5 684 229.5 687 272.7 687 c 2
 424.7 687 l 1
 428.7 687 l 2
 438.3 687 450.3 686 455.1 662 c 0
 459.9 635 473.5 561 473.5 555 c 0
 473.5 541 466.3 532 457.5 532 c 0
 441.5 532 436.7 549 407.1 615 c 0
 399.1 631 395.1 636 379.1 636 c 2
 231.9 636 l 2
 210.3 636 208.7 619 208.7 600 c 2
 208.7 433 l 2
 208.7 423 211.1 418 220.7 418 c 2
 354.3 418 l 2
 371.1 418 368.7 427 375.9 477 c 0
 377.5 490 381.5 504 395.1 504 c 0
 405.5 504 413.5 496 413.5 483 c 0xf4
EndSplineSet
EndChar

StartChar: G
Encoding: 71 71 40
Width: 622
GlyphClass: 2
Flags: HW
HStem: -24 53<294.69 451.449> 260 46<408.337 503.965> 441 21G<545.9 567.5> 658 48<270.176 419.617>
VStem: 82.7 80<226.103 480.292> 505.9 67.2<76.6719 251.789>
LayerCount: 2
Fore
SplineSet
362.7 -24 m 0
 213.1 -24 82.7002 144 82.7002 354 c 0
 82.7002 557 204.3 706 351.5 706 c 0
 446.7 706 504.3 644 513.9 641 c 1
 517.1 641 l 2
 532.3 641 543.5 674 552.3 680 c 0
 554.7 682 557.9 683 561.9 683 c 0
 567.5 683 573.1 680 573.1 669 c 2
 573.1 642 l 2
 573.1 540 581.9 461 581.9 457 c 0
 581.9 447 576.3 441 558.7 441 c 0
 533.1 441 555.5 473 515.5 542 c 0
 476.3 609 411.5 658 341.9 658 c 0
 261.1 658 162.7 584 162.7 367 c 0
 162.7 103 288.3 29 371.5 29 c 0
 440.3 29 496.3 77 503.5 94 c 0
 505.9 100 505.9 106 505.9 111 c 2
 505.9 224 l 2
 505.9 257 489.1 253 430.7 260 c 0
 421.1 261 408.3 265 408.3 283 c 0
 408.3 295 413.9 306 425.9 306 c 0
 434.7 306 458.7 302 508.3 302 c 2
 509.9 302 l 2
 561.1 302 587.5 306 595.5 306 c 0
 610.7 306 616.3 294 616.3 285 c 0
 616.3 254 578.7 264 573.9 239 c 0
 573.1 236 573.1 233 573.1 229 c 2
 573.1 60 l 2
 573.1 49 570.7 40 561.9 40 c 0
 552.3 40 545.1 61 537.9 61 c 0
 533.1 61 529.1 56 526.7 53 c 0
 477.1 -1 416.3 -24 362.7 -24 c 0
EndSplineSet
EndChar

StartChar: H
Encoding: 72 72 41
Width: 686
GlyphClass: 2
Flags: HW
HStem: -6 50<88.7015 163.303 235.754 312.325 449.63 529.174 601.271 672.338> 365 62<234.9 529.233> 636 51<88.226 163.11 235.17 313.319 456.11 527.792 600.779 676.002>
VStem: 163.7 71.2<48.884 365 427 634.922> 530.1 70.4<45.9662 365 427 634.938>
LayerCount: 2
Fore
SplineSet
202.9 0 m 0
 149.3 0 107.7 -6 104.5 -6 c 0
 91.7002 -6 88.5 6 88.5 21 c 0
 88.5 43 98.9004 40 142.9 44 c 0
 162.1 46 163.7 59 163.7 76 c 2
 163.7 605 l 2
 163.7 637 146.9 635 122.9 639 c 0
 108.5 642 87.7002 638 87.7002 660 c 0
 87.7002 667 90.9004 687 106.1 687 c 0
 115.7 687 143.7 685 199.7 685 c 2
 202.1 685 l 2
 259.7 685 288.5 687 298.1 687 c 0
 310.1 687 311.7 678 313.3 666 c 0
 313.3 663 314.1 660 314.1 657 c 0
 314.1 637 302.1 640 253.3 636 c 0
 237.3 635 234.9 624 234.9 606 c 2
 234.9 441 l 2
 234.9 433 236.5 427 245.3 427 c 2
 515.7 427 l 2
 528.5 427 529.3 437 529.3 445 c 2
 529.3 593 l 2
 529.3 610 528.5 629 512.5 636 c 1
 491.7 647 455.7 631 455.7 663 c 0
 455.7 678 462.1 687 474.9 687 c 0
 482.9 687 507.7 685 557.3 685 c 0
 614.1 685 658.9 689 662.1 689 c 0
 671.7 689 677.3 681 677.3 669 c 0
 677.3 640 659.7 643 622.1 636 c 0
 602.1 633 600.5 620 600.5 607 c 2
 600.5 82 l 1
 600.5 77 l 2
 600.5 65 602.1 47 622.9 45 c 0
 653.3 42 672.5 46 672.5 20 c 0
 672.5 8 669.3 -6 656.5 -6 c 0
 653.3 -6 610.9 0 558.9 0 c 0
 506.9 0 465.3 -6 462.1 -6 c 0
 451.7 -6 449.3 4 449.3 14 c 0
 449.3 45 457.3 40 506.1 45 c 1
 528.5 46 530.1 61 530.1 83 c 2
 530.1 354 l 2
 530.1 363 526.9 365 519.7 365 c 2
 246.9 365 l 2
 236.5 365 234.9 358 234.9 348 c 2
 234.9 77 l 2
 234.9 63 234.9 49 273.3 44 c 0
 285.3 42 312.5 45 312.5 22 c 0
 312.5 5 310.1 -6 299.7 -6 c 0
 297.3 -6 254.9 0 202.9 0 c 0
EndSplineSet
EndChar

StartChar: I
Encoding: 73 73 42
Width: 290
GlyphClass: 2
Flags: HW
HStem: -6 52<43.2485 126.038 199.119 276.359> 631 49<56.2969 127.092 199.1 262.029>
VStem: 126.3 72.8<48.0003 628.443>
LayerCount: 2
Fore
SplineSet
73.5 680 m 0
 76.7002 680 115.9 675 165.5 675 c 0
 215.9 675 240.7 679 248.7 679 c 0
 255.1 679 262.3 676 262.3 660 c 0
 262.3 630 252.7 633 211.9 628 c 0
 200.7 627 199.1 619 199.1 611 c 2
 199.1 71 l 2
 199.1 61 199.1 48 213.5 46 c 0
 258.3 42 276.7 47 276.7 23 c 0
 276.7 11 274.3 -6 260.7 -6 c 0
 257.5 -6 213.5 0 159.1 0 c 0
 104.7 0 59.9004 -6 56.7002 -6 c 0
 44.7002 -6 43.9004 6 43.0996 17 c 0
 42.2998 20 42.2998 23 42.2998 26 c 0
 42.2998 47 53.5 43 109.5 48 c 0
 123.9 49 126.3 59 126.3 76 c 2
 126.3 596 l 2
 126.3 602 127.1 607 127.1 610 c 0
 127.1 631 115.9 628 74.2998 631 c 0
 64.7002 632 55.9004 635 55.9004 652 c 0
 55.9004 664 59.9004 680 73.5 680 c 0
EndSplineSet
EndChar

StartChar: J
Encoding: 74 74 43
Width: 274
GlyphClass: 2
Flags: HW
HStem: -212 60<0.899999 70.7559> 632 48<33.963 114.027 190.303 260.738>
VStem: 116.1 72.8<-47.6 625.019>
LayerCount: 2
Fore
SplineSet
153.7 675 m 2
 209.7 675 237.7 679 247.3 679 c 0
 258.5 679 260.9 669 260.9 659 c 0
 260.9 627 247.3 632 209.7 627 c 0
 191.3 625 188.9 612 188.9 593 c 2
 188.9 56 l 2
 188.9 -25 158.5 -98 118.5 -146 c 0
 110.5 -156 59.2998 -212 20.0996 -212 c 0
 -18.2998 -212 -43.9004 -170 -43.9004 -135 c 0
 -43.9004 -109 -29.5 -86 -7.90039 -86 c 0
 31.2998 -86 34.5 -152 68.9004 -152 c 0
 96.0996 -152 104.9 -110 108.9 -91 c 0
 114.5 -66 116.1 -52 116.1 -26 c 2
 116.1 595 l 2
 116.1 630 96.9004 626 51.2998 632 c 0
 44.0996 633 33.7002 636 33.7002 653 c 0
 33.7002 665 37.7002 680 51.2998 680 c 0
 54.5 680 97.7002 675 150.5 675 c 2
 153.7 675 l 2
EndSplineSet
EndChar

StartChar: K
Encoding: 75 75 44
Width: 589
GlyphClass: 2
Flags: HW
HStem: -6 50<77.5845 151.776 226.12 305.789> -5 38<535.698 583.987> 315 55<225.202 256.398> 630 57<467.723 558.934> 640 48<75.7373 151.497 226.24 298.302>
VStem: 154.8 70.4<49.4271 312.167 370.007 633.513>
LayerCount: 2
Back
SplineSet
290 -6 m 0
 286.8 -6 243.6 0 190 0 c 0
 137.2 0 94 -6 90.7998 -6 c 0
 79.5996 -6 77.2002 6 77.2002 17 c 0
 77.2002 52.2725 113.972 40.0459 134 47 c 0
 150 53 154.8 62 154.8 93 c 2
 154.8 590 l 2
 154.8 638 140.4 635 98 640 c 0
 87.5996 641 75.5996 646 75.5996 664 c 0
 75.5996 673 81.2002 688 98.7998 688 c 0
 107.6 688 134 684 186.8 684 c 2
 187.6 684 l 2
 240.4 684 266.8 688 275.6 688 c 0
 294 688 298.8 670 298.8 662 c 0
 298.8 632 254.8 647 237.2 637 c 0
 226 630 225.2 614 225.2 604 c 2
 225.2 387 l 2
 225.2 380 226.8 370 235.6 370 c 0
 243.6 370 249.2 381 256.4 391 c 0
 305.2 459 398 588 402 596 c 0
 405.2 601 408.4 609 408.4 617 c 0
 408.4 660 355.6 630 355.6 666 c 0
 355.6 679 362.8 687 374 687 c 0
 382.8 687 407.6 685 458 685 c 2
 462.8 685 l 2
 510.8 685 534.8 687 542.8 687 c 0
 560.4 687 565.2 675 565.2 666 c 0
 565.2 638 522.8 645 494 630 c 0
 469.2 617 454 590 436.4 567 c 0
 293.2 374 293.2 377 293.2 368 c 0
 293.2 362 295.6 358 299.6 353 c 0
 522.8 59 513.2 69 525.2 59 c 0
 551.6 38 566.8 49 579.6 33 c 0
 582 29 584.4 23 584.4 18 c 0
 584.4 9 578 -5 561.2 -5 c 0
 550 -5 546 -1 523.6 -1 c 0
 464.4 0 465.2 -5 445.2 24 c 0
 245.2 311 246 315 236.4 315 c 2
 235.6 315 l 2
 225.2 315 224.4 303 224.4 295 c 2
 224.4 84 l 2
 224.4 45 236.4 49 288.4 44 c 0
 294 43 306 41 306 22 c 0
 306 7 302.8 -6 290 -6 c 0
EndSplineSet
Fore
SplineSet
290 -6 m 0xa4
 286.8 -6 243.6 0 190 0 c 0
 137.2 0 94 -6 90.7998 -6 c 0
 79.5996 -6 77.2002 6 77.2002 17 c 0
 77.2002 45 98.7998 42 118.8 44 c 0
 143.6 46 154.8 54 154.8 93 c 2
 154.8 590 l 2
 154.8 638 140.4 635 98 640 c 0
 87.5996 641 75.5996 646 75.5996 664 c 0
 75.5996 673 81.2002 688 98.7998 688 c 0
 107.6 688 134 684 186.8 684 c 2
 187.6 684 l 2
 240.4 684 266.8 688 275.6 688 c 0xac
 294 688 298.8 670 298.8 662 c 0
 298.8 632 254.8 647 237.2 637 c 0
 226 630 225.2 614 225.2 604 c 2
 225.2 387 l 2
 225.2 380 226.8 370 235.6 370 c 0
 243.6 370 249.2 381 256.4 391 c 0
 305.2 459 398 588 402 596 c 0
 405.2 601 408.4 609 408.4 617 c 0
 408.4 660 355.6 630 355.6 666 c 0
 355.6 679 362.8 687 374 687 c 0
 382.8 687 407.6 685 458 685 c 2
 462.8 685 l 2
 510.8 685 534.8 687 542.8 687 c 0
 560.4 687 565.2 675 565.2 666 c 0
 565.2 638 522.8 645 494 630 c 0
 469.2 617 454 590 436.4 567 c 0
 293.2 374 293.2 377 293.2 368 c 0
 293.2 362 295.6 358 299.6 353 c 0
 522.8 59 513.2 69 525.2 59 c 0
 551.6 38 566.8 49 579.6 33 c 0
 582 29 584.4 23 584.4 18 c 0
 584.4 9 578 -5 561.2 -5 c 0x74
 550 -5 546 -1 523.6 -1 c 0
 464.4 0 465.2 -5 445.2 24 c 0
 245.2 311 246 315 236.4 315 c 2
 235.6 315 l 2
 225.2 315 224.4 303 224.4 295 c 2
 224.4 84 l 2
 224.4 45 236.4 49 288.4 44 c 0
 294 43 306 41 306 22 c 0
 306 7 302.8 -6 290 -6 c 0xa4
EndSplineSet
EndChar

StartChar: L
Encoding: 76 76 45
Width: 506
GlyphClass: 2
Flags: HW
HStem: 0 60<204.132 420.557> 0 45<67.613 128.931> 629 49<64.6652 129.369 204.122 286.943>
VStem: 129.4 74.4<60.5237 626.364> 457.4 36<127.281 178.977>
LayerCount: 2
Fore
SplineSet
176.6 675 m 2x78
 234.2 675 263.8 678 273.4 678 c 0
 286.2 678 287 667 287 651 c 0
 287 631 278.2 628 269.4 628 c 0
 215 626 203.8 633 203.8 599 c 2
 203.8 92 l 2
 203.8 75 205.4 60 224.6 60 c 2
 377.4 60 l 1
 379.8 60 l 2xb8
 393.4 60 410.2 61 423.8 87 c 0
 431.8 102 452.6 165 457.4 172 c 0
 460.6 177 464.6 180 469.4 180 c 0
 474.2 180 493.4 177 493.4 157 c 0
 493.4 152 483 63 477.4 16 c 0
 475.8 5 474.2 -6 455.8 -6 c 0
 444.6 -6 301.4 0 122.2 0 c 2
 79.7998 0 l 2
 69.4004 0 67 8 67 16 c 0
 67 36 76.5996 36 111 45 c 1
 128.6 51 129.4 64 129.4 77 c 2
 129.4 80 l 1
 129.4 605 l 2
 129.4 633 119 628 84.5996 629 c 0
 74.2002 630 64.5996 634 64.5996 653 c 0
 64.5996 672 70.2002 678 79.7998 678 c 0
 88.5996 678 115.8 676 171 675 c 1
 176.6 675 l 2x78
EndSplineSet
EndChar

StartChar: M
Encoding: 77 77 46
Width: 899
GlyphClass: 2
Flags: HW
HStem: -15 21G<495.5 504.7> -6 59<260.239 333.934> -6 55<117.312 197.818 664.516 745.758 821.223 897.916> 635 40<119.157 180.497>
VStem: 200.7 56<53.3311 334.948> 220.7 40.8<334.948 477.998> 748.7 71.2<51.3681 476.999>
DStem2: 268.7 662 211.9 574 0.43831 -0.898824<-25.8286 61.502 389.322 576.435>
LayerCount: 2
Back
SplineSet
678.3 -6 m 4xd8
 666.3 -6 663.1 9 663.1 18 c 4
 663.1 63 739.1 20 747.9 79 c 4
 748.7 85 748.7 92 748.7 98 c 6
 748.7 311 l 6
 748.7 380 747.1 468 746.3 471 c 4
 745.5 476 743.1 477 740.7 477 c 4
 735.1 477 731.9 470 729.5 465 c 4
 658.3 323 535.1 19 520.7 -3 c 4
 513.5 -14 506.3 -15 503.1 -15 c 4
 487.9 -15 480.7 7 475.1 21 c 4
 388.7 243 273.5 472 267.1 477 c 4
 266.3 478 265.5 478 264.7 478 c 4
 262.3 478 261.5 475 261.5 473 c 4
 258.3 403 256.7 335 256.7 265 c 4
 256.7 223 259.1 72 261.5 62 c 4
 269.5 29 336.7 65 336.7 17 c 4
 336.7 8 333.5 -6 322.3 -6 c 4
 319.1 -6 277.5 0 226.3 0 c 4
 175.1 0 133.5 -6 130.3 -6 c 4
 124.7 -6 115.9 -2 115.9 16 c 4
 115.9 46 135.1 43 175.1 49 c 4
 201.5 53 198.3 74 200.7 102 c 4
 212.7 280 220.7 504 220.7 549 c 4
 220.7 562 215.9 568 211.9 574 c 4
 199.9 590 181.5 634 135.1 635 c 4
 129.5 636 119.1 636 119.1 653 c 4
 119.1 674 127.9 675 133.5 675 c 6
 248.7 675 l 6
 259.9 675 263.9 672 268.7 662 c 6
 419.9 346 l 5
 513.5 160 l 6
 515.1 156 519.9 148 527.1 148 c 4
 532.7 148 535.9 152 538.3 159 c 4
 755.1 666 754.3 666 755.1 666 c 4
 758.3 673 762.3 675 769.5 675 c 6
 885.5 675 l 6xb8
 891.1 675 897.5 674 897.5 653 c 4
 897.5 626 878.3 633 835.1 616 c 4
 822.3 612 815.9 605 815.9 587 c 4
 819.1 199 819.9 150 819.9 101 c 6
 819.9 94 l 6
 819.9 69 820.7 49 847.9 45 c 4
 883.1 41 899.1 45 899.1 16 c 4
 899.1 3 892.7 -6 883.1 -6 c 4
 879.1 -6 835.1 0 779.9 0 c 4
 725.5 0 681.5 -6 678.3 -6 c 4xd8
EndSplineSet
Fore
SplineSet
678.3 -6 m 0x36
 666.3 -6 663.1 9 663.1 18 c 0
 663.1 39 679.9 41 699.1 43 c 0
 727.1 46 748.7 50 748.7 94 c 2
 748.7 311 l 2
 748.7 380 747.1 468 746.3 471 c 0
 745.5 476 743.1 477 740.7 477 c 0
 735.1 477 731.9 470 729.5 465 c 0
 658.3 323 535.1 19 520.7 -3 c 0
 513.5 -14 506.3 -15 503.1 -15 c 0
 487.9 -15 480.7 7 475.1 21 c 0
 388.7 243 273.5 472 267.1 477 c 0
 266.3 478 265.5 478 264.7 478 c 0
 262.3 478 261.5 475 261.5 473 c 0x96
 258.3 403 256.7 335 256.7 265 c 0
 256.7 232 258.3 133 259.9 86 c 0
 260.7 71 259.1 60 266.3 53 c 0
 286.3 35 336.7 60 336.7 17 c 0
 336.7 8 333.5 -6 322.3 -6 c 0x5a
 319.1 -6 277.5 0 226.3 0 c 0
 175.1 0 133.5 -6 130.3 -6 c 0
 124.7 -6 115.9 -2 115.9 16 c 0
 115.9 46 135.1 43 175.1 49 c 0
 201.5 53 198.3 74 200.7 102 c 0x3a
 212.7 280 220.7 504 220.7 549 c 0
 220.7 562 215.9 568 211.9 574 c 0
 199.9 590 181.5 634 135.1 635 c 0
 129.5 636 119.1 636 119.1 653 c 0
 119.1 674 127.9 675 133.5 675 c 2
 248.7 675 l 2
 259.9 675 263.9 672 268.7 662 c 2
 419.9 346 l 1
 513.5 160 l 2
 515.1 156 519.9 148 527.1 148 c 0
 532.7 148 535.9 152 538.3 159 c 0
 755.1 666 754.3 666 755.1 666 c 0
 758.3 673 762.3 675 769.5 675 c 2
 885.5 675 l 2
 891.1 675 897.5 674 897.5 653 c 0
 897.5 626 878.3 633 835.1 616 c 0
 822.3 612 815.9 605 815.9 587 c 0
 819.1 199 819.9 150 819.9 101 c 2
 819.9 94 l 2
 819.9 69 820.7 49 847.9 45 c 0
 883.1 41 899.1 45 899.1 16 c 0
 899.1 3 892.7 -6 883.1 -6 c 0
 879.1 -6 835.1 0 779.9 0 c 0
 725.5 0 681.5 -6 678.3 -6 c 0x36
EndSplineSet
EndChar

StartChar: N
Encoding: 78 78 47
Width: 719
GlyphClass: 2
Flags: HW
HStem: -23 21G<620 632> -6 52<230.815 312.518> -6 46<97.1564 170.925 264.504 323.019> 633 48<87.3299 152.673 520.906 586.55 645.395 712.686>
VStem: 590.4 49.6<360.111 627.882> 597.6 39.2<172.004 504.224>
DStem2: 235.2 662 172.8 590 0.572687 -0.819774<-39.4344 69.9078 173.945 595.799>
LayerCount: 2
Back
SplineSet
87.2002 655 m 4xe0
 87.2002 676 94.4004 681 104.8 681 c 6
 203.2 681 l 6
 220 681 226.4 675 235.2 662 c 6
 360.8 480 l 5
 433.6 378 l 5
 578.4 182 584.8 172 590.4 172 c 4xe0
 595.2 172 596 177 596 182 c 4
 596.8 218 597.6 253 597.6 289 c 4xd0
 597.6 391 595.2 489 590.4 587 c 4
 588.8 630 573.6 631 538.4 636 c 4
 532.8 637 520.8 640 520.8 657 c 4
 520.8 667 526.4 681 544 681 c 4
 551.2 681 574.4 678 620.8 678 c 4
 666.4 678 688.8 681 696 681 c 4
 704.8 681 712.8 675 712.8 658 c 4
 712.8 606 640 673 640 576 c 5xe0
 638.4 486 636.8 395 636.8 305 c 4xd0
 636.8 136 640 52 640 24 c 4
 640 10 640 -23 624 -23 c 4
 616 -23 607.2 -13 584.8 19 c 6
 419.2 255 l 5
 257.6 480 244.8 499 241.6 499 c 4
 240 499 239.2 496 238.4 495 c 4
 232 378 228 262 228 140 c 6
 228 111 l 6
 228 59 230.4 49 264 46 c 4
 274.4 46 307.2 41 312.8 39 c 4
 316 37 323.2 34 323.2 13 c 4
 323.2 2 318.4 -6 309.6 -6 c 4
 306.4 -6 264 0 212 0 c 4
 159.2 0 117.6 -6 113.6 -6 c 4
 104 -6 96.7998 2 96.7998 14 c 4
 96.7998 17 98.4004 36 108.8 40 c 4
 126.4 47 164 39 176.8 72 c 4
 180.8 84 180 81 199.2 542 c 5
 199.2 545 l 5
 199.2 546 l 6
 199.2 555 198.4 561 172.8 590 c 4
 167.2 597 145.6 629 101.6 633 c 4
 93.5996 633 87.2002 636 87.2002 655 c 4xe0
EndSplineSet
Fore
SplineSet
199.2 542 m 1x38
 199.2 546 l 2
 199.2 555 198.4 561 172.8 590 c 0
 167.2 597 145.6 629 101.6 633 c 0
 93.5996 633 87.2002 636 87.2002 655 c 0
 87.2002 676 94.4004 681 104.8 681 c 2
 203.2 681 l 2
 220 681 226.4 675 235.2 662 c 2
 360.8 480 l 1
 433.6 378 l 1
 578.4 182 584.8 172 590.4 172 c 0x38
 595.2 172 596 177 596 182 c 0
 596.8 218 597.6 253 597.6 289 c 0x34
 597.6 391 595.2 489 590.4 587 c 0
 588.8 630 573.6 631 538.4 636 c 0
 532.8 637 520.8 640 520.8 657 c 0
 520.8 667 526.4 681 544 681 c 0
 551.2 681 574.4 678 620.8 678 c 0
 666.4 678 688.8 681 696 681 c 0
 704.8 681 712.8 675 712.8 658 c 0
 712.8 631 695.2 636 676 634 c 0
 650.4 631 640.8 620 640 564 c 0x38
 638.4 479 636.8 391 636.8 305 c 0x34
 636.8 136 640 52 640 24 c 0
 640 10 640 -23 624 -23 c 0x98
 616 -23 607.2 -13 584.8 19 c 2
 419.2 255 l 1
 257.6 480 244.8 499 241.6 499 c 0
 240 499 239.2 496 238.4 495 c 0
 232 378 228 262 228 140 c 2
 228 111 l 2
 228 59 230.4 49 264 46 c 0
 274.4 46 307.2 41 312.8 39 c 0
 316 37 323.2 34 323.2 13 c 0
 323.2 2 318.4 -6 309.6 -6 c 0x58
 306.4 -6 264 0 212 0 c 0
 159.2 0 117.6 -6 113.6 -6 c 0
 104 -6 96.7998 2 96.7998 14 c 0
 96.7998 17 98.4004 36 108.8 40 c 0
 126.4 47 164 39 176.8 72 c 0
 180.8 84 180 81 199.2 542 c 1x38
EndSplineSet
EndChar

StartChar: O
Encoding: 79 79 48
Width: 700
GlyphClass: 2
Flags: HW
HStem: -24 58<312.058 478.323> 667 53<292.575 458.918>
VStem: 92.2 76<247.435 473.525> 606.6 79.2<215.912 458.255>
LayerCount: 2
Fore
SplineSet
685.8 337 m 0
 685.8 127 554.6 -24 398.6 -24 c 0
 320.2 -24 241.8 16 185 84 c 0
 127.4 153 93 252 92.2002 353 c 1
 92.2002 556 226.6 720 387.4 720 c 0
 559.4 720 685.8 541 685.8 337 c 0
168.2 384 m 0
 168.2 211 244.2 34 395.4 34 c 0
 486.6 34 606.6 109 606.6 319 c 0
 606.6 415 583.4 529 518.6 600 c 0
 479.4 643 427.4 667 374.6 667 c 0
 275.4 667 168.2 582 168.2 384 c 0
EndSplineSet
EndChar

StartChar: P
Encoding: 80 80 49
Width: 515
GlyphClass: 2
Flags: HW
HStem: -6 53<68.8588 140.392 210.335 321.183> 301 35<211.046 334.286> 635 48<75.1483 140.533> 648 45<211.398 358.591>
VStem: 140.6 70.4<48.1758 301 336.165 634.629> 438.2 67.2<428.095 566.357>
LayerCount: 2
Fore
SplineSet
438.2 498 m 0xdc
 438.2 581 373.4 648 259.8 648 c 0
 215.8 648 211 645 211 633 c 2
 211 348 l 2
 211 337 213.4 336 240.6 336 c 0
 358.2 336 438.2 401 438.2 498 c 0xdc
112.6 683 m 2xec
 188.6 683 245.4 693 303 693 c 0xdc
 369.4 693 420.6 676 459 633 c 0
 487.8 600 505.4 552 505.4 503 c 2
 505.4 502 l 1
 504.6 427 467.8 371 423.8 342 c 0
 393.4 321 343 301 243.8 301 c 2
 219.8 301 l 2
 211.8 301 209.4 295 209.4 285 c 2
 209.4 82 l 2
 209.4 60 214.2 49 235 47 c 0
 311 43 321.4 49 321.4 19 c 2
 321.4 18 l 2
 321.4 6 319 -6 306.2 -6 c 0
 302.2 -6 254.2 0 195.8 0 c 0
 135.8 0 88.5996 -6 84.5996 -6 c 0
 71.7998 -6 68.5996 7 68.5996 18 c 0
 68.5996 46 76.5996 42 118.2 47 c 0
 136.6 50 140.6 58 140.6 74 c 2
 140.6 609 l 2
 140.6 621 139.8 635 123 635 c 2
 94.2002 635 l 2
 86.2002 635 75 636 75 661 c 0
 75 676 80.5996 683 92.5996 683 c 2
 112.6 683 l 2xec
EndSplineSet
EndChar

StartChar: Q
Encoding: 81 81 50
Width: 686
GlyphClass: 2
Flags: HW
HStem: -203 49<662.317 736.461> -16 48<332.122 482.6> 675 49<305.034 469.182>
VStem: 100.9 77.6<261.525 474.605> 608.9 71.2<231.95 470.122>
LayerCount: 2
Fore
SplineSet
410.5 32 m 0
 518.5 32 608.9 146 608.9 329 c 0
 608.9 422 587.3 542 519.3 615 c 0
 482.5 654 434.5 675 385.7 675 c 0
 283.3 675 178.5 579 178.5 392 c 0
 178.5 218 268.1 32 410.5 32 c 0
449.7 -11 m 0
 443.3 -11 424.9 -16 396.1 -16 c 0
 313.7 -16 237.7 28 185.7 94 c 0
 131.3 163 100.9 258 100.9 354 c 0
 100.9 452 133.7 551 190.5 620 c 0
 244.1 686 319.3 724 395.3 724 c 0
 461.7 724 536.1 693 592.1 624 c 0
 648.9 554 680.1 455 680.1 356 c 0
 680.1 218 619.3 87 534.5 15 c 0
 533.7 14 532.1 13 532.1 10 c 0
 532.1 8 532.9 7 534.5 6 c 0
 592.9 -45 613.7 -94 653.7 -127 c 0
 673.7 -144 697.7 -154 721.7 -154 c 0
 732.1 -154 735.3 -153 738.5 -153 c 0
 744.1 -153 748.1 -157 748.1 -163 c 0
 748.1 -179 710.5 -203 676.9 -203 c 0
 612.9 -203 572.1 -142 536.9 -98 c 0
 536.1 -97 467.3 -11 449.7 -11 c 0
EndSplineSet
EndChar

StartChar: R
Encoding: 82 82 51
Width: 627
GlyphClass: 2
Flags: HW
HStem: -13 62<545.733 598.73> -6 55<90.174 160.614 232.614 324.518> 330 36<232.347 315.113> 640 35<81.7212 152.198> 648 39<230.974 347.714>
VStem: 160.9 71.2<49.7219 330 366.549 627.863> 420.9 62.4<431.776 566.374>
DStem2: 389.7 338 388.9 202 0.500061 -0.86599<-4.06177 347.467>
LayerCount: 2
Fore
SplineSet
420.9 496 m 0x2e
 420.9 576 361.7 648 280.9 648 c 0
 270.5 648 240.1 645 232.9 638 c 0
 228.9 635 228.1 629 228.1 622 c 0
 228.1 621 228.9 620 228.9 619 c 2
 228.9 384 l 2
 228.9 366 234.5 366 281.7 366 c 0
 310.5 366 332.9 369 355.3 380 c 0
 388.9 397 420.9 436 420.9 496 c 0x2e
296.9 687 m 0
 440.9 687 483.3 583 483.3 513 c 0
 483.3 413 413.7 357 392.1 347 c 0
 390.5 346 388.1 345 388.1 342 c 0
 388.1 340 388.9 339 389.7 338 c 0
 488.1 194 507.3 126 537.7 81 c 0
 548.9 65 564.1 49 580.9 49 c 0
 601.7 49 604.9 71 615.3 71 c 0
 620.1 71 623.3 66 623.3 60 c 0
 623.3 45 600.1 -13 553.7 -13 c 0xae
 511.3 -13 478.5 44 468.9 60 c 2
 388.9 202 l 1
 317.7 326 320.1 322 315.3 326 c 0
 311.3 330 307.3 330 301.7 330 c 2
 243.3 330 l 2
 236.1 330 232.1 327 232.1 315 c 2
 232.1 84 l 1
 232.1 81 l 2
 232.1 69 232.9 52 252.9 49 c 0
 306.5 43 325.7 47 325.7 16 c 0
 325.7 3 320.1 -6 309.7 -6 c 0
 306.5 -6 261.7 0 206.5 0 c 0
 151.3 0 107.3 -6 104.1 -6 c 0
 92.0996 -6 89.7002 9 89.7002 21 c 0
 89.7002 43 102.5 41 139.3 45 c 0
 158.5 48 160.9 60 160.9 80 c 2
 160.9 597 l 2
 160.9 629 148.9 628 93.7002 640 c 0
 85.7002 642 81.7002 646 81.7002 656 c 0
 81.7002 671 84.9004 675 92.0996 675 c 2
 120.1 675 l 2x76
 191.3 675 244.1 687 296.9 687 c 0
EndSplineSet
EndChar

StartChar: S
Encoding: 83 83 52
Width: 443
GlyphClass: 2
Flags: HW
HStem: -17 56<188.451 313.118> 635 50<160.41 265.563>
VStem: 75.2 57.6<479.18 595.956> 88 40<112.089 247.636> 368 58.4<105.026 250.11>
LayerCount: 2
Fore
SplineSet
75.2002 516 m 0xe8
 75.2002 605 134.4 685 218.4 685 c 0
 283.2 685 311.2 645 321.6 645 c 0
 333.6 645 336 685 355.2 685 c 0
 362.4 685 368 677 368 666 c 0
 368 658 364.8 633 364.8 583 c 0
 364.8 534 368 510 368 502 c 0
 368 492 362.4 487 354.4 487 c 2
 353.6 487 l 1
 328 488 336.8 524 298.4 579 c 0
 276.8 609 245.6 635 210.4 635 c 0
 165.6 635 132.8 593 132.8 541 c 0xe8
 132.8 504 148.8 472 173.6 450 c 0
 216.8 411 274.4 412 325.6 385 c 0
 383.2 354 426.4 289 426.4 198 c 0
 426.4 79 349.6 -17 251.2 -17 c 0
 204.8 -17 160 5 129.6 38 c 0
 121.6 47 116 52 104.8 52 c 0
 96.7998 52 91.2002 49 84 49 c 0
 72.7998 49 69.5996 58 69.5996 64 c 0
 69.5996 76 80.7998 113 88 227 c 0
 88.7998 238 92 248 105.6 248 c 0
 122.4 248 123.2 239 128 190 c 1xd8
 133.6 120 124.8 145 148.8 105 c 0
 168.8 71 204.8 39 252 39 c 0
 315.2 39 368 100 368 178 c 0
 368 222 350.4 262 321.6 288 c 0
 275.2 330 224 327 170.4 354 c 0
 104.8 386 75.2002 451 75.2002 516 c 0xe8
EndSplineSet
EndChar

StartChar: T
Encoding: 84 84 53
Width: 623
GlyphClass: 2
Flags: HW
HStem: -6 53<231.876 316.149 391.732 478.536> 622 66<146.102 316.984 391.79 556.886>
VStem: 317.3 74.4<49.375 621.698>
LayerCount: 2
Fore
SplineSet
465.3 -6 m 0
 461.3 -6 414.9 0 356.5 0 c 0
 298.9 0 250.9 -6 247.7 -6 c 0
 234.9 -6 231.7 6 231.7 20 c 0
 231.7 45 240.5 41 290.1 47 c 0
 314.1 50 317.3 64 317.3 84 c 2
 317.3 591 l 2
 317.3 605 316.5 622 295.7 622 c 2
 176.5 622 l 2
 154.9 622 151.7 616 146.1 602 c 0
 113.3 521 112.5 509 97.2998 509 c 0
 86.9004 509 79.7002 520 79.7002 534 c 2
 79.7002 535 l 2
 79.7002 541 80.5 544 102.9 673 c 0
 105.3 687 113.3 688 119.7 688 c 2
 586.1 688 l 2
 598.9 688 600.5 678 602.1 665 c 0
 618.1 563 621.3 543 621.3 537 c 0
 621.3 525 614.9 515 606.1 515 c 0
 595.7 515 590.9 527 587.7 534 c 0
 550.1 616 551.7 622 526.9 622 c 2
 409.3 622 l 2
 392.5 622 391.7 608 391.7 595 c 2
 391.7 71 l 2
 391.7 45 402.1 49 464.5 42 c 0
 477.3 40 478.9 34 478.9 14 c 0
 478.9 4 475.7 -6 465.3 -6 c 0
EndSplineSet
EndChar

StartChar: U
Encoding: 85 85 54
Width: 680
GlyphClass: 2
Flags: HW
HStem: -15 57<307.793 497.895> 641 48<89.5978 144.247 219.122 291.79>
VStem: 144.7 72<149.926 634.586> 570.3 44.8<128.982 634.348>
LayerCount: 2
Fore
SplineSet
669.5 663 m 0
 669.5 619 615.9 677 615.9 572 c 0
 615.9 569 615.1 565 615.1 562 c 2
 615.1 335 l 2
 615.1 319 615.9 304 615.9 288 c 2
 615.9 256 l 2
 615.9 187 611.1 92 544.7 34 c 0
 505.5 0 454.3 -15 393.5 -15 c 0
 202.3 -15 163.9 117 154.3 156 c 0
 144.7 198 143.9 237 143.9 284 c 0
 143.9 309 144.7 335 144.7 360 c 2
 144.7 612 l 2
 144.7 639 131.9 638 111.1 641 c 0
 104.7 642 89.5 645 89.5 665 c 0
 89.5 674 92.7002 689 105.5 689 c 0
 113.5 689 137.5 687 186.3 686 c 1
 191.1 686 l 2
 242.3 686 267.9 689 276.7 689 c 0
 288.7 689 291.9 678 291.9 663 c 0
 291.9 636 275.1 643 242.3 637 c 0
 219.1 633 216.7 616 216.7 602 c 2
 216.7 289 l 2
 216.7 218 219.9 148 265.5 97 c 0
 305.5 51 365.5 42 409.5 42 c 0
 439.9 42 523.1 46 555.9 133 c 0
 570.3 170 571.1 215 571.1 244 c 2
 571.1 258 l 2
 571.1 279 570.3 299 570.3 320 c 2
 570.3 592 l 2
 570.3 641 553.5 640 516.7 645 c 0
 507.9 646 499.1 649 499.1 667 c 0
 499.1 684 506.3 689 514.3 689 c 0
 521.5 689 542.3 686 584.7 686 c 0
 627.1 686 647.9 689 655.1 689 c 0
 669.5 689 669.5 675 669.5 663 c 0
EndSplineSet
EndChar

StartChar: V
Encoding: 86 86 55
Width: 747
GlyphClass: 2
Flags: HW
HStem: -20 21G<418.3 430.7> 632 57<102.158 146.395> 639 50<242.554 308.111 544.01 612.15>
VStem: 96.7 145.6<609 673> 613.5 128.8<603 670.5>
LayerCount: 2
Fore
SplineSet
119.9 689 m 0xd8
 128.7 689 155.9 686 209.5 686 c 0
 260.7 686 286.3 689 294.3 689 c 0
 305.5 689 308.7 679 308.7 670 c 0
 308.7 645 299.9 646 263.9 639 c 0
 256.7 638 242.3 634 242.3 613 c 0
 242.3 605 245.5 597 247.1 593 c 0
 330.3 361 427.1 153 432.7 145 c 0
 434.3 143 436.7 141 439.9 141 c 0
 445.5 141 447.9 147 448.7 149 c 0
 509.5 287 563.1 432 608.7 585 c 0
 610.3 591 613.5 599 613.5 607 c 0
 613.5 625 603.1 634 595.9 637 c 0
 575.9 646 543.9 630 543.9 664 c 0
 543.9 676 547.9 689 561.5 689 c 0
 569.5 689 594.3 686 643.1 686 c 0
 692.7 686 716.7 689 724.7 689 c 0xb8
 737.5 689 742.3 679 742.3 662 c 0
 742.3 628 707.1 651 681.5 617 c 0
 657.5 584 615.9 394 444.7 0 c 0
 442.3 -5 436.7 -20 424.7 -20 c 0
 411.9 -20 406.3 -5 403.9 0 c 0
 147.1 561 157.5 611 133.5 632 c 0
 123.9 641 96.7002 647 96.7002 669 c 0
 96.7002 677 101.5 689 119.9 689 c 0xd8
EndSplineSet
EndChar

StartChar: W
Encoding: 87 87 56
Width: 902
GlyphClass: 2
Flags: HW
HStem: -22 21G<352.5 362.5 610.1 624.9> 644 45<342.921 407.892 480.638 539.676 712.507 780.817>
VStem: 781.3 120<605 675>
LayerCount: 2
Fore
SplineSet
131.7 689 m 0
 138.9 689 162.1 686 208.5 686 c 0
 253.3 686 276.5 689 283.7 689 c 0
 298.1 689 298.1 673 298.1 664 c 0
 298.1 627 257.3 655 242.9 633 c 0
 239.7 628 238.9 622 238.9 620 c 0
 238.9 615 239.7 611 241.3 607 c 0
 286.9 428 300.5 384 366.1 164 c 0
 368.5 156 373.3 146 378.1 146 c 0
 386.9 146 384.5 146 463.7 396 c 0
 464.5 400 465.3 404 465.3 408 c 2
 465.3 409 l 2
 465.3 417 464.5 418 412.5 606 c 0
 402.1 644 403.7 641 356.5 644 c 0
 348.5 644 342.9 648 342.9 666 c 0
 342.9 681 350.1 689 361.3 689 c 0
 369.3 689 394.1 686 443.7 686 c 2
 444.5 686 l 2
 493.3 686 518.1 689 526.1 689 c 0
 537.3 689 539.7 680 539.7 667 c 0
 539.7 647 531.7 648 505.3 644 c 0
 492.5 642 480.5 638 480.5 619 c 0
 480.5 615 481.3 611 482.1 606 c 0
 538.1 395 615.7 161 626.1 143 c 0
 628.5 139 631.7 134 635.7 134 c 2
 636.5 134 l 2
 643.7 134 647.7 146 649.3 152 c 0
 728.5 361 781.3 594 781.3 616 c 0
 781.3 641 762.9 639 728.5 644 c 0
 714.1 646 712.5 655 712.5 667 c 0
 712.5 679 714.9 689 726.9 689 c 0
 734.9 689 758.9 686 807.7 686 c 2
 808.5 686 l 2
 855.7 686 879.7 689 887.7 689 c 0
 895.7 689 901.3 684 901.3 666 c 0
 901.3 627 859.7 658 842.9 620 c 0
 837.3 607 781.3 374 650.9 26 c 0
 640.5 -3 631.7 -22 618.1 -22 c 0
 602.1 -22 591.7 6 584.5 31 c 0
 489.3 332 490.1 334 486.1 334 c 0
 484.5 334 483.7 332 482.9 330 c 0
 374.1 -22 380.5 -12 368.5 -19 c 0
 366.1 -21 363.7 -22 361.3 -22 c 0
 343.7 -22 338.1 11 330.1 34 c 0
 221.3 367 168.5 600 162.1 621 c 0
 151.7 652 126.9 630 115.7 647 c 0
 114.9 648 111.7 653 111.7 661 c 0
 111.7 672 115.7 689 131.7 689 c 0
EndSplineSet
EndChar

StartChar: X
Encoding: 88 88 57
Width: 598
GlyphClass: 2
Flags: HW
HStem: -6 48<70.4941 139.122 200.304 270.887 358.526 423.685 516.213 592.434> 641 48<80.8851 150.099 380.513 444.186>
VStem: 70.3 129.6<8.5 74> 294.3 71.2<326.776 370.875> 444.7 148<597 676.5>
LayerCount: 2
Fore
SplineSet
191.1 686 m 2
 245.5 686 271.9 689 280.7 689 c 0
 290.3 689 295.9 685 295.9 660 c 0
 295.9 627 239.9 659 239.9 617 c 0
 239.9 605 247.1 593 249.5 587 c 0
 335.1 411 335.9 408 339.1 408 c 0
 340.7 408 341.5 409 342.3 410 c 0
 431.9 568 444.7 583 444.7 611 c 0
 444.7 643 424.7 641 400.7 643 c 0
 387.9 644 379.9 650 379.9 672 c 0
 379.9 680 382.3 689 392.7 689 c 0
 401.5 689 429.5 686 484.7 686 c 0
 540.7 686 568.7 689 578.3 689 c 0
 587.9 689 592.7 682 592.7 671 c 0
 592.7 619 553.5 657 519.1 625 c 0
 504.7 612 475.1 562 469.5 551 c 0
 366.3 368 365.5 369 365.5 363 c 0
 365.5 357 367.1 356 503.1 87 c 0
 523.9 46 526.3 49 571.9 43 c 0
 582.3 41 592.7 36 592.7 15 c 0
 592.7 -4 583.9 -6 579.1 -6 c 0
 575.9 -6 531.9 0 475.9 0 c 0
 421.5 0 376.7 -6 373.5 -6 c 0
 363.1 -6 358.3 3 358.3 15 c 0
 358.3 41 370.3 40 406.3 46 c 0
 421.5 49 423.9 59 423.9 68 c 2
 423.9 70 l 2
 423.9 82 421.5 84 320.7 285 c 0
 320.7 286 319.9 288 318.3 288 c 0
 315.1 288 315.9 288 208.7 95 c 0
 204.7 88 199.9 79 199.9 69 c 0
 199.9 47 215.1 47 249.5 42 c 0
 259.1 40 271.1 37 271.1 16 c 0
 271.1 7 268.7 -6 256.7 -6 c 0
 254.3 -6 215.9 0 169.5 0 c 0
 122.3 0 85.5 -6 82.2998 -6 c 0
 72.7002 -6 70.2998 4 70.2998 13 c 0
 70.2998 42 76.7002 40 109.5 47 c 0
 139.9 54 144.7 68 176.7 124 c 0
 294.3 330 294.3 328 294.3 333 c 0
 294.3 339 291.9 342 167.1 591 c 0
 142.3 640 134.3 637 100.7 641 c 0
 91.0996 642 80.7002 646 80.7002 667 c 0
 80.7002 678 83.9004 689 96.7002 689 c 0
 105.5 689 133.5 686 188.7 686 c 2
 191.1 686 l 2
EndSplineSet
EndChar

StartChar: Y
Encoding: 89 89 58
Width: 600
GlyphClass: 2
Flags: HW
HStem: -6 51<200.189 285.262 353.474 458.961> 642 47<212.853 285.264 410.511 483.668>
VStem: 285.4 68<49.9095 315.178> 483.8 110.4<610 673>
DStem2: 343.8 353 436.6 427 0.527137 0.849781<-8.8333 291.714>
LayerCount: 2
Back
SplineSet
459 21 m 6
 459 13 l 6
 459 4 456.6 -6 446.2 -6 c 4
 442.2 -6 393.4 0 333.4 0 c 4
 271.8 0 223 -6 219.8 -6 c 4
 210.2 -6 199.8 0 199.8 22 c 4
 199.8 49 209.4 44 262.2 48 c 4
 273.4 49 285.4 48 285.4 70 c 6
 285.4 277 l 6
 285.4 301 280.6 307 268.6 332 c 4
 121.4 627 125.4 620 121.4 627 c 4
 106.2 651 87.7998 632 79 653 c 4
 77.4004 656 75.7998 661 75.7998 667 c 4
 75.7998 676 79.7998 689 95.7998 689 c 4
 104.6 689 131 686 183.8 686 c 4
 236.6 686 262.2 689 271 689 c 4
 283 689 285.4 679 285.4 669 c 4
 285.4 639 274.2 643 233.4 639 c 4
 227 638 212.6 636 212.6 616 c 6
 212.6 614 l 6
 212.6 604 215.8 600 326.2 361 c 4
 331 351 332.6 347 337.4 347 c 4
 341.4 347 343 352 343.8 353 c 4
 463 558 483.8 589 483.8 617 c 4
 483.8 666 410.2 618 410.2 669 c 4
 410.2 677 414.2 689 427 689 c 4
 434.2 689 455.8 686 498.2 686 c 6
 500.6 686 l 5
 543.8 687 564.6 689 571.8 689 c 4
 588.6 689 594.2 677 594.2 669 c 4
 594.2 648 571.8 645 552.6 614 c 6
 436.6 427 l 5
 354.2 287 353.4 296 353.4 265 c 6
 353.4 70 l 6
 353.4 46 363.8 50 441.4 45 c 4
 455.8 44 459 35 459 21 c 6
EndSplineSet
Fore
SplineSet
446.2 642 m 4
 427 643 410.2 644 410.2 669 c 4
 410.2 677 414.2 689 427 689 c 4
 434.2 689 455.8 686 498.2 686 c 6
 500.6 686 l 5
 543.8 687 564.6 689 571.8 689 c 4
 588.6 689 594.2 677 594.2 669 c 4
 594.2 648 571.8 645 552.6 614 c 6
 436.6 427 l 5
 354.2 287 353.4 296 353.4 265 c 6
 353.4 70 l 6
 353.4 46 363.8 50 441.4 45 c 4
 455.8 44 459 35 459 21 c 6
 459 13 l 6
 459 4 456.6 -6 446.2 -6 c 4
 442.2 -6 393.4 0 333.4 0 c 4
 271.8 0 223 -6 219.8 -6 c 4
 210.2 -6 199.8 0 199.8 22 c 4
 199.8 49 209.4 44 262.2 48 c 4
 273.4 49 285.4 48 285.4 70 c 6
 285.4 277 l 6
 285.4 301 280.6 307 268.6 332 c 4
 121.4 627 125.4 620 121.4 627 c 4
 106.2 651 87.7998 632 79 653 c 4
 77.4004 656 75.7998 661 75.7998 667 c 4
 75.7998 676 79.7998 689 95.7998 689 c 4
 104.6 689 131 686 183.8 686 c 4
 236.6 686 262.2 689 271 689 c 4
 283 689 285.4 679 285.4 669 c 4
 285.4 639 274.2 643 233.4 639 c 4
 227 638 212.6 636 212.6 616 c 6
 212.6 614 l 6
 212.6 604 215.8 600 326.2 361 c 4
 331 351 332.6 347 337.4 347 c 4
 341.4 347 343 352 343.8 353 c 4
 417.4 480 453.4 540 470.2 574 c 4
 476.6 588 483.8 604 483.8 616 c 4
 483.8 640 472.6 640 446.2 642 c 4
EndSplineSet
EndChar

StartChar: Z
Encoding: 90 90 59
Width: 566
GlyphClass: 2
Flags: HW
HStem: 0 81<214.157 481.439> 600 75<124.929 431.599> 706 20G<96 106>
VStem: 76.4 32.8<486.018 580.65> 82.8 37.6<681.217 725.616> 525.2 34.4<149.472 255.763>
LayerCount: 2
Fore
SplineSet
76.4004 511 m 0xf4
 76.4004 526 82.7998 571 82.7998 661 c 2
 82.7998 698 l 2
 82.7998 720 92.4004 726 99.5996 726 c 0
 112.4 726 117.2 711 120.4 702 c 1xec
 124.4 686 142 675 164.4 675 c 2
 513.2 675 l 2
 529.2 675 532.4 664 532.4 657 c 0
 532.4 647 526.8 640 460.4 531 c 1
 344.4 349 l 1
 298 279 252.4 207 216.4 127 c 0
 214.8 124 212.4 118 212.4 112 c 0
 212.4 90 230.8 89 292.4 84 c 0
 318 82 344.4 81 370.8 81 c 2
 387.6 81 l 2
 446 81 486 83 506 142 c 0
 515.6 171 519.6 232 525.2 246 c 0
 526.8 249 531.6 256 540.4 256 c 0
 547.6 256 559.6 248 559.6 228 c 2
 559.6 227 l 2
 559.6 185 554 165 550 123 c 0
 544.4 51 550.8 5 518.8 0 c 1
 100.4 0 l 1
 98.7998 0 l 2
 93.2002 0 76.4004 1 76.4004 21 c 0xf4
 76.4004 29 79.5996 35 82.7998 40 c 0xec
 186.8 224 300.4 401 420.4 567 c 0
 431.6 583 431.6 585 431.6 589 c 0
 431.6 593 430 600 420.4 600 c 2
 162 600 l 2
 122 600 125.2 586 109.2 508 c 0
 107.6 500 104.4 486 92.4004 486 c 0
 86 486 76.4004 492 76.4004 511 c 0xf4
EndSplineSet
EndChar

StartChar: bracketleft
Encoding: 91 91 60
Width: 340
GlyphClass: 2
Flags: HW
HStem: -185 25<143.2 158.586> 223 77<58.259 97.6488> 233 60<79.9203 100.951>
VStem: 56.2 81.6<233.178 292.875> 101.8 36<-159.999 232.998 293.002 678.999> 191.4 33.6<-138.954 654.033>
LayerCount: 2
Fore
SplineSet
137.8 -155 m 2x8c
 137.8 -158 138.6 -160 141 -160 c 0
 145 -160 156.2 -143 188.2 -137 c 0
 191.4 -136 191.4 -134 191.4 -131 c 2
 191.4 649 l 2
 191.4 662 173.8 653 143.4 677 c 0
 142.6 678 141.8 679 140.2 679 c 0
 138.6 679 137.8 677 137.8 674 c 2
 137.8 -155 l 2x8c
121 744 m 0
 139.4 744 153.8 708 215.4 708 c 0
 268.2 708 308.2 737 312.2 737 c 0
 317.8 737 321.8 726 321.8 721 c 0
 321.8 709 285 654 229 653 c 0
 225 653 224.2 651 224.2 646 c 2
 225 -127 l 2
 225 -147 240.2 -127 283.4 -159 c 1
 303.4 -175 321 -197 321 -207 c 0
 321 -213 317 -220 311.4 -220 c 0
 304.2 -220 267.4 -185 206.6 -185 c 0
 151.4 -185 123.4 -210 114.6 -210 c 0
 104.2 -210 101.8 -200 101.8 -188 c 2
 101.8 226 l 2
 101.8 230 101 233 98.5996 233 c 0xac
 95.4004 233 90.5996 223 79.4004 223 c 0
 61 223 56.2002 246 56.2002 264 c 0
 56.2002 293 69.7998 300 79.4004 300 c 0xd4
 89.7998 300 94.5996 293 97.7998 293 c 0xb4
 100.2 293 101 296 101 300 c 2xd4
 101 710 l 2
 101 723 102.6 744 121 744 c 0
EndSplineSet
EndChar

StartChar: backslash
Encoding: 92 92 61
Width: 211
GlyphClass: 2
Flags: HW
HStem: -226 21G<180.7 186.7>
VStem: 25.9 183.2
LayerCount: 2
Fore
SplineSet
209.1 -200 m 0
 209.1 -214 189.1 -226 184.3 -226 c 0
 177.1 -226 175.5 -217 175.5 -215 c 0
 44.2998 493 25.9004 592 25.9004 596 c 0
 25.9004 608 44.2998 618 50.7002 618 c 0
 59.5 618 61.0996 610 62.7002 603 c 0
 136.3 144 209.1 -181 209.1 -200 c 0
EndSplineSet
EndChar

StartChar: bracketright
Encoding: 93 93 62
Width: 340
GlyphClass: 2
Flags: HW
HStem: -185 25<219.414 234.8> 223 77<280.351 319.741> 233 60<277.049 298.08>
VStem: 153 33.6<-138.954 654.033> 240.2 81.6<233.178 292.875> 240.2 36<-159.999 232.998 293.002 678.999>
LayerCount: 2
Fore
SplineSet
240.2 -155 m 2x94
 240.2 674 l 2
 240.2 677 239.4 679 237.8 679 c 0
 236.2 679 235.4 678 234.6 677 c 0
 204.2 653 186.6 662 186.6 649 c 2
 186.6 -131 l 2
 186.6 -134 186.6 -136 189.8 -137 c 0
 221.8 -143 233 -160 237 -160 c 0
 239.4 -160 240.2 -158 240.2 -155 c 2x94
257 744 m 0
 275.4 744 277 723 277 710 c 2
 277 300 l 2xd4
 277 296 277.8 293 280.2 293 c 0xb4
 283.4 293 288.2 300 298.6 300 c 0
 308.2 300 321.8 293 321.8 264 c 0
 321.8 246 317 223 298.6 223 c 0xd8
 287.4 223 282.6 233 279.4 233 c 0xb8
 277 233 276.2 230 276.2 226 c 2
 276.2 -188 l 2
 276.2 -200 273.8 -210 263.4 -210 c 0
 254.6 -210 226.6 -185 171.4 -185 c 0
 110.6 -185 73.7998 -220 66.5996 -220 c 0
 61 -220 57 -213 57 -207 c 0
 57 -197 74.5996 -175 94.5996 -159 c 1
 137.8 -127 153 -147 153 -127 c 2
 153.8 646 l 2
 153.8 651 153 653 149 653 c 0
 93 654 56.2002 709 56.2002 721 c 0
 56.2002 726 60.2002 737 65.7998 737 c 0
 69.7998 737 109.8 708 162.6 708 c 0
 224.2 708 238.6 744 257 744 c 0
EndSplineSet
EndChar

StartChar: asciicircum
Encoding: 94 94 63
Width: 380
GlyphClass: 2
Flags: HW
HStem: 606 110<193.542 230.198>
VStem: 83.2 257.6<472 492>
LayerCount: 2
Fore
SplineSet
100.8 462 m 0
 90.4004 462 83.2002 472 83.2002 484 c 0
 83.2002 492 86.4004 499 88.7998 504 c 0
 180 697 180 703 197.6 713 c 0
 201.6 715 205.6 716 209.6 716 c 0
 228.8 716 240.8 691 249.6 675 c 0
 336.8 500 340.8 498 340.8 483 c 0
 340.8 469 332 460 321.6 460 c 0
 304.8 460 292 485 281.6 502 c 0
 217.6 605 219.2 606 212 606 c 1
 205.6 605 208.8 608 138.4 500 c 0
 124.8 480 116 462 100.8 462 c 0
EndSplineSet
EndChar

StartChar: underscore
Encoding: 95 95 64
Width: 474
GlyphClass: 2
Flags: HW
HStem: -76 55<74.4283 453.553>
LayerCount: 2
Fore
SplineSet
74.4004 -50 m 2
 74.4004 -46 l 2
 74.4004 -34 75.2002 -21 85.5996 -21 c 2
 442.4 -21 l 2
 452 -21 453.6 -34 453.6 -46 c 2
 453.6 -48 l 2
 453.6 -61 453.6 -76 442.4 -76 c 2
 85.5996 -76 l 2
 74.4004 -76 74.4004 -62 74.4004 -50 c 2
EndSplineSet
EndChar

StartChar: grave
Encoding: 96 96 65
Width: 203
GlyphClass: 2
Flags: HW
HStem: 474 227
VStem: 27.8 158.4
LayerCount: 2
Fore
SplineSet
27.7998 664 m 0
 27.7998 686 42.2002 701 57.4004 701 c 2
 58.2002 701 l 2
 80.5996 701 95 673 102.2 659 c 0
 182.2 510 186.2 507 186.2 494 c 0
 186.2 484 179.8 474 171 474 c 2
 169.4 474 l 2
 159.8 474 159.8 477 47.7998 619 c 0
 42.2002 626 27.7998 642 27.7998 664 c 0
EndSplineSet
EndChar

StartChar: a
Encoding: 97 97 66
Width: 383
GlyphClass: 2
Flags: HW
HStem: -12 59<311.51 356.626> 193 37<173.523 251.752> 387 47<143.624 227.837>
VStem: 71 59.2<48.7656 154.201> 252.6 56<76.3281 192.996 230.096 353.167>
LayerCount: 2
Fore
SplineSet
67.7998 345 m 0
 67.7998 381 124.6 434 191 434 c 0
 221.4 434 299 422 307 324 c 0
 307.8 312 308.6 300 308.6 288 c 2
 308.6 91 l 2
 308.6 52 327.8 47 335.8 47 c 0
 360.6 47 359 80 371 80 c 0
 374.2 80 378.2 76 378.2 67 c 0
 378.2 44 358.2 -12 316.6 -12 c 0
 280.6 -12 261.4 28 259.8 29 c 0
 259 29 259 30 258.2 30 c 0
 254.2 30 256.6 25 236.6 8 c 0
 218.2 -7 191.8 -20 162.2 -20 c 0
 107 -20 71 31 71 92 c 2
 71 93 l 2
 71 131 85.4004 163 104.6 182 c 0
 147.8 225 243.8 229 245.4 230 c 0
 251 232 251.8 237 251.8 244 c 2
 251.8 280 l 2
 251.8 312 248.6 337 232.6 360 c 0
 223 373 207 387 186.2 387 c 0
 140.6 387 119 324 117.4 320 c 0
 115 316 110.2 309 99.7998 309 c 0
 84.5996 309 67.7998 322 67.7998 345 c 0
181.4 35 m 0
 220.6 35 243.8 69 247.8 76 c 0
 251.8 83 252.6 90 252.6 99 c 2
 252.6 123 l 1
 252.6 164 l 2
 252.6 188 251.8 193 244.6 193 c 0
 230.2 193 175.8 188 149.4 157 c 0
 139 146 130.2 128 130.2 103 c 0
 130.2 87 134.2 62 147 48 c 0
 156.6 37 171 35 181.4 35 c 0
EndSplineSet
EndChar

StartChar: b
Encoding: 98 98 67
Width: 436
GlyphClass: 2
Flags: HW
HStem: -19 41<169.323 311.569> 377 53<195.065 307.225> 693 20G<151.3 155.3>
VStem: 103.3 55.2<2.73671 330.126> 105.7 56<65.0945 353.728 389.001 621.937> 379.3 50.4<104.331 284.133>
LayerCount: 2
Fore
SplineSet
161.7 395 m 0xec
 161.7 390 163.3 389 164.9 389 c 0
 172.1 389 205.7 430 273.7 430 c 0
 367.3 430 429.7 341 429.7 209 c 0
 429.7 146 412.1 43 323.3 1 c 0
 289.7 -15 251.3 -19 233.7 -19 c 0
 195.3 -19 180.1 0 156.1 0 c 0
 132.1 0 128.1 -21 116.1 -21 c 0
 104.9 -21 103.3 -5 103.3 9 c 0xf4
 103.3 126 105.7 477 105.7 594 c 0
 105.7 606 103.3 610 96.0996 616 c 0
 60.9004 643 51.2998 648 51.2998 656 c 0
 51.2998 664 57.7002 667 61.7002 669 c 0
 142.5 709 149.7 713 152.9 713 c 0
 157.7 712 164.1 709 164.1 693 c 0
 164.1 634 161.7 425 161.7 395 c 0xec
379.3 192 m 0
 379.3 304 314.5 377 245.7 377 c 0
 208.9 377 159.3 349 159.3 328 c 2
 159.3 72 l 2
 159.3 70 158.5 67 158.5 65 c 0
 158.5 53 160.1 46 169.7 41 c 0
 192.9 29 217.7 22 243.3 22 c 0
 324.9 22 379.3 91 379.3 192 c 0
EndSplineSet
EndChar

StartChar: c
Encoding: 99 99 68
Width: 344
GlyphClass: 2
Flags: HW
HStem: -18 64<173.586 279.248> 376 52<153.576 240.841>
VStem: 53.3 52.8<134.62 305.205>
LayerCount: 2
Fore
SplineSet
206.9 -18 m 0
 114.9 -18 53.2998 74 53.2998 197 c 0
 53.2998 333 122.1 428 224.5 428 c 0
 282.1 428 326.1 392 326.1 354 c 0
 326.1 331 310.9 316 294.1 316 c 0
 257.3 316 243.7 376 197.3 376 c 0
 148.5 376 106.1 306 106.1 222 c 0
 106.1 129 158.9 46 232.5 46 c 0
 294.9 46 311.7 100 330.1 100 c 0
 337.3 100 343.7 93 343.7 83 c 0
 343.7 77 341.3 71 338.9 67 c 0
 313.3 23 266.9 -18 206.9 -18 c 0
EndSplineSet
EndChar

StartChar: d
Encoding: 100 100 69
Width: 446
GlyphClass: 2
Flags: HW
HStem: -21 52<195.81 312.296> 383 40<178.773 306.277> 694 20G<380.5 385.3>
VStem: 64.5 53.6<127.427 307.105> 334.9 56.8<69.2324 354.672 408.003 610.663>
LayerCount: 2
Fore
SplineSet
241.3 383 m 0
 159.7 383 118.1 317 118.1 216 c 0
 118.1 92 202.1 31 257.3 31 c 0
 287.7 31 326.1 48 332.5 74 c 0
 334.1 82 334.9 89 334.9 97 c 2
 334.9 321 l 2
 334.9 328 334.9 335 326.9 345 c 0
 302.9 373 270.9 383 241.3 383 c 0
242.9 423 m 2
 294.9 423 325.3 408 329.3 408 c 0
 333.3 408 334.9 412 334.9 417 c 2
 334.9 585 l 2
 334.9 605 329.3 605 286.9 626 c 0
 281.3 628 271.7 632 271.7 642 c 0
 271.7 648 276.5 651 278.9 653 c 0
 363.7 705 378.9 714 382.1 714 c 0
 388.5 714 391.7 708 391.7 700 c 0
 391.7 667 389.3 570 389.3 376 c 0
 389.3 277 390.9 91 391.7 82 c 0
 392.5 67 400.5 70 429.3 68 c 0
 430.1 68 444.5 68 444.5 54 c 0
 444.5 39 429.3 39 397.3 16 c 1
 360.5 -9 350.1 -28 342.1 -28 c 0
 339.7 -28 335.7 -27 335.7 -18 c 2
 335.7 15 l 2
 335.7 17 334.9 18 334.1 18 c 0
 331.7 18 301.3 -21 238.9 -21 c 0
 134.1 -21 64.5 81 64.5 207 c 0
 64.5 311 115.7 423 242.1 423 c 2
 242.9 423 l 2
EndSplineSet
EndChar

StartChar: e
Encoding: 101 101 70
Width: 369
GlyphClass: 2
Flags: HW
HStem: -19 57<174.683 289.384> 376 55<146.474 241.077>
VStem: 59.7 56.8<115.769 316.359> 274.1 77.6<292.942 337.386>
LayerCount: 2
Fore
SplineSet
59.7002 206 m 0
 59.7002 346 127.7 431 207.7 431 c 0
 262.9 431 315.7 386 345.3 335 c 0
 348.5 330 351.7 322 351.7 313 c 2
 351.7 312 l 2
 351.7 282 310.1 272 286.9 262 c 0
 121.3 191 116.5 192 116.5 183 c 0
 116.5 171 134.1 38 234.9 38 c 0
 270.1 38 305.3 57 330.1 87 c 0
 334.1 92 340.5 101 348.5 101 c 0
 355.7 101 361.3 95 361.3 86 c 0
 361.3 82 359.7 76 355.7 70 c 0
 322.9 17 270.9 -19 214.1 -19 c 0
 148.5 -19 59.7002 35 59.7002 206 c 0
274.1 310 m 0
 274.1 322 234.9 376 190.1 376 c 0
 143.7 376 113.3 322 113.3 233 c 0
 113.3 227 115.7 226 117.3 226 c 0
 119.7 226 265.3 297 266.9 298 c 0
 271.7 301 274.1 306 274.1 310 c 0
EndSplineSet
EndChar

StartChar: f
Encoding: 102 102 71
Width: 272
GlyphClass: 2
Flags: HW
HStem: -6 45<53.4542 102.865 161.4 222.99> 359 52<47.6592 104.928 161.448 263.923> 653 67<218.546 314.935>
VStem: 106.2 55.2<38.7292 358.944 411.182 564.612>
LayerCount: 2
Fore
SplineSet
65.4004 -6 m 0
 55 -6 53.4004 8 53.4004 19 c 0
 53.4004 35 61.4004 33 91 39 c 0
 103 41 102.2 51 103 63 c 0
 104.6 88 106.2 156 106.2 350 c 0
 106.2 362 102.2 359 63.7998 360 c 0
 59 360 47 360 47 378 c 0
 47 401 53.4004 408 63.7998 408 c 0
 103.8 410 104.6 406 104.6 418 c 2
 104.6 419 l 1
 105.4 458 109.4 546 139 611 c 1
 171 679 236.6 720 285.4 720 c 0
 328.6 720 343 689 343 668 c 0
 343 649 331 629 309.4 629 c 0
 287 629 267.8 653 243 653 c 0
 186.2 653 160.6 553 160.6 436 c 2
 160.6 427 l 2
 160.6 414 161.4 411 168.6 411 c 2
 247 411 l 2
 256.6 411 264.6 407 264.6 391 c 2
 264.6 390 l 2
 264.6 381 263 359 243.8 359 c 2
 168.6 359 l 2
 163.8 359 161.4 358 161.4 351 c 2
 161.4 64 l 1
 161.4 61 l 2
 161.4 51 162.2 38 177.4 37 c 0
 214.2 33 223 39 223 16 c 0
 223 4 219.8 -6 210.2 -6 c 0
 207.8 -6 176.6 0 138.2 0 c 0
 99 0 67.7998 -6 65.4004 -6 c 0
EndSplineSet
EndChar

StartChar: g
Encoding: 103 103 72
Width: 397
GlyphClass: 2
Flags: HW
HStem: -234 47<159.503 318.194> -30 44<151.266 306.546> 112 35<167.869 247.402> 351 101<335.478 367.235> 399 34<156.358 234.649>
VStem: 62.9 62.4<200.871 354.327> 66.9 44.8<-139.464 -47.0017> 80.5 40.8<19.8401 100.604> 278.9 57.6<197.295 342.215> 343.7 46.4<-158.727 -67.4462>
LayerCount: 2
Fore
SplineSet
194.9 399 m 0xecc0
 154.9 399 125.3 355 125.3 289 c 0
 125.3 214 158.1 147 207.7 147 c 0
 250.9 147 278.9 196 278.9 258 c 0
 278.9 328 246.1 399 194.9 399 c 0xecc0
111.7 -88 m 0xe2c0
 111.7 -148 168.5 -187 242.1 -187 c 0
 324.5 -187 343.7 -143 343.7 -114 c 0
 343.7 -78 320.5 -60 311.7 -55 c 0
 275.7 -32 226.1 -41 142.9 -30 c 1
 140.5 -30 l 2
 134.9 -30 132.5 -34 126.9 -41 c 0
 117.3 -53 111.7 -71 111.7 -88 c 0xe2c0
62.9004 277 m 0xf4c0
 62.9004 361 118.1 433 192.5 433 c 0xecc0
 250.1 433 275.7 397 293.3 397 c 0
 308.5 397 324.5 410 334.9 429 c 0
 338.9 437 345.3 452 358.1 452 c 0
 373.3 452 388.5 431 388.5 411 c 0
 388.5 372 338.1 358 330.9 351 c 0
 329.3 349 327.7 346 327.7 343 c 0
 327.7 337 336.5 318 336.5 280 c 0
 336.5 188 278.9 112 203.7 112 c 0
 177.3 112 167.7 121 157.3 121 c 0
 142.9 121 121.3 92 121.3 70 c 0xf1c0
 121.3 10 254.9 37 317.3 14 c 0
 367.7 -4 390.1 -53 390.1 -97 c 0
 390.1 -152 355.7 -234 223.7 -234 c 0
 92.5 -234 66.9004 -154 66.9004 -108 c 0xf2c0
 66.9004 -47 107.7 -22 108.5 -21 c 0
 109.3 -20 110.1 -19 110.1 -17 c 0
 110.1 -11 80.5 -2 80.5 43 c 0xf1c0
 80.5 94 125.3 136 126.1 137 c 0
 126.9 138 126.9 139 126.9 140 c 0
 126.9 150 100.5 153 78.0996 204 c 0
 67.7002 226 62.9004 251 62.9004 277 c 0xf4c0
EndSplineSet
EndChar

StartChar: h
Encoding: 104 104 73
Width: 462
GlyphClass: 2
Flags: HW
HStem: -6 42<67.8214 115.498 285.408 345.352 406.651 449.388> 371 51<204.643 295.068> 699 20G<162.6 168.6>
VStem: 120.6 52.8<39.8055 348.283 385.001 609.081> 347 59.2<38.0009 293.71>
LayerCount: 2
Fore
SplineSet
285.4 8 m 2
 285.4 15 l 2
 285.4 36 295.8 32 331 38 c 0
 347 41 347 49 347 125 c 0
 347 269 328.6 308 308.6 335 c 1
 292.6 355 269.4 371 243.8 371 c 0
 209.4 371 178.2 342 174.2 322 c 0
 173.4 318 173.4 314 173.4 309 c 0
 173.4 303 173.4 69 175 62 c 0
 181.4 19 235 51 235 15 c 0
 235 6 233.4 -6 226.2 -6 c 0
 223.8 -6 191.8 0 152.6 0 c 0
 111.8 0 79.7998 -6 77.4004 -6 c 0
 67.7998 -6 67.7998 5 67.7998 14 c 0
 67.7998 31 75 30 97.4004 36 c 0
 115.8 40 115.8 56 116.6 70 c 0
 119 161 120.6 253 120.6 345 c 2
 120.6 349 l 2
 120.6 430 118.2 588 117.4 594 c 0
 113.4 619 60.5996 610 60.5996 636 c 0
 60.5996 648 71.7998 654 73.4004 655 c 0
 159 717 159.8 719 165.4 719 c 2
 166.2 719 l 2
 171 719 178.2 716 178.2 700 c 2
 177.4 392 l 2
 177.4 386 179.8 385 181.4 385 c 0
 186.2 385 221.4 422 275.8 422 c 0
 328.6 422 364.6 384 383 331 c 0
 399 284 403 253 406.2 66 c 0
 406.2 38 415.8 37 435.8 34 c 0
 442.2 33 449.4 30 449.4 16 c 0
 449.4 -2 445.4 -6 439 -6 c 0
 436.6 -6 406.2 0 366.2 0 c 0
 327.8 0 296.6 -6 294.2 -6 c 0
 287 -6 285.4 1 285.4 8 c 2
EndSplineSet
EndChar

StartChar: i
Encoding: 105 105 74
Width: 218
GlyphClass: 2
Flags: HW
HStem: -6 44<38.9088 98.8466 155.375 207.593> 421 20<144 149.2> 571 94<114.013 177.734>
VStem: 99.6 53.6<39.1511 336.573> 107.6 76.8<579.719 656.984>
LayerCount: 2
Fore
SplineSet
107.6 618 m 0xe8
 107.6 644 125.2 665 146 665 c 0
 166.8 665 184.4 644 184.4 619 c 0
 184.4 592 166 571 145.2 571 c 0
 124.4 571 107.6 591 107.6 618 c 0xe8
EndSplineSet
Refer: 203 305 S 1 0 0 1 0 0 2
EndChar

StartChar: j
Encoding: 106 106 75
Width: 202
GlyphClass: 2
Flags: HW
HStem: -231 77<-7.61336 59.7828> 422 20<138.4 142.8> 558 93<105.75 169.734>
VStem: 92.4 56.8<-117.424 346.052> 99.6 76.8<566.659 643.248>
LayerCount: 2
Fore
SplineSet
99.5996 604 m 0xe8
 99.5996 631 117.2 651 138 651 c 0
 158.8 651 176.4 631 176.4 605 c 0
 176.4 579 158 558 137.2 558 c 0
 116.4 558 99.5996 578 99.5996 604 c 0xe8
EndSplineSet
Refer: 262 567 S 1 0 0 1 0 0 2
EndChar

StartChar: k
Encoding: 107 107 76
Width: 408
GlyphClass: 2
Flags: HW
HStem: -4 38<153.183 206.527 345.782 400.994> 370 45<299.811 381.613> 698 20G<142.6 148.2>
VStem: 98.6 54.4<37.2274 171.859 225.001 625.327> 239.4 142.4<335 403.957>
LayerCount: 2
Fore
SplineSet
224.2 12 m 2
 224.2 50 261.8 22 261.8 52 c 0
 261.8 74 180.2 198 179.4 199 c 0
 179.4 200 177.8 201 176.2 201 c 0
 171.4 201 154.6 176 153.8 172 c 0
 153 169 153 165 153 161 c 2
 153 58 l 2
 153 38 159.4 39 189.8 34 c 0
 197 32 206.6 29 206.6 13 c 0
 206.6 -1 200.2 -4 195.4 -4 c 0
 189.8 -4 171.4 0 133.8 0 c 0
 96.2002 0 77.7998 -4 71.4004 -4 c 0
 61 -4 57.7998 7 57.7998 14 c 0
 57.7998 48 96.2002 21 98.5996 56 c 1
 98.5996 595 l 2
 98.5996 608 96.2002 613 89 619 c 0
 76.2002 630 53 650 52.2002 651 c 0
 49 655 49 659 49 659 c 1
 49 670 60.2002 674 65 676 c 0
 141 718 141 718 144.2 718 c 0
 152.2 718 153 708 153 701 c 2
 153 229 l 2
 153 227 153 225 155.4 225 c 0
 157 225 159.4 227 160.2 229 c 0
 231.4 320 239.4 323 239.4 347 c 0
 239.4 376 218.6 375 218.6 389 c 2
 218.6 399 l 2
 218.6 409 226.6 412 235.4 412 c 2
 281.8 412 l 2
 334.6 412 361 415 369.8 415 c 0
 378.6 415 381.8 408 381.8 396 c 0
 381.8 370 365.8 380 335.4 370 c 0
 299.4 358 271.4 320 219.4 253 c 0
 216.2 249 213.8 247 213.8 244 c 0
 213.8 239 213.8 241 306.6 102 c 0
 327.4 71 349.8 38 388.2 32 c 0
 393.8 31 401 29 401 15 c 0
 401 3 397.8 -6 388.2 -6 c 0
 385.8 -6 353 0 311.4 0 c 0
 270.6 0 237 -6 234.6 -6 c 0
 230.6 -6 224.2 -4 224.2 11 c 2
 224.2 12 l 2
EndSplineSet
EndChar

StartChar: l
Encoding: 108 108 77
Width: 215
GlyphClass: 2
Flags: HW
HStem: -5 43<38.3042 92.4942 152.462 206.226> 703 20G<138.7 145.5>
VStem: 93.5 58.4<39.238 609.091>
LayerCount: 2
Fore
SplineSet
206.3 14 m 0
 206.3 2 204.7 -6 196.7 -6 c 0
 194.3 -6 161.5 0 121.5 0 c 0
 83.0996 0 51.9004 -5 49.5 -5 c 0
 39.0996 -5 38.2998 6 38.2998 13 c 2
 38.2998 16 l 2
 38.2998 35 43.9004 34 71.0996 38 c 0
 91.9004 41 93.5 56 93.5 76 c 2
 93.5 585 l 2
 93.5 600 88.7002 600 75.0996 610 c 0
 43.0996 634 32.7002 638 32.7002 649 c 2
 32.7002 650 l 2
 32.7002 658 34.2998 656 131.1 719 c 0
 133.5 721 136.7 723 140.7 723 c 0
 150.3 723 151.9 713 151.9 704 c 2
 151.9 71 l 2
 151.9 39 160.7 41 192.7 34 c 0
 202.3 32 206.3 27 206.3 14 c 0
EndSplineSet
EndChar

StartChar: m
Encoding: 109 109 78
Width: 651
GlyphClass: 2
Flags: HMW
HStem: -6 43<185.307 238.606 266.707 329.691 382.811 437.095 480.465 533.855 591.214 640.279> 371 51<214.134 302.393 407.31 500.264> 414 20G<173.9 179.5>
VStem: 135.5 49.6<36.1465 331.765> 330.7 52.8<38.0512 337.462> 533.9 56.8<37.4201 324.172>
LayerCount: 2
Fore
SplineSet
186.7 378 m 0xdc
 190.7 378 225.1 422 273.1 422 c 0
 325.1 422 357.9 368 359.5 367 c 0
 360.3 366 361.1 366 362.7 366 c 0
 369.1 366 365.9 371 396.3 393 c 0
 430.7 418 458.7 422 473.9 422 c 0
 514.7 422 563.5 395 581.9 313 c 0
 590.7 275 590.7 236 590.7 196 c 2
 590.7 69 l 2
 590.7 37 598.7 40 629.1 32 c 0
 639.5 30 640.3 21 640.3 14 c 0
 640.3 5 638.7 -6 628.3 -6 c 0
 621.9 -6 601.1 0 561.1 0 c 0
 520.3 0 499.5 -6 493.1 -6 c 0
 488.3 -6 480.3 -2 480.3 11 c 0
 480.3 31 485.9 29 517.9 37 c 0
 533.9 40 533.9 50 533.9 64 c 2
 533.9 203 l 2
 533.9 255 531.5 316 501.1 349 c 0
 493.1 357 476.3 371 451.5 371 c 0
 416.3 371 378.7 340 378.7 325 c 0
 378.7 324 383.5 301 383.5 258 c 2
 383.5 65 l 2
 383.5 62 382.7 60 382.7 57 c 2
 382.7 56 l 2
 382.7 37 389.1 39 421.9 34 c 0
 432.3 32 437.1 26 437.1 15 c 0
 437.1 6 435.5 -6 426.7 -6 c 0
 424.3 -6 392.3 0 352.3 0 c 0
 312.3 0 279.5 -6 277.9 -6 c 0
 268.3 -6 266.7 3 266.7 16 c 0
 266.7 32 276.3 30 309.9 37 c 0
 327.5 41 330.7 51 330.7 75 c 2
 330.7 260 l 2
 330.7 293 327.5 326 305.1 347 c 0
 291.5 360 271.5 371 249.1 371 c 0xdc
 213.9 371 193.1 343 188.3 332 c 0
 186.7 327 185.1 321 185.1 306 c 2
 185.1 65 l 2
 185.1 36 192.3 38 227.5 31 c 0
 238.7 29 238.7 20 238.7 10 c 0
 238.7 1 235.5 -6 228.3 -6 c 0
 225.9 -6 197.1 0 160.3 0 c 0
 125.1 0 107.5 -4 101.9 -4 c 0
 92.2998 -4 90.7002 6 90.7002 16 c 0
 90.7002 47 132.3 20 135.5 60 c 1
 135.5 308 l 2
 135.5 328 133.1 327 103.5 355 c 0
 101.1 357 96.2998 361 96.2998 367 c 0
 96.2998 376 96.2998 373 161.1 425 c 0
 169.9 431 171.5 434 176.3 434 c 0xbc
 182.7 434 183.5 427 183.5 422 c 2
 183.5 384 l 2
 183.5 381 184.3 378 186.7 378 c 0xdc
EndSplineSet
EndChar

StartChar: n
Encoding: 110 110 79
Width: 449
GlyphClass: 2
Flags: HW
HStem: -6 42<58.891 110.201 166.454 226.618 285.229 339.532 391.794 441.179> 384 49<209.448 303.803>
VStem: 110.8 55.2<38.2075 347.206> 339.6 52<36.1777 339.27>
LayerCount: 2
Fore
SplineSet
162.8 377 m 0
 162.8 374 164.4 373 165.2 373 c 2
 166 373 l 2
 169.2 373 206.8 432 275.6 433 c 1
 277.2 433 l 2
 313.2 433 382.8 413 390.8 289 c 0
 392.4 272 392.4 255 392.4 238 c 0
 392.4 221 391.6 203 391.6 65 c 2
 391.6 63 l 2
 391.6 35 402 37 430 32 c 0
 440.4 30 441.2 21 441.2 14 c 0
 441.2 -3 434 -6 429.2 -6 c 0
 422 -6 402 0 362 0 c 0
 326.8 0 298 -6 296.4 -6 c 0
 286.8 -6 285.2 4 285.2 14 c 0
 285.2 32 294.8 30 326.8 37 c 0
 337.2 39 339.6 44 339.6 61 c 2
 339.6 216 l 2
 339.6 234 338.8 294 329.2 324 c 0
 311.6 375 267.6 384 249.2 384 c 0
 202.8 384 170 337 166.8 319 c 0
 166 315 166 310 166 306 c 2
 166 69 l 1
 166 66 l 2
 166 55 166.8 41 183.6 38 c 0
 217.2 31 226.8 33 226.8 11 c 0
 226.8 1 223.6 -7 216.4 -7 c 0
 214 -7 181.2 0 142 0 c 0
 103.6 0 74 -6 71.5996 -6 c 0
 66.7998 -6 58.7998 -2 58.7998 12 c 0
 58.7998 32 65.2002 31 90 36 c 0
 110 40 110.8 53 110.8 70 c 2
 110.8 309 l 2
 110.8 333 110.8 331 74.7998 365 c 0
 72.4004 368 70 371 70 375 c 2
 70 376 l 2
 70 384 71.5996 383 146 433 c 0
 148.4 435 150.8 437 154 437 c 0
 161.2 437 163.6 430 163.6 422 c 2
 163.6 383 l 2
 163.6 381 162.8 378 162.8 377 c 0
EndSplineSet
EndChar

StartChar: o
Encoding: 111 111 80
Width: 420
GlyphClass: 2
Flags: HW
HStem: -19 49<180.366 290.931> 385 47<179.241 284.093>
VStem: 63.5 62.4<107.025 304.389> 349.1 54.4<109.681 295.193>
LayerCount: 2
Fore
SplineSet
63.5 204 m 0
 63.5 343 146.7 432 236.3 432 c 0
 331.5 432 403.5 338 403.5 204 c 0
 403.5 61 322.7 -19 233.1 -19 c 0
 131.5 -19 63.5 81 63.5 204 c 0
235.5 30 m 0
 303.5 30 349.1 111 349.1 200 c 0
 349.1 307 291.5 385 230.7 385 c 0
 189.1 385 125.9 343 125.9 209 c 0
 125.9 105 169.9 30 235.5 30 c 0
EndSplineSet
EndChar

StartChar: p
Encoding: 112 112 81
Width: 444
GlyphClass: 2
Flags: HW
HStem: -228 46<59.4676 122.205> -220 42<181.748 262.206> -7 34<195.04 301.416> 372 59<211.018 305.743> 421 20G<156.4 160.8>
VStem: 123.2 58.4<-177.901 -1.00293> 123.2 52<45.2268 333.699> 375.2 53.6<117.256 282.885>
LayerCount: 2
Fore
SplineSet
248.8 27 m 0x33
 313.6 27 375.2 95 375.2 195 c 0
 375.2 292 315.2 372 251.2 372 c 0
 240.8 372 219.2 371 198.4 351 c 0
 180.8 335 175.2 318 175.2 289 c 2
 175.2 74 l 2
 175.2 65 175.2 55 196 43 c 0
 212 33 230.4 27 248.8 27 c 0x33
277.6 431 m 0
 366.4 431 428.8 331 428.8 215 c 0
 428.8 82 349.6 -7 238.4 -7 c 0
 211.2 -7 188.8 -1 187.2 -1 c 0
 182.4 -1 181.6 -5 181.6 -12 c 2
 181.6 -149 l 1
 181.6 -152 l 2
 181.6 -162 182.4 -176 199.2 -178 c 0
 247.2 -184 263.2 -178 263.2 -209 c 0
 263.2 -217 260.8 -224 253.6 -224 c 0
 246.4 -224 223.2 -220 178.4 -220 c 0x75
 120 -220 76 -228 72 -228 c 0
 67.2002 -228 59.2002 -225 59.2002 -208 c 0
 59.2002 -190 68.7998 -192 105.6 -182 c 0
 118.4 -179 123.2 -171 123.2 -154 c 2xa5
 123.2 308 l 1
 123.2 310 l 2
 123.2 315 122.4 325 112.8 330 c 0
 60.7998 359 59.2002 358 59.2002 365 c 2
 59.2002 366 l 2
 59.2002 372 60.7998 371 144.8 433 c 0
 152.8 438 154.4 441 158.4 441 c 0xab
 163.2 441 164.8 436 164.8 430 c 2
 164.8 371 l 2
 164.8 368 165.6 365 167.2 365 c 0
 171.2 365 196.8 419 259.2 430 c 0
 265.6 431 271.2 431 277.6 431 c 0
EndSplineSet
EndChar

StartChar: q
Encoding: 113 113 82
Width: 473
GlyphClass: 2
Flags: HW
HStem: -235 45<285.601 349.673> -225 36<415.565 465.747> -9 61<203.414 322.026> 401 33<201.305 320.925> 426 20G<396.8 404.8>
VStem: 66 57.6<150.894 302.179> 352.4 58.4<-182.941 28.9978 78.3765 371.626>
LayerCount: 2
Fore
SplineSet
260.4 401 m 0x36
 185.2 401 123.6 327 123.6 233 c 0
 123.6 131 192.4 52 271.6 52 c 0
 301.2 52 335.6 66 346 78 c 0
 352.4 86 353.2 96 353.2 108 c 0
 353.2 131 353.2 155 350.8 343 c 0
 350.8 358 348.4 364 339.6 372 c 0
 316.4 391 288.4 401 260.4 401 c 0x36
66 213 m 0
 66 308 122 434 279.6 434 c 0xb6
 329.2 434 359.6 421 370.8 421 c 0
 394 421 392.4 446 401.2 446 c 0
 408.4 446 410 434 410 391 c 0
 410 382 410.8 373 410.8 364 c 2
 410.8 -139 l 2
 410.8 -183 423.6 -184 454.8 -189 c 0
 462 -191 466 -195 466 -203 c 0
 466 -212 462.8 -225 451.6 -225 c 0x6e
 446.8 -225 434 -223 407.6 -223 c 0
 346.8 -223 302.8 -235 299.6 -235 c 0
 290.8 -235 285.2 -228 285.2 -217 c 0
 285.2 -197 299.6 -197 329.2 -190 c 0xa6
 351.6 -184 352.4 -166 352.4 -150 c 2
 352.4 22 l 2
 352.4 26 350.8 29 347.6 29 c 0
 340.4 29 308.4 -9 244.4 -9 c 0
 147.6 -9 66 90 66 213 c 0
EndSplineSet
EndChar

StartChar: r
Encoding: 114 114 83
Width: 323
GlyphClass: 2
Flags: HW
HStem: -6 44<46.6803 96.8 154.758 232.76> 346 100<234.961 301.153>
VStem: 96.8 57.6<38.4622 329.719>
LayerCount: 2
Fore
SplineSet
152.8 377 m 0
 156 377 214.4 432 236 442 c 0
 243.2 445 250.4 446 259.2 446 c 0
 284.8 446 321.6 430 321.6 402 c 2
 321.6 401 l 1
 320.8 384 306.4 373 300 366 c 1
 291.2 359 280.8 346 267.2 346 c 0
 247.2 346 246.4 371 220 371 c 0
 194.4 371 162.4 339 157.6 330 c 0
 154.4 324 154.4 319 154.4 312 c 2
 154.4 72 l 1
 154.4 68 l 2
 154.4 57 155.2 40 174.4 38 c 0
 222.4 33 232.8 37 232.8 14 c 0
 232.8 6 232 -6 221.6 -6 c 0
 219.2 -6 184 0 140.8 0 c 0
 96 0 61.5996 -6 59.2002 -6 c 0
 51.2002 -6 46.4004 1 46.4004 11 c 0
 46.4004 35 60.7998 29 82.4004 36 c 0
 93.5996 39 96.7998 45 96.7998 60 c 2
 96.7998 325 l 2
 96.7998 345 90.4004 344 52.7998 378 c 0
 52 379 50.4004 381 49.5996 385 c 1
 49.5996 390 50.4004 388 133.6 439 c 0
 136 440 138.4 442 140.8 442 c 0
 149.6 442 150.4 431 150.4 422 c 2
 150.4 382 l 2
 150.4 379 151.2 377 152.8 377 c 0
EndSplineSet
EndChar

StartChar: s
Encoding: 115 115 84
Width: 305
GlyphClass: 2
Flags: HW
HStem: -19 54<120.444 228.01> 380 47<114.436 204.994> 412 20G<230.7 240.3>
VStem: 56.3 32.8<71.0105 155.78> 60.3 43.2<283.553 367.539> 219.5 44<295.352 359.134> 245.1 53.6<56.0454 149.045>
LayerCount: 2
Fore
SplineSet
60.2998 309 m 0xca
 60.2998 369 103.5 427 175.5 427 c 0xca
 199.5 427 211.5 422 215.5 422 c 0
 222.7 422 225.9 432 235.5 432 c 0
 245.1 432 247.5 418 248.3 413 c 0
 253.1 378 263.5 312 263.5 308 c 0xac
 263.5 295 251.5 292 245.1 292 c 0xa2
 228.3 292 230.7 321 219.5 341 c 0
 209.1 359 180.3 380 153.9 380 c 0
 126.7 380 103.5 359 103.5 327 c 0xcc
 103.5 313 107.5 276 166.7 255 c 0
 207.5 241 245.1 238 274.7 195 c 0
 295.5 165 298.7 132 298.7 116 c 0
 298.7 52 256.3 -19 177.1 -19 c 0
 140.3 -19 89.9004 -3 66.7002 31 c 0
 58.7002 42 57.0996 50 57.0996 65 c 0
 57.0996 92 56.2998 111 56.2998 125 c 0
 56.2998 151 58.7002 156 70.7002 156 c 0
 90.7002 156 77.9004 122 89.0996 94 c 0xd2
 97.0996 73 133.9 35 180.3 35 c 0
 216.3 35 245.1 62 245.1 102 c 0
 245.1 168 174.7 178 149.1 187 c 0
 84.2998 210 60.2998 260 60.2998 309 c 0xca
EndSplineSet
EndChar

StartChar: t
Encoding: 116 116 85
Width: 300
GlyphClass: 2
Flags: HW
HStem: -19 65<159.77 227.303> 363 54<159.105 266.95>
VStem: 94.3 56<56.8354 362.954>
LayerCount: 2
Fore
SplineSet
66.2998 365 m 2
 59.0996 365 50.2998 366 50.2998 378 c 0
 50.2998 395 90.2998 413 133.5 505 c 0
 135.9 510 140.7 523 149.5 523 c 0
 154.3 523 159.9 520 159.9 507 c 0
 159.9 493 159.1 451 159.1 437 c 0
 159.1 420 165.5 417 175.1 417 c 2
 247.1 417 l 2
 249.5 417 251.1 416 253.5 416 c 0
 260.7 416 274.3 416 274.3 397 c 0
 274.3 391 271.1 374 267.1 368 c 0
 263.9 364 259.9 363 252.7 363 c 2
 159.1 363 l 2
 153.5 363 151.1 361 151.1 354 c 0
 150.3 167 150.3 144 150.3 120 c 0
 150.3 85 157.5 46 191.1 46 c 0
 229.5 46 260.7 106 278.3 106 c 0
 287.1 106 292.7 97 292.7 88 c 0
 292.7 80 288.7 74 287.1 71 c 0
 259.1 31 219.9 -19 175.9 -19 c 0
 143.9 -19 100.7 9 95.0996 103 c 0
 94.2998 114 94.2998 124 94.2998 135 c 0
 94.2998 179 97.5 334 97.5 356 c 0
 97.5 361 96.7002 365 91.9004 365 c 2
 66.2998 365 l 2
EndSplineSet
EndChar

StartChar: u
Encoding: 117 117 86
Width: 453
GlyphClass: 2
Flags: HW
HStem: -14 21G<345.4 351.8> 377 38<55.0679 100.523 271.086 334.651>
VStem: 100.6 54.4<95.1389 375.136> 335.8 56.8<69.1563 373.706>
LayerCount: 2
Fore
SplineSet
336.6 33 m 0
 332.6 33 291.8 -18 225.4 -18 c 0
 160.6 -18 112.6 35 103 127 c 0
 101.4 147 100.6 167 100.6 188 c 0
 100.6 220 101.4 333 101.4 349 c 0
 101.4 358 101.4 367 79.7998 377 c 1
 65.4004 385 55 381 55 398 c 2
 55 401 l 2
 55 408 55.7998 414 63.7998 415 c 0
 130.2 420 139 421 147 421 c 0
 153.4 421 155 416 155 409 c 2
 155 204 l 2
 155 174 155 137 169.4 101 c 0
 182.2 70 211.8 34 254.2 34 c 0
 284.6 34 307.8 52 322.2 70 c 1
 334.2 87 335.8 88 335.8 100 c 2
 335.8 346 l 2
 335.8 374 323.8 373 283 382 c 0
 275 384 271 388 271 398 c 0
 271 411 275.8 414 282.2 415 c 0
 360.6 418 370.2 419 380.6 419 c 0
 391.8 419 392.6 409 392.6 399 c 2
 392.6 86 l 2
 392.6 74 397.4 77 432.6 56 c 0
 438.2 53 439 50 439 44 c 0
 439 14 427.8 37 359 -10 c 0
 356.6 -12 353.4 -14 350.2 -14 c 0
 340.6 -14 339 -4 339 6 c 2
 339 29 l 2
 339 33 337.4 33 336.6 33 c 0
EndSplineSet
EndChar

StartChar: v
Encoding: 118 118 87
Width: 440
GlyphClass: 2
Flags: HW
HStem: -25 21G<250.7 259.9> 374 41<163.105 223.887 287.151 346.288>
VStem: 50.3 112.8<349.5 406> 346.3 90.4<351 401>
LayerCount: 2
Fore
SplineSet
287.1 396 m 2
 287.1 401 l 2
 287.1 408 289.5 415 296.7 415 c 0
 303.1 415 322.3 412 360.7 412 c 0
 399.1 412 418.3 415 424.7 415 c 0
 434.3 415 436.7 406 436.7 396 c 0
 436.7 363 403.1 388 392.7 366 c 0
 390.3 360 390.3 358 387.9 346 c 0
 346.3 157 281.5 -3 271.9 -16 c 0
 268.7 -21 263.1 -25 256.7 -25 c 0
 244.7 -25 237.5 -11 230.3 6 c 0
 127.9 233 99.0996 345 87.9004 363 c 0
 71.9004 388 50.2998 363 50.2998 402 c 0
 50.2998 410 53.5 415 59.9004 415 c 0
 67.9004 415 90.2998 412 135.9 412 c 0
 182.3 412 204.7 415 212.7 415 c 0
 222.3 415 223.9 406 223.9 395 c 0
 223.9 370 206.3 380 179.1 374 c 1
 169.5 373 163.1 366 163.1 356 c 0
 163.1 343 201.5 209 258.3 87 c 0
 259.1 86 261.5 79 265.5 79 c 0
 267.9 79 269.5 83 269.5 84 c 0
 330.3 217 346.3 343 346.3 359 c 0
 346.3 378 329.5 376 299.1 379 c 0
 295.1 380 287.1 380 287.1 396 c 2
EndSplineSet
EndChar

StartChar: w
Encoding: 119 119 88
Width: 677
GlyphClass: 2
Flags: HW
HStem: -25 109<263.398 287.777 487.915 512.613> 376 39<390.867 455.598 527.674 590.705 633.851 675.487>
LayerCount: 2
Fore
SplineSet
663.6 415 m 0
 671.6 415 675.6 408 675.6 398 c 0
 675.6 372 658 377 650.8 376 c 0
 616.4 367 642.8 300 514 0 c 0
 506 -19 500.4 -25 491.6 -25 c 0
 476.4 -25 467.6 0 430 87 c 1
 379.6 209 380.4 210 377.2 210 c 0
 374.8 210 374.8 210 345.2 131 c 1
 291.6 -4 291.6 -7 285.2 -16 c 0
 282 -21 277.2 -25 270.8 -25 c 0
 261.2 -25 254.8 -16 247.6 1 c 0
 162 204 121.2 350 115.6 362 c 0
 102.8 390 80.4004 365 80.4004 398 c 0
 80.4004 407 82.7998 415 94.7998 415 c 0
 100.4 415 118.8 412 154 412 c 2
 156.4 412 l 2
 190.8 412 208.4 415 214 415 c 0
 219.6 415 223.6 410 223.6 398 c 0
 223.6 361 174 392 174 362 c 0
 174 357 176.4 349 178.8 343 c 0
 205.2 256 235.6 172 268.4 92 c 0
 269.2 90 271.6 84 276.4 84 c 0
 281.2 84 284.4 91 284.4 92 c 0
 315.6 152 356.4 252 357.2 267 c 1
 357.2 268 l 2
 357.2 276 330 346 326.8 352 c 0
 306.8 391 266.8 360 266.8 392 c 0
 266.8 406 269.2 415 279.6 415 c 0
 287.6 415 312.4 412 362 412 c 0
 411.6 412 436.4 415 444.4 415 c 0
 453.2 415 455.6 407 455.6 400 c 2
 455.6 394 l 2
 455.6 378 454 381 409.2 376 c 0
 401.2 375 390.8 371 390.8 355 c 0
 390.8 336 438.8 202 490.8 99 c 0
 494.8 90 498.8 85 503.6 85 c 0
 510 85 512.4 91 513.2 94 c 0
 570.8 221 590.8 343 590.8 354 c 0
 590.8 378 576.4 375 542 378 c 0
 534 379 527.6 382 527.6 398 c 0
 527.6 406 528.4 415 537.2 415 c 0
 542.8 415 562 411 599.6 411 c 0
 638 411 657.2 415 663.6 415 c 0
EndSplineSet
EndChar

StartChar: x
Encoding: 120 120 89
Width: 398
GlyphClass: 2
Flags: HW
HStem: -4 42<240.494 289.898 353.903 391.474> -4 30<139.97 184.962> 376 39<53.1413 94 164.306 205.23 319.633 382.582>
VStem: 189.1 54.4<202.618 231.317>
DStem2: 95.5 53 147.5 76 0.527816 0.849359<27.826 172.485 245.517 362.192> 175.5 338 185.9 216 0.545178 -0.83832<-25.1381 88.7919 140.77 289.491>
LayerCount: 2
Fore
SplineSet
63.5 415 m 0x70
 69.9004 415 89.9004 412 129.1 412 c 0
 169.1 412 189.1 415 195.5 415 c 0
 203.5 415 205.1 408 205.1 401 c 2
 205.1 399 l 2
 205.1 395 205.9 393 205.9 390 c 0
 205.9 378 200.3 379 177.1 376 c 0
 171.5 375 164.3 372 164.3 362 c 0
 164.3 354 171.5 345 175.5 338 c 0
 221.9 264 220.3 263 223.5 263 c 0
 225.1 263 225.9 264 227.5 266 c 0
 276.3 347 283.5 358 283.5 364 c 0
 283.5 386 244.3 366 244.3 390 c 0
 244.3 407 246.7 415 254.7 415 c 0
 260.3 415 277.1 412 311.5 412 c 2
 313.9 412 l 2
 349.1 412 366.7 415 372.3 415 c 0
 380.3 415 382.7 407 382.7 400 c 0
 382.7 379 377.1 380 353.1 376 c 0
 329.9 372 324.3 364 311.5 345 c 1
 243.5 233 243.5 235 243.5 231 c 0
 243.5 228 243.5 229 353.9 54 c 0
 365.9 34 367.5 36 383.5 32 c 0
 387.5 31 391.5 30 391.5 20 c 0
 391.5 6 390.7 -4 379.5 -4 c 0
 373.1 -4 353.9 0 314.7 0 c 0
 275.5 0 256.3 -4 249.9 -4 c 0
 241.1 -4 240.3 5 240.3 13 c 0
 240.3 37 257.1 30 280.3 38 c 0xb0
 287.5 41 289.9 46 289.9 51 c 0
 289.9 55 287.5 59 286.7 61 c 0
 213.1 175 213.9 174 212.3 176 c 0
 211.5 176 210.7 177 209.9 177 c 0
 205.9 177 206.7 176 147.5 76 c 0
 137.1 59 136.3 57 136.3 51 c 0
 136.3 26 175.5 39 183.5 26 c 0
 185.1 23 185.1 19 185.1 16 c 0
 185.1 4 183.5 -4 174.7 -4 c 0
 169.1 -4 152.3 0 117.1 0 c 0
 82.7002 0 65.0996 -5 59.5 -5 c 0
 51.5 -5 51.5 6 51.5 16 c 0
 51.5 42 76.2998 30 88.2998 42 c 0
 91.5 45 93.0996 49 95.5 53 c 0
 189.1 206 189.1 203 189.1 209 c 0
 189.1 212 187.5 214 185.9 216 c 0
 77.0996 385 89.0996 372 67.5 376 c 0
 54.7002 378 53.0996 385 53.0996 398 c 0
 53.0996 413 59.5 415 63.5 415 c 0x70
EndSplineSet
EndChar

StartChar: y
Encoding: 121 121 90
Width: 421
GlyphClass: 2
Flags: HW
HStem: -223 21G<111.5 131.9> 376 39<155.505 197.031 268.352 321.865 370.765 417.096>
LayerCount: 2
Fore
SplineSet
120.3 -223 m 0
 102.7 -223 89.0996 -207 89.0996 -187 c 0
 89.0996 -147 129.9 -135 159.5 -100 c 0
 180.3 -76 213.1 -13 213.1 15 c 0
 213.1 37 189.9 99 124.3 263 c 0
 109.9 297 81.9004 362 80.2998 365 c 0
 67.5 386 49.9004 365 49.9004 398 c 0
 49.9004 408 52.2998 415 61.0996 415 c 0
 66.7002 415 85.9004 412 123.5 412 c 0
 161.1 412 180.3 415 186.7 415 c 0
 195.5 415 197.1 407 197.1 399 c 0
 197.1 377 191.5 379 167.5 376 c 0
 161.9 375 155.5 373 155.5 362 c 0
 155.5 353 188.3 244 242.7 116 c 0
 242.7 114 244.3 110 248.3 110 c 0
 253.1 110 254.7 118 256.3 120 c 1
 297.9 244 321.9 322 321.9 355 c 0
 321.9 379 309.9 375 283.5 378 c 0
 276.3 379 268.3 382 268.3 397 c 0
 268.3 408 273.9 415 283.5 415 c 0
 289.1 415 308.3 412 345.9 412 c 2
 346.7 412 l 2
 383.5 412 401.9 415 407.5 415 c 0
 417.1 415 417.1 406 417.1 395 c 0
 417.1 379 411.5 380 385.9 376 c 0
 369.1 373 378.7 373 322.7 199 c 1
 286.7 90 237.9 -50 179.5 -161 c 0
 160.3 -198 143.5 -223 120.3 -223 c 0
EndSplineSet
EndChar

StartChar: z
Encoding: 122 122 91
Width: 325
GlyphClass: 2
Flags: HW
HStem: 0 65<121.005 268.752> 355 62<103.306 224.194>
VStem: 67.4 28<294.02 354.03> 269 37.6<-92.6147 -3.0012e-08> 283.4 32.8<65.8229 140.75>
LayerCount: 2
Fore
SplineSet
88.2002 454 m 2xf0
 93 454 l 2
 111.4 454 95.4004 417 115.4 417 c 2
 289.8 417 l 2
 299.4 417 307.4 413 307.4 402 c 0
 307.4 396 304.2 392 302.6 388 c 0
 121.8 81 121 83 121 76 c 0
 121 66 127.4 65 133.8 65 c 2
 249.8 65 l 2
 254.6 65 259.4 64 261.8 64 c 0
 277 64 275.4 74 283.4 125 c 0
 284.2 128 285.8 141 297 141 c 0
 302.6 141 316.2 138 316.2 124 c 0xe8
 316.2 120 305.8 61 305.8 -19 c 0
 305.8 -51 306.6 -67 306.6 -73 c 0
 306.6 -88 298.6 -93 282.6 -93 c 0
 271.4 -93 269 -85 269 -75 c 2
 269 -15 l 2
 269 -1 262.6 0 255.4 0 c 2
 69.7998 0 l 2
 49 0 45.7998 14 45.7998 23 c 0
 45.7998 35 52.2002 45 56.2002 53 c 2
 219.4 328 l 2
 221.8 331 224.2 336 224.2 341 c 0
 224.2 352 216.2 355 208.2 355 c 2
 113 355 l 2
 101.8 355 102.6 349 95.4004 310 c 0
 94.5996 307 93 294 81.7998 294 c 0
 77.7998 294 67.4004 297 67.4004 307 c 0
 67.4004 310 75.4004 351 75.4004 409 c 2
 75.4004 439 l 2
 75.4004 451 81.7998 454 88.2002 454 c 2xf0
EndSplineSet
EndChar

StartChar: braceleft
Encoding: 123 123 92
Width: 226
GlyphClass: 2
Flags: HW
HStem: 700 20G<155.3 176.5>
VStem: 61.3 61.6<240.115 270.308> 83.7 51.2<-147.001 59.8049 494.524 665.89> 109.3 48<24.5381 215.922 297.492 513.796>
LayerCount: 2
Fore
SplineSet
61.2998 256 m 0xc0
 61.2998 263 108.5 271 108.5 359 c 0
 108.5 436 86.9004 505 86.9004 586 c 0
 86.9004 691 138.1 720 172.5 720 c 0
 180.5 720 191.7 719 191.7 715 c 0
 191.7 711 158.1 701 143.7 650 c 0
 139.7 635 138.1 620 138.1 604 c 0
 138.1 546 159.7 488 159.7 411 c 0
 159.7 315 122.9 263 122.9 254 c 0xc0
 122.9 244 157.3 206 157.3 120 c 0x90
 157.3 55 134.9 -7 134.9 -70 c 0
 134.9 -162 186.1 -192 186.1 -195 c 0
 186.1 -197 183.7 -198 173.3 -198 c 0
 137.3 -198 83.7002 -167 83.7002 -57 c 0xa0
 83.7002 20 109.3 84 109.3 148 c 0x90
 109.3 229 64.5 251 62.0996 254 c 0
 61.2998 255 61.2998 255 61.2998 256 c 0xc0
EndSplineSet
EndChar

StartChar: bar
Encoding: 124 124 93
Width: 137
GlyphClass: 2
Flags: HW
HStem: 698 20G<70.1 84.5>
VStem: 55.3 42.4<-197.934 717.913>
LayerCount: 2
Fore
SplineSet
76.9004 -198 m 2
 73.7002 -198 l 2
 65.7002 -198 55.2998 -197 55.2998 -185 c 2
 55.2998 705 l 2
 55.2998 717 65.7002 718 74.5 718 c 2
 76.0996 718 l 2
 92.9004 718 97.7002 715 97.7002 705 c 2
 97.7002 -185 l 2
 97.7002 -193 95.2998 -198 76.9004 -198 c 2
EndSplineSet
EndChar

StartChar: braceright
Encoding: 125 125 94
Width: 226
GlyphClass: 2
Flags: HW
HStem: 700 20G<77.9 98.7>
VStem: 96.7 48<24.5381 215.905 296.882 513.796> 119.1 51.2<-147.001 59.8049 494.524 666.135> 131.1 61.6<240.03 269.121>
LayerCount: 2
Fore
SplineSet
167.1 586 m 0x90
 167.1 505 145.5 436 145.5 359 c 0
 145.5 274 188.7 262 191.9 259 c 0
 192.7 258 192.7 258 192.7 257 c 0x90
 192.7 255 191.9 253 189.5 252 c 0
 163.1 234 144.7 200 144.7 148 c 0xc0
 144.7 84 170.3 20 170.3 -57 c 0
 170.3 -167 116.7 -198 80.7002 -198 c 0
 70.2998 -198 67.9004 -197 67.9004 -195 c 0
 67.9004 -192 119.1 -162 119.1 -70 c 0xa0
 119.1 -7 96.7002 55 96.7002 120 c 0xc0
 96.7002 207 131.1 244 131.1 254 c 0
 131.1 258 128.7 262 127.9 264 c 0
 102.3 314 94.2998 367 94.2998 411 c 0
 94.2998 488 115.9 546 115.9 604 c 0
 115.9 693 62.2998 710 62.2998 715 c 0
 62.2998 719 74.2998 720 81.5 720 c 0
 115.9 720 167.1 691 167.1 586 c 0x90
EndSplineSet
EndChar

StartChar: asciitilde
Encoding: 126 126 95
Width: 405
GlyphClass: 2
Flags: HW
HStem: 183 71<234.142 319.222> 242 70<119.435 195.992>
LayerCount: 2
Fore
SplineSet
77.0996 173 m 0x40
 73.0996 173 64.2998 187 64.2998 193 c 0
 64.2998 197 93.9004 259 111.5 281 c 0
 122.7 296 141.1 312 164.3 312 c 0x40
 211.5 312 237.1 254 284.3 254 c 0
 329.1 254 355.5 309 362.7 314 c 0
 364.3 315 365.9 316 367.5 316 c 0
 371.5 316 386.7 308 386.7 298 c 0
 386.7 291 333.9 183 266.7 183 c 0x80
 212.3 183 194.7 242 151.5 242 c 0
 123.5 242 103.5 218 82.7002 178 c 0
 81.9004 176 80.2998 173 77.0996 173 c 0x40
EndSplineSet
EndChar

StartChar: exclamdown
Encoding: 161 161 97
Width: 292
GlyphClass: 2
Flags: HW
HStem: -16 21G<134.5 140.1> 572 102<126.81 193.512>
VStem: 118.9 82.4<582.181 664.265> 130.1 76<20.366 289.904> 165.3 26.4<367.851 461.971>
LayerCount: 2
Fore
SplineSet
138.1 -16 m 0xd0
 130.9 -16 130.1 -9 130.1 9 c 2
 130.1 32 l 2xd0
 130.1 246 160.5 425 165.3 446 c 0
 166.9 452 170.9 462 178.9 462 c 0
 190.1 462 191.7 445 191.7 429 c 2
 191.7 416 l 1xc8
 195.7 193 206.1 47 206.1 46 c 0
 206.1 33 202.1 28 195.7 24 c 0
 141.3 -16 142.1 -16 138.1 -16 c 0xd0
160.5 572 m 0
 138.1 572 118.9 595 118.9 623 c 0
 118.9 650 136.5 674 159.7 674 c 0
 181.3 674 201.3 653 201.3 623 c 0xe0
 201.3 592 182.1 572 160.5 572 c 0
EndSplineSet
EndChar

StartChar: dieresis
Encoding: 168 168 98
Width: 229
GlyphClass: 2
Flags: HW
HStem: 571 94<41.7656 105.445 149.766 213.446>
VStem: 35.1 76.8<579.068 656.984> 143.1 76.8<579.068 656.984>
LayerCount: 2
Fore
SplineSet
143.1 618 m 0
 143.1 644 161.5 665 181.5 665 c 0
 203.1 665 219.9 644 219.9 619 c 0
 219.9 592 202.3 571 181.5 571 c 0
 160.7 571 143.1 591 143.1 618 c 0
35.0996 618 m 0
 35.0996 644 53.5 665 73.5 665 c 0
 95.0996 665 111.9 644 111.9 619 c 0
 111.9 592 94.2998 571 73.5 571 c 0
 52.7002 571 35.0996 591 35.0996 618 c 0
EndSplineSet
EndChar

StartChar: copyright
Encoding: 169 169 99
Width: 694
GlyphClass: 2
Flags: HW
HStem: -24 51<299.975 472.751> 88 38<334.078 453.99> 520 34<330.765 443.235> 637 52<297.503 474.17>
VStem: 101.2 40.8<221.604 443.858> 198 52.8<234.315 415.614> 524.4 20<222.277 259.891> 630 40.8<218.952 443.657>
LayerCount: 2
Fore
SplineSet
386 27 m 0
 515.6 27 630 157 630 333 c 0
 630 495 525.2 637 385.2 637 c 0
 248.4 637 142 498 142 332 c 0
 142 160 254.8 27 386 27 c 0
101.2 332 m 0
 101.2 525 225.2 689 386 689 c 0
 545.2 689 670.8 526 670.8 332 c 0
 670.8 141 548.4 -24 385.2 -24 c 0
 231.6 -24 101.2 131 101.2 332 c 0
517.2 384 m 0
 493.2 384 511.6 422 489.2 458 c 0
 468.4 490 432.4 520 386 520 c 0
 318.8 520 250.8 451 250.8 332 c 0
 250.8 216 314.8 126 393.2 126 c 0
 448.4 126 505.2 172 524.4 250 c 0
 526.8 257 531.6 260 535.6 260 c 0
 541.2 260 544.4 256 544.4 250 c 2
 544.4 250 533.2 167 532.4 152 c 0
 531.6 141 529.2 134 518 134 c 2
 503.6 134 l 2
 492.4 134 494.8 131 480.4 121 c 0
 447.6 97 413.2 88 385.2 88 c 0
 280.4 88 198 194 198 320 c 0
 198 447 282 554 387.6 554 c 0
 454.8 554 478 521 488.4 521 c 0
 494.8 521 491.6 544 507.6 544 c 0
 511.6 544 515.6 543 517.2 534 c 0
 526.8 452 530.8 417 530.8 401 c 0
 530.8 391 530 384 517.2 384 c 0
EndSplineSet
EndChar

StartChar: guillemotleft
Encoding: 171 171 100
Width: 328
GlyphClass: 2
Flags: HW
HStem: 52 282<180.5 190.1 292.5 302.9>
VStem: 54.1 64<171.745 215.713> 166.9 63.2<171.745 215.713>
LayerCount: 2
Fore
SplineSet
184.5 334 m 0
 190.9 334 198.1 322 198.1 315 c 0
 198.1 309 198.1 310 120.5 201 c 0
 119.7 199 118.1 197 118.1 194 c 0
 118.1 188 120.5 186 194.1 79 c 0
 195.7 77 197.3 74 197.3 71 c 0
 197.3 63 190.1 52 183.7 52 c 0
 179.7 52 180.5 52 58.9004 184 c 0
 56.5 186 54.0996 189 54.0996 193 c 0
 54.0996 198 57.2998 201 59.7002 204 c 0
 181.3 334 180.5 334 184.5 334 c 0
297.3 334 m 0
 303.7 334 310.9 322 310.9 315 c 0
 310.9 309 310.9 310 233.3 201 c 0
 231.7 199 230.1 197 230.1 194 c 0
 230.1 188 233.3 186 306.1 79 c 0
 308.5 77 309.3 74 309.3 71 c 0
 309.3 63 302.9 52 296.5 52 c 0
 291.7 52 293.3 52 171.7 184 c 0
 169.3 186 166.9 189 166.9 193 c 0
 166.9 198 169.3 201 172.5 204 c 0
 294.1 334 292.5 334 297.3 334 c 0
EndSplineSet
EndChar

StartChar: logicalnot
Encoding: 172 172 101
Width: 631
GlyphClass: 2
Flags: HW
HStem: 231 57<112.6 543.8>
VStem: 543.8 45.6<41.0781 231>
LayerCount: 2
Fore
SplineSet
131 231 m 2
 119 231 112.6 235 112.6 253 c 2
 112.6 266 l 2
 112.6 287 123 288 131.8 288 c 2
 583 288 l 2
 588.6 288 589.4 285 589.4 279 c 2
 589.4 61 l 2
 589.4 48 587 41 574.2 41 c 2
 563 41 l 2
 546.2 41 543.8 53 543.8 67 c 2
 543.8 231 l 1
 131 231 l 2
EndSplineSet
EndChar

StartChar: registered
Encoding: 174 174 102
Width: 467
GlyphClass: 2
Flags: HW
HStem: 335 37<200.116 319.559> 419 27<168.714 194.3 331.696 359.324> 542 18<224.795 254.513> 657 19<165.986 192.166 222.302 265.65> 719 36<200.116 317.629>
VStem: 91.9 28<471.505 618.161> 194.3 28.8<445.157 542 560 650 651 652.047> 284.7 29.6<568.344 643.871> 398.3 28.8<471.505 618.161>
DStem2: 280.7 548 253.5 537 0.50186 -0.864949<0 123.169>
LayerCount: 2
Fore
SplineSet
245.5 676 m 0
 298.3 676 314.3 637 314.3 610 c 0
 314.3 573 288.7 552 280.7 548 c 1
 303.1 516 312.7 497 327.1 468 c 0
 331.9 457 339.9 446 347.9 446 c 0
 354.3 446 354.3 454 360.7 454 c 0
 362.3 454 365.5 451 365.5 447 c 0
 365.5 442 355.9 419 338.3 419 c 0
 325.5 419 314.3 431 306.3 446 c 2
 253.5 537 l 2
 251.9 541 251.9 542 247.1 542 c 2
 226.3 542 l 2
 224.7 542 224.7 542 224.7 539 c 2
 224.7 456 l 2
 224.7 455 223.9 454 223.9 454 c 1
 223.9 437 258.3 454 258.3 432 c 0
 258.3 425 255.1 421 250.3 421 c 0
 245.5 421 235.9 423 213.5 423 c 0
 191.1 423 179.9 421 176.7 421 c 0
 170.3 421 168.7 427 168.7 433 c 0
 168.7 443 173.5 442 187.9 445 c 1
 194.3 445 194.3 449 194.3 455 c 2
 194.3 641 l 2
 194.3 651 187.1 650 171.9 654 c 0
 168.7 654 165.5 657 165.5 662 c 0
 165.5 668 167.1 671 171.9 671 c 2
 181.5 671 l 2
 207.1 671 226.3 676 245.5 676 c 0
284.7 604 m 0
 284.7 632 267.9 657 239.1 657 c 0
 223.9 657 222.3 653 222.3 651 c 1
 223.1 650 l 1
 223.1 564 l 2
 223.1 560 224.7 560 239.1 560 c 0
 280.7 560 284.7 587 284.7 604 c 0
258.3 372 m 0
 335.1 372 398.3 451 398.3 544 c 0
 398.3 640 335.1 719 258.3 719 c 0
 183.9 719 119.9 640 119.9 544 c 0
 119.9 451 183.9 372 258.3 372 c 0
258.3 335 m 0
 166.3 335 91.9004 430 91.9004 544 c 0
 91.9004 661 166.3 755 258.3 755 c 0
 351.9 755 427.1 661 427.1 544 c 0
 427.1 430 351.9 335 258.3 335 c 0
EndSplineSet
EndChar

StartChar: degree
Encoding: 176 176 103
Width: 190
GlyphClass: 2
Flags: HW
HStem: 496 38<75.0678 138.666> 653 37<75.2334 137.66>
VStem: 30.8 32<548.199 639.382> 150.8 30.4<548.7 637.058>
LayerCount: 2
Fore
SplineSet
106 690 m 0
 148.4 690 181.2 645 181.2 593 c 0
 181.2 540 147.6 496 106 496 c 0
 65.2002 496 30.7998 539 30.7998 593 c 0
 30.7998 647 65.2002 690 106 690 c 0
106 653 m 0
 81.2002 653 62.7998 626 62.7998 594 c 0
 62.7998 561 82 534 106.8 534 c 0
 133.2 534 150.8 563 150.8 593 c 0
 150.8 624 131.6 653 106 653 c 0
EndSplineSet
EndChar

StartChar: plusminus
Encoding: 177 177 104
Width: 631
GlyphClass: 2
Flags: HW
HStem: -12 57<112.6 589.358> 280 58<112.6 327.8 373.4 589.358>
VStem: 327.8 45.6<71 280 338 546.977>
LayerCount: 2
Fore
SplineSet
131 280 m 2
 119 280 112.6 285 112.6 302 c 2
 112.6 316 l 2
 112.6 336 123 338 131.8 338 c 2
 327.8 338 l 1
 327.8 531 l 2
 327.8 545 334.2 547 343.8 547 c 2
 355 547 l 2
 371 547 373.4 539 373.4 526 c 2
 373.4 338 l 1
 573.4 338 l 2
 583 338 589.4 334 589.4 318 c 2
 589.4 304 l 2
 589.4 281 578.2 280 567.8 280 c 2
 373.4 280 l 1
 373.4 89 l 2
 373.4 73 367 71 356.6 71 c 2
 345.4 71 l 2
 330.2 71 327.8 78 327.8 90 c 2
 327.8 280 l 1
 131 280 l 2
131 -12 m 2
 119.8 -12 112.6 -9 112.6 10 c 2
 112.6 23 l 2
 112.6 44 123 45 131.8 45 c 2
 573.4 45 l 2
 583 45 589.4 42 589.4 26 c 2
 589.4 12 l 2
 589.4 -11 578.2 -12 567.8 -12 c 2
 131 -12 l 2
EndSplineSet
EndChar

StartChar: acute
Encoding: 180 180 105
Width: 204
GlyphClass: 2
Flags: HW
HStem: 474 227
VStem: 34.7 157.6
LayerCount: 2
Fore
SplineSet
162.7 701 m 0
 178.7 701 192.3 686 192.3 664 c 0
 192.3 646 183.5 633 173.1 619 c 0
 136.3 572 65.9004 483 61.9004 479 c 0
 58.7002 476 54.7002 474 49.9004 474 c 0
 40.2998 474 34.7002 484 34.7002 494 c 0
 34.7002 507 36.2998 507 118.7 659 c 0
 125.9 673 139.5 701 162.7 701 c 0
EndSplineSet
EndChar

StartChar: paragraph
Encoding: 182 182 106
Width: 675
GlyphClass: 2
Flags: HW
HStem: -204 53<560.45 622.48> -18 36<315.645 403.451> 679 31<347.958 425> 694 39<549.563 610.704>
VStem: 95.8 137.6<173.297 423.162> 367 20.8<175.738 468.644> 430.2 29.6<128.563 491.261> 611 43.2<640.104 693.031>
LayerCount: 2
Fore
SplineSet
430.2 315 m 0xcf
 430.2 498 472.6 599 472.6 607 c 0
 472.6 620 455.8 653 447.8 653 c 0
 446.2 653 445.4 651 443.8 649 c 0
 407.8 560 387.8 457 387.8 323 c 0
 387.8 196 415.8 52 425.4 52 c 0
 430.2 52 444.6 76 449.4 91 c 1
 443 135 430.2 225 430.2 315 c 0xcf
426.2 665 m 0
 426.2 674 402.2 679 391.8 679 c 0xef
 323 679 276.6 576 255.8 500 c 0
 240.6 443 233.4 382 233.4 321 c 2
 233.4 320 l 2
 233.4 147 285.4 18 362.2 18 c 0
 379 18 404.6 28 404.6 39 c 0
 404.6 48 367 142 367 313 c 0
 367 541 426.2 653 426.2 665 c 0
592.6 633 m 0
 592.6 652 611 658 611 674 c 0
 611 682 605.4 694 588.6 694 c 0xdf
 551 694 519.8 645 509.4 618 c 0
 467.8 513 459.8 410 459.8 321 c 2
 459.8 317 l 1
 460.6 125 500.6 -24 534.2 -89 c 0
 549.4 -117 569.4 -143 580.6 -151 c 0
 593.4 -160 623 -151 623 -177 c 0
 623 -193 608.6 -204 592.6 -204 c 2
 589.4 -204 l 2
 580.6 -204 565.4 -202 543 -175 c 0
 523 -151 510.2 -120 497.4 -90 c 0
 472.6 -30 468.6 -11 456.6 42 c 1
 433.4 17 415.8 -11 337.4 -17 c 0
 331.8 -17 327 -18 321.4 -18 c 0
 186.2 -18 95.7998 122 95.7998 295 c 0
 95.7998 537 252.6 710 387 710 c 0xef
 460.6 710 489.4 656 495 656 c 0
 502.2 656 507 682 545.4 711 c 0
 562.2 724 580.6 733 600.6 733 c 0xdf
 637.4 733 654.2 700 654.2 673 c 0
 654.2 636 627.8 612 611 612 c 0
 601.4 612 592.6 620 592.6 633 c 0
EndSplineSet
EndChar

StartChar: periodcentered
Encoding: 183 183 107
Width: 204
GlyphClass: 2
Flags: HW
HStem: 201 117<77.0877 149.846>
VStem: 65.9 95.2<214.578 303.753>
LayerCount: 2
Fore
SplineSet
113.1 318 m 0
 138.7 318 161.1 292 161.1 259 c 0
 161.1 228 141.1 201 113.9 201 c 0
 89.0996 201 65.9004 225 65.9004 260 c 0
 65.9004 295 88.2998 318 113.1 318 c 0
EndSplineSet
EndChar

StartChar: cedilla
Encoding: 184 184 108
Width: 179
GlyphClass: 2
Flags: HW
HStem: -199 36<42.332 114.947>
VStem: 57 37.6<-77.5 -20.3329> 117.8 48.8<-160.177 -95.2734>
LayerCount: 2
Fore
SplineSet
101 -199 m 0
 75.4004 -199 41.7998 -190 37.7998 -186 c 0
 36.2002 -184 35.4004 -182 35.4004 -179 c 0
 35.4004 -178 37.7998 -155 46.5996 -155 c 0
 47.4004 -155 72.2002 -163 87.4004 -163 c 0
 105.8 -163 117.8 -150 117.8 -130 c 0
 117.8 -104 94.5996 -82 61 -79 c 0
 60.2002 -79 57 -79 57 -76 c 0
 57 -74 73.7998 -22 82.5996 5 c 1
 107.4 5 l 1
 103.4 -11 94.5996 -43 94.5996 -44 c 0
 94.5996 -46 94.5996 -47 97.7998 -47 c 2
 99.4004 -47 l 2
 137.8 -47 166.6 -73 166.6 -123 c 0
 166.6 -156 153.8 -199 101 -199 c 0
EndSplineSet
EndChar

StartChar: guillemotright
Encoding: 187 187 109
Width: 328
GlyphClass: 2
Flags: HW
HStem: 52 282<62 72.4 175.6 185.2>
VStem: 134.8 63.2<171.321 215.498> 246.8 63.2<171.129 215.713>
LayerCount: 2
Fore
SplineSet
180.4 334 m 0
 185.2 334 182.8 334 305.2 204 c 0
 308.4 201 310 198 310 193 c 0
 310 189 308.4 186 305.2 184 c 1
 184.4 52 185.2 52 180.4 52 c 0
 175.6 52 167.6 61 167.6 70 c 0
 167.6 76 168.4 75 244.4 185 c 0
 246 188 246.8 190 246.8 193 c 0
 246.8 195 246 198 244.4 201 c 0
 166.8 310 166 309 166 315 c 0
 166 324 174 334 180.4 334 c 0
68.4004 334 m 0
 72.4004 334 75.5996 329 191.6 204 c 0
 196.4 200 198 196 198 193 c 0
 198 190 196.4 187 193.2 184 c 0
 72.4004 52 73.2002 52 68.4004 52 c 0
 62 52 55.5996 61 55.5996 70 c 0
 55.5996 76 57.2002 78 130.8 185 c 0
 133.2 188 134.8 191 134.8 194 c 0
 134.8 196 134 198 132.4 201 c 2
 57.2002 305 l 2
 55.5996 308 54 311 54 315 c 0
 54 324 62 334 68.4004 334 c 0
EndSplineSet
EndChar

StartChar: questiondown
Encoding: 191 191 110
Width: 339
GlyphClass: 2
Flags: HW
HStem: -16 38<145.445 220.575> -7 103<240.754 291.246> 572 118<153.072 226.087>
VStem: 47.2 68<60.8065 202.07> 141.6 96<586.247 675.996> 180 41.6<345.138 480.296>
LayerCount: 2
Fore
SplineSet
189.6 572 m 0x38
 164 572 141.6 598 141.6 631 c 0
 141.6 662 162.4 690 189.6 690 c 0
 214.4 690 237.6 665 237.6 630 c 0
 237.6 595 214.4 572 189.6 572 c 0x38
188.8 -16 m 0xb4
 86.4004 -16 47.2002 72 47.2002 131 c 0
 47.2002 256 180 283 180 423 c 0
 180 432 179.2 438 179.2 445 c 0
 179.2 472 192 481 200 481 c 0
 208.8 481 221.6 473 221.6 426 c 0
 221.6 295 115.2 241 115.2 126 c 0
 115.2 69 145.6 22 184.8 22 c 0xb4
 236 22 231.2 96 271.2 96 c 0
 290.4 96 304.8 76 304.8 52 c 0
 304.8 40 302.4 6 253.6 -7 c 0x74
 232.8 -13 210.4 -16 188.8 -16 c 0xb4
EndSplineSet
EndChar

StartChar: AE
Encoding: 198 198 117
Width: 904
GlyphClass: 2
Flags: HMW
HStem: -6 45<93.6471 160.114 242.305 312.777> 0 62<582.678 681.237> 0 55<608.363 796.285> 300 52<354.864 510.4> 369 58<583.902 750.882> 638 54<584.076 794.486>
VStem: 510.4 71.2<65 300 352 366.058 427 630.512> 752 43.2<271.329 368.925 428.417 512.682> 824 35.2<525.207 582.383>
LayerCount: 2
Back
SplineSet
503.2 352 m 6x3980
 506.4 352 510.4 354 510.4 361 c 6
 510.4 619 l 5
 509.6 627 506.4 631 502.4 631 c 4
 499.2 631 496 629 493.6 626 c 4
 458.4 581 353.6 366 353.6 356 c 4
 353.6 352 357.6 352 360.8 352 c 6
 503.2 352 l 6x3980
343.2 675 m 4
 343.2 680 345.6 701 354.4 701 c 4xb380
 361.6 701 384 697 464 693 c 4x3980
 504.8 691 819.2 693 826.4 691 c 4
 833.6 688 835.2 682 836 675 c 4
 841.6 631 859.2 548 859.2 544 c 4
 859.2 533 848.8 525 839.2 525 c 4
 832.8 525 827.2 528 824 535 c 4
 818.4 547 792 618 786.4 629 c 4
 781.6 638 776 638 760.8 638 c 6
 608 638 l 6
 583.2 638 583.2 618 583.2 596 c 6
 583.2 449 l 6
 583.2 439 584 427 599.2 427 c 6
 721.6 427 l 6
 750.4 427 752 440 752 473 c 6
 752 491 l 6
 752 501 754.4 513 773.6 513 c 4
 794.4 513 795.2 495 795.2 484 c 6
 795.2 300 l 6
 795.2 289 794.4 271 773.6 271 c 4
 752.8 271 752 284 752 293 c 6
 752 332 l 6
 752 363 749.6 369 731.2 369 c 6
 620.8 369 l 6
 601.6 369 581.6 367 581.6 329 c 6
 581.6 108 l 6
 581.6 78 582.4 66 607.2 62 c 4
 632 57 657.6 55 682.4 55 c 4
 738.4 55 786.4 66 796.8 76 c 4
 811.2 90 839.2 173 852 183 c 4
 854.4 185 857.6 186 860 186 c 4
 867.2 186 874.4 178 874.4 163 c 4
 874.4 156 872.8 148 849.6 20 c 4
 846.4 0 837.6 0 821.6 0 c 6
 553.6 0 l 6x7580
 466.4 0 455.2 -6 444 -6 c 4
 435.2 -6 430.4 5 430.4 15 c 4
 430.4 60 492.8 25 507.2 65 c 4
 510.4 73 510.4 83 510.4 94 c 6
 510.4 291 l 5
 509.6 299 504.8 300 501.6 300 c 6
 368.8 300 l 6
 326.4 300 328 299 323.2 289 c 4
 277.6 200 240.8 91 240.8 72 c 4
 240.8 44 261.6 46 298.4 39 c 4
 304.8 38 312.8 35 312.8 16 c 4
 312.8 7 310.4 -6 299.2 -6 c 4xb180
 296 -6 253.6 0 202.4 0 c 4x7180
 150.4 0 109.6 -6 106.4 -6 c 4
 97.5996 -6 93.5996 5 93.5996 15 c 4
 93.5996 24 96 33 102.4 36 c 4
 114.4 41 141.6 41 158.4 59 c 4
 176.8 79 190.4 140 299.2 360 c 4
 408 580 436.8 609 436.8 625 c 4
 436.8 643 416 642 359.2 653 c 4xb380
 346.4 655 343.2 665 343.2 675 c 4
EndSplineSet
Fore
SplineSet
510.4 352 m 1x1f80
 510.4 631 l 1
 507.2 631 496 629 493.6 626 c 0
 458.4 581 353.6 362 353.6 352 c 1
 510.4 352 l 1x1f80
343.2 675 m 0
 343.2 680 345.6 701 354.4 701 c 0
 361.6 701 384 697 464 693 c 0
 484 692 572.8 692 657.6 692 c 0
 742.4 692 822.4 692 826.4 691 c 0
 833.6 688 835.2 682 836 675 c 0
 841.6 631 859.2 548 859.2 544 c 0
 859.2 533 848.8 525 839.2 525 c 0
 832.8 525 827.2 528 824 535 c 0
 818.4 547 792 627 786.4 638 c 1
 608 638 l 2
 583.2 638 583.2 618 583.2 596 c 2
 583.2 449 l 2
 583.2 439 584 427 599.2 427 c 2
 721.6 427 l 2
 750.4 427 752 440 752 473 c 2
 752 491 l 2
 752 501 754.4 513 773.6 513 c 0
 794.4 513 795.2 495 795.2 484 c 2
 795.2 300 l 2
 795.2 289 794.4 271 773.6 271 c 0
 752.8 271 752 284 752 293 c 2
 752 332 l 2
 752 363 749.6 369 731.2 369 c 2
 620.8 369 l 2
 601.6 369 581.6 367 581.6 329 c 2
 581.6 108 l 2
 581.6 78 582.4 66 607.2 62 c 0x5f80
 632 57 657.6 55 682.4 55 c 0
 738.4 55 786.4 66 796.8 76 c 0
 811.2 90 839.2 173 852 183 c 0
 854.4 185 857.6 186 860 186 c 0
 867.2 186 874.4 178 874.4 163 c 0
 874.4 156 872.8 148 849.6 20 c 0
 846.4 0 837.6 0 821.6 0 c 2
 444 0 l 2x3f80
 435.2 0 430.4 5 430.4 15 c 0
 430.4 60 496 25 510.4 65 c 1
 510.4 300 l 1
 368.8 300 l 2
 326.4 300 328 299 323.2 289 c 0
 277.6 200 240.8 91 240.8 72 c 0
 240.8 44 261.6 46 298.4 39 c 0
 304.8 38 312.8 35 312.8 16 c 0
 312.8 7 310.4 -6 299.2 -6 c 0x9f80
 296 -6 253.6 0 202.4 0 c 0x3f80
 150.4 0 109.6 -6 106.4 -6 c 0x9f80
 97.5996 -6 93.5996 5 93.5996 15 c 0
 93.5996 24 96 33 102.4 36 c 0
 114.4 41 141.6 41 158.4 59 c 0
 176.8 79 190.4 140 299.2 360 c 0
 408 580 436.8 609 436.8 625 c 0
 436.8 643 416 642 359.2 653 c 0
 346.4 655 343.2 665 343.2 675 c 0
EndSplineSet
EndChar

StartChar: Ccedilla
Encoding: 199 199 118
Width: 630
GlyphClass: 2
Flags: HW
HStem: -195 36<330.814 403.686> -23 50<311.133 361.1 382.701 469.892> 439 21G<573.9 591.1> 650 46<297.362 459.825>
VStem: 85.9 76.8<229.101 451.697> 406.7 48.8<-156.256 -91.5187> 561.1 39.2<439.285 545.701>
LayerCount: 2
Fore
SplineSet
361.1 -23 m 1
 204.3 -14 85.9004 147 85.9004 335 c 0
 85.9004 436 122.7 531 174.7 594 c 0
 229.1 659 304.3 696 378.7 696 c 2
 379.5 696 l 2
 476.3 696 525.9 643 536.3 643 c 0
 549.9 643 544.3 674 559.5 679 c 0
 561.9 679 566.7 680 568.3 680 c 0
 576.3 680 577.9 674 578.7 668 c 0
 578.7 667 600.3 466 600.3 456 c 0
 600.3 449 597.9 439 584.3 439 c 0
 563.5 439 565.1 446 561.1 486 c 0
 557.9 513 554.7 529 540.3 552 c 0
 507.5 604 450.7 650 377.1 650 c 0
 267.5 650 162.7 539 162.7 354 c 0
 162.7 170 262.7 27 387.5 27 c 0
 479.5 27 566.7 104 596.3 224 c 0
 597.1 227 598.7 237 608.3 237 c 0
 613.9 237 621.1 234 621.1 226 c 1
 621.1 226 603.5 70 601.1 63 c 1
 597.9 48 587.5 47 583.5 47 c 2
 582.7 47 l 1
 560.3 47 l 2
 541.1 47 539.5 39 522.7 26 c 0
 481.1 -4 434.7 -21 387.5 -24 c 1
 383.5 -37 382.7 -39 382.7 -40 c 0
 382.7 -42 383.5 -43 385.9 -43 c 2
 388.3 -43 l 2
 426.7 -43 455.5 -69 455.5 -119 c 2
 455.5 -120 l 2
 455.5 -152 441.9 -195 389.9 -195 c 0
 364.3 -195 329.9 -186 326.7 -182 c 0
 324.3 -180 323.5 -178 323.5 -175 c 0
 323.5 -174 325.9 -151 334.7 -151 c 0
 335.5 -151 361.1 -159 376.3 -159 c 0
 393.9 -159 406.7 -146 406.7 -127 c 0
 406.7 -100 383.5 -78 349.9 -75 c 0
 348.3 -75 345.9 -75 345.9 -72 c 0
 345.9 -71 355.5 -40 361.1 -23 c 1
EndSplineSet
EndChar

StartChar: multiply
Encoding: 215 215 133
Width: 497
GlyphClass: 2
Flags: HW
DStem2: 105.8 86 277 219 0.624695 0.780869<20.8764 222.188 274.054 474.396> 277 300 245 259 0.624695 -0.780869<-199.618 0.0277137 52.5057 253.818>
LayerCount: 2
Fore
SplineSet
98.5996 69 m 0
 98.5996 76 101.8 81 105.8 86 c 2
 245 259 l 1
 107.4 432 97.7998 439 97.7998 450 c 0
 97.7998 458 113.8 482 125 482 c 2
 125.8 482 l 2
 134.6 482 135.4 478 277 300 c 1
 425.8 485 421 483 429 484 c 1
 429.8 484 l 2
 436.2 484 455.4 463 455.4 450 c 2
 455.4 449 l 2
 455.4 438 452.2 437 309.8 259 c 1
 455.4 77 456.2 80 456.2 69 c 0
 456.2 59 439.4 36 429.8 36 c 0
 424.2 36 420.2 40 416.2 45 c 2
 277 219 l 1
 131.4 37 133.8 36 125 36 c 0
 117 36 98.5996 57 98.5996 69 c 0
EndSplineSet
EndChar

StartChar: Oslash
Encoding: 216 216 134
Width: 700
GlyphClass: 2
Flags: HW
HStem: -24 58<311.926 478.323> 667 53<292.575 461.304>
VStem: 92.2 76<244.676 473.525> 606.6 79.2<215.912 457.417>
DStem2: 224.2 44 234.6 -39 0.403044 0.915181<-76.325 0 67.6858 636.869 703.117 771.172>
LayerCount: 2
Fore
SplineSet
685.8 337 m 0
 685.8 127 554.6 -24 398.6 -24 c 0
 350.6 -24 303.4 -9 260.2 18 c 1
 235.4 -39 237 -36 234.6 -39 c 0
 232.2 -41 228.2 -44 219.4 -44 c 0
 204.2 -44 192.2 -42 192.2 -31 c 2
 192.2 -30 l 2
 192.2 -27 193 -28 224.2 44 c 1
 143.4 113 93 230 92.2002 353 c 1
 92.2002 556 226.6 720 387.4 720 c 0
 428.2 720 469 709 506.6 689 c 1
 530.6 745 528.2 745 542.6 745 c 0
 566.6 745 571.4 735 571.4 729 c 0
 571.4 723 566.6 715 544.2 664 c 1
 632.2 595 685.8 469 685.8 337 c 0
168.2 384 m 0
 168.2 293 189.8 180 251.4 106 c 1
 481.8 633 l 1
 449 655 412.2 667 374.6 667 c 0
 275.4 667 168.2 582 168.2 384 c 0
395.4 34 m 0
 486.6 34 606.6 109 606.6 319 c 0
 606.6 419 581.8 531 517 602 c 1
 284.2 73 l 1
 314.6 50 351.4 34 395.4 34 c 0
EndSplineSet
EndChar

StartChar: germandbls
Encoding: 223 223 140
Width: 476
GlyphClass: 2
Flags: HW
HStem: -19 56<319.124 407.299> -6 45<67.5035 117.396 174.789 227.397> 360 47<60.725 118.535> 659 60<223.992 306.282>
VStem: 118.6 56.8<38.5658 359.712 410.048 563.25> 254.6 45.6<345.337 432.51> 259.4 32.8<68.2012 148.863> 325 64.8<533.904 634.935> 421 48.8<54.6943 152.155>
LayerCount: 2
Fore
SplineSet
77 -6 m 0x7d80
 71.4004 -6 67.4004 -1 67.4004 13 c 0
 67.4004 36 74.5996 34 105 39 c 0
 120.2 41 117 61 118.6 101 c 0
 119.4 126 120.2 301 120.2 351 c 0
 120.2 362 114.6 359 77.7998 360 c 1
 77 360 l 2
 72.2002 360 60.2002 361 60.2002 379 c 0
 60.2002 384 61.7998 403 71.4004 407 c 0
 78.5996 410 113 408 116.2 410 c 0
 118.6 411 118.6 414 118.6 417 c 2
 118.6 419 l 1
 119.4 521 140.2 618 189 670 c 0
 221.8 704 264.2 719 296.2 719 c 0
 349.8 719 389.8 675 389.8 607 c 0
 389.8 502 300.2 473 300.2 399 c 0x7d80
 300.2 338 353.8 315 420.2 225 c 0
 440.2 198 469.8 153 469.8 97 c 0
 469.8 28 425 -19 370.6 -19 c 0
 311.4 -19 273.8 18 264.2 38 c 0
 260.2 47 259.4 54 259.4 65 c 2
 259.4 131 l 2
 259.4 148 259.4 146 261 149 c 0
 261.8 150 265.8 156 273 156 c 0
 293 156 277 125 292.2 91 c 0
 298.6 78 329 37 365 37 c 0xbb80
 394.6 37 421 62 421 100 c 0
 421 159 365.8 186 286.6 288 c 0
 267.4 312 254.6 336 254.6 368 c 0
 254.6 441 325 490 325 575 c 0
 325 621 301 659 265 659 c 0
 248.2 659 193 648 179.4 508 c 0
 175.4 469 175.4 430 175.4 390 c 2
 175.4 380 l 2
 175.4 131 174.6 99 174.6 68 c 0
 174.6 53 175.4 38 200.2 35 c 0
 222.6 33 227.4 34 227.4 17 c 0
 227.4 6 227.4 -6 218.6 -6 c 0
 217 -6 185.8 0 148.2 0 c 0
 109.8 0 79.4004 -6 77 -6 c 0x7d80
EndSplineSet
EndChar

StartChar: ae
Encoding: 230 230 147
Width: 582
GlyphClass: 2
Flags: HW
HStem: -22 54<163.314 248.263 398.551 499.79> 191 37<194.506 272.952> 376 56<362.738 456.01> 385 47<166.114 249.502>
VStem: 92.2 59.2<46.7656 152.973> 273.8 59.2<115.787 190.367 228.097 337.5> 489.8 78.4<298.142 339.608>
LayerCount: 2
Fore
SplineSet
405.8 376 m 0xee
 360.2 376 329 321 329 233 c 0
 329 228 330.6 226 333 226 c 0
 335.4 226 480.2 296 483.4 298 c 0
 488.2 301 489.8 306 489.8 310 c 0
 489.8 324 449.8 376 405.8 376 c 0xee
151.4 101 m 0
 151.4 73 161 32 201.8 32 c 0
 220.2 32 241 42 254.6 56 c 0
 271.4 73 273.8 76 273.8 115 c 2
 273.8 144 l 2
 273.8 191 273 191 265.8 191 c 2
 264.2 191 l 1
 217.8 187 151.4 173 151.4 101 c 0
424.2 432 m 0
 499.4 432 568.2 343 568.2 313 c 2
 568.2 312 l 1
 567.4 282 525.8 272 502.6 262 c 0
 337.8 191 333 192 333 183 c 0
 333 171 350.6 38 451.4 38 c 0
 486.6 38 521 56 546.6 87 c 0
 549.8 92 556.2 101 565 101 c 0
 572.2 101 577 95 577 87 c 0
 577 82 575.4 76 572.2 70 c 0
 536.2 12 481.8 -19 429.8 -19 c 0
 345.8 -19 313.8 54 309 54 c 0
 305 54 252.2 -22 183.4 -22 c 0
 129 -22 92.2002 29 92.2002 90 c 2
 92.2002 91 l 2
 92.2002 129 106.6 161 125.8 180 c 0
 167.4 222 266.6 228 266.6 228 c 2
 272.2 230 273 236 273 250 c 2
 273 278 l 2
 273 310 269.8 335 253.8 358 c 0
 241 376 224.2 385 207.4 385 c 0
 161.8 385 141.8 324 138.6 318 c 0
 133.8 311 127.4 307 120.2 307 c 0
 105.8 307 89 321 89 343 c 0
 89 378 143.4 432 213 432 c 0xde
 295.4 432 306.6 375 318.6 375 c 0
 321 375 323.4 377 325.8 380 c 0
 338.6 395 373.8 432 424.2 432 c 0
EndSplineSet
EndChar

StartChar: ccedilla
Encoding: 231 231 148
Width: 344
GlyphClass: 2
Flags: HW
HStem: -195 36<146.214 219.086> -18 64<199.646 279.081> 376 52<153.576 240.841>
VStem: 53.3 52.8<132.437 305.205> 222.1 48.8<-156.256 -91.5187>
LayerCount: 2
Fore
SplineSet
270.9 -120 m 2
 270.9 -152 257.3 -195 205.3 -195 c 0
 179.7 -195 145.3 -186 142.1 -182 c 0
 139.7 -180 138.9 -178 138.9 -175 c 0
 138.9 -174 141.3 -151 150.1 -151 c 0
 150.9 -151 176.5 -159 191.7 -159 c 0
 209.3 -159 222.1 -146 222.1 -127 c 0
 222.1 -100 198.9 -78 165.3 -75 c 0
 163.7 -75 161.3 -75 161.3 -72 c 0
 161.3 -71 173.3 -34 178.9 -14 c 1
 103.7 2 53.2998 84 53.2998 197 c 0
 53.2998 333 122.1 428 224.5 428 c 0
 282.1 428 326.1 392 326.1 354 c 0
 326.1 331 310.9 316 294.1 316 c 0
 257.3 316 243.7 376 197.3 376 c 0
 148.5 376 106.1 306 106.1 222 c 0
 106.1 129 158.9 46 232.5 46 c 0
 294.9 46 311.7 100 330.1 100 c 0
 337.3 100 343.7 93 343.7 83 c 0
 343.7 77 341.3 71 338.9 67 c 0
 313.3 23 266.9 -18 206.9 -18 c 2
 204.5 -18 l 1
 199.7 -36 198.1 -38 198.1 -40 c 0
 198.1 -42 198.9 -43 201.3 -43 c 2
 203.7 -43 l 2
 242.1 -43 270.9 -69 270.9 -119 c 2
 270.9 -120 l 2
EndSplineSet
EndChar

StartChar: divide
Encoding: 247 247 163
Width: 630
GlyphClass: 2
Flags: HW
HStem: 67 103<311.898 379.502> 231 57<112.5 588.463> 349 103<306.587 374.702>
VStem: 298.1 84.8<359.248 440.996> 303.7 84<76.9539 159.752>
CounterMasks: 1 e0
LayerCount: 2
Fore
SplineSet
130.9 231 m 2xe0
 118.1 231 112.5 235 112.5 253 c 2
 112.5 266 l 2
 112.5 287 122.1 288 130.9 288 c 2
 572.5 288 l 2
 582.9 288 588.5 285 588.5 269 c 2
 588.5 255 l 2
 588.5 232 577.3 231 567.7 231 c 2
 130.9 231 l 2xe0
298.1 400 m 0xf0
 298.1 429 318.1 452 341.3 452 c 0
 364.5 452 382.9 429 382.9 401 c 0
 382.9 372 363.7 349 340.5 349 c 0
 317.3 349 298.1 371 298.1 400 c 0xf0
346.1 67 m 0
 323.7 67 303.7 89 303.7 119 c 0
 303.7 148 322.1 170 345.3 170 c 0
 368.5 170 387.7 147 387.7 118 c 0xe8
 387.7 89 369.3 67 346.1 67 c 0
EndSplineSet
EndChar

StartChar: oslash
Encoding: 248 248 164
Width: 420
GlyphClass: 2
Flags: HW
HStem: -19 49<185.866 290.931> 385 47<179.241 282.318>
VStem: 63.5 62.4<108.789 304.389> 349.1 54.4<109.681 294.771>
DStem2: 130.7 23 163.5 -1 0.405791 0.913966<-40.4974 1.88808 63.3719 364.321 424.509 480.945>
LayerCount: 2
Fore
SplineSet
403.5 204 m 0
 403.5 61 322.7 -19 233.1 -19 c 0
 209.1 -19 185.9 -13 163.5 -1 c 1
 156.3 -18 152.3 -33 141.1 -33 c 0
 115.5 -33 113.1 -27 113.1 -20 c 0
 113.1 -15 117.9 -6 130.7 23 c 1
 91.5 60 63.5 125 63.5 204 c 0
 63.5 343 146.7 432 236.3 432 c 0
 259.5 432 282.7 425 304.3 414 c 1
 318.7 448 321.1 459 331.5 459 c 0
 348.3 459 360.3 456 360.3 442 c 0
 360.3 436 354.7 425 337.9 388 c 1
 382.7 345 403.5 273 403.5 204 c 0
235.5 30 m 0
 303.5 30 349.1 111 349.1 200 c 0
 349.1 240 339.5 292 313.1 332 c 1
 185.1 47 l 1
 202.7 34 220.3 30 235.5 30 c 0
230.7 385 m 0
 189.1 385 125.9 343 125.9 209 c 0
 125.9 171 132.3 120 156.3 81 c 1
 282.7 365 l 1
 269.1 376 251.5 385 230.7 385 c 0
EndSplineSet
EndChar

StartChar: dotlessi
Encoding: 305 305 203
Width: 218
GlyphClass: 2
Flags: HW
HStem: -6 44<38.9088 98.8466 155.375 207.593> 421 20G<144 149.2>
VStem: 99.6 53.6<39.1511 336.573>
LayerCount: 2
Fore
SplineSet
99.5996 121 m 2
 99.5996 237 100.4 295 100.4 314 c 0
 100.4 330 97.2002 329 46 355 c 0
 42 357 36.4004 360 36.4004 368 c 0
 36.4004 380 49.2002 384 58 389 c 0
 141.2 439 142 441 146 441 c 2
 146.8 441 l 2
 151.6 441 158 437 158 425 c 0
 158 417 153.2 320 153.2 198 c 2
 153.2 165 l 2
 153.2 43 154 40 171.6 37 c 0
 198 32 207.6 33 207.6 16 c 0
 207.6 8 206.8 -6 198 -6 c 0
 195.6 -6 163.6 0 124.4 0 c 0
 84.4004 0 53.2002 -6 50.7998 -6 c 0
 42.7998 -6 38.7998 1 38.7998 11 c 0
 38.7998 34 42 32 78 38 c 0
 98 42 99.5996 56 99.5996 74 c 2
 99.5996 121 l 2
EndSplineSet
EndChar

StartChar: OE
Encoding: 338 338 224
Width: 916
GlyphClass: 2
Flags: HW
HStem: -24 58<338.122 504.617> 0 55<616.286 828.486> 369 58<613.786 781.14> 638 53<613.402 817.838> 667 53<317.171 483.757>
VStem: 116.5 75.2<249.63 473.331> 540.5 72<67.3145 365.5 427 617.33> 782.1 44<271.316 368.907 428.208 513.367>
LayerCount: 2
Fore
SplineSet
612.5 97 m 2x37
 612.5 70 618.9 55 711.7 55 c 0
 737.3 55 810.9 61 827.7 76 c 0
 833.3 82 838.1 94 873.3 169 c 0
 878.1 180 885.3 186 890.9 186 c 0
 898.9 186 904.5 177 904.5 163 c 2
 904.5 162 l 2
 904.5 156 903.7 153 880.5 20 c 0
 876.5 1 868.5 0 854.9 0 c 2
 632.5 0 l 2x77
 511.7 0 464.5 -24 422.9 -24 c 0
 254.9 -24 116.5 147 116.5 353 c 0
 116.5 555 250.1 720 410.9 720 c 0xaf
 461.3 720 494.1 708 525.3 701 c 0
 560.5 693 606.9 691 606.9 691 c 1
 850.9 691 l 2
 863.7 691 865.3 682 866.9 675 c 2
 889.3 549 l 1
 889.3 546 l 2
 889.3 532 879.7 525 870.1 525 c 0
 854.9 525 854.1 538 851.7 545 c 2
 817.3 618 l 2
 809.3 635 806.1 638 793.3 638 c 2
 638.1 638 l 2
 622.1 638 613.3 626 613.3 614 c 2
 613.3 449 l 2
 613.3 442 615.7 427 625.3 427 c 2
 751.7 427 l 2
 765.3 427 782.1 428 782.1 460 c 2
 782.1 491 l 2
 782.1 506 792.5 514 802.9 514 c 0
 821.3 514 826.1 500 826.1 484 c 2
 826.1 300 l 2
 826.1 282 820.5 271 804.5 271 c 0
 786.1 271 782.1 280 782.1 293 c 2
 782.1 347 l 2
 782.1 367 772.5 369 761.3 369 c 2
 671.7 369 l 2
 620.5 369 612.5 365 612.5 329 c 2
 612.5 97 l 2x37
398.9 667 m 2xaf
 398.1 667 l 2
 299.7 667 191.7 582 191.7 384 c 0
 191.7 211 268.5 34 419.7 34 c 0
 455.7 34 493.3 44 528.5 71 c 0
 539.7 79 540.5 79 540.5 104 c 2
 540.5 601 l 1
 498.1 648 446.9 667 398.9 667 c 2xaf
EndSplineSet
EndChar

StartChar: oe
Encoding: 339 339 225
Width: 688
GlyphClass: 2
Flags: HW
HStem: -19 57<495.326 609.667> -19 49<211.366 323.192> 376 55<467.318 562.274> 385 47<210.241 316.484>
VStem: 94.5 62.4<107.025 304.389> 380.1 57.6<117.554 196.704 226.001 294.23> 595.3 77.6<292.942 337.386>
LayerCount: 2
Fore
SplineSet
528.9 431 m 0x2e
 584.1 431 636.9 386 665.7 335 c 0
 668.9 330 672.9 322 672.9 313 c 2
 672.9 312 l 1
 672.1 282 630.5 272 607.3 262 c 0
 442.5 191 437.7 192 437.7 183 c 0
 437.7 171 455.3 38 556.1 38 c 0
 591.3 38 626.5 57 651.3 87 c 0
 654.5 92 661.7 101 669.7 101 c 0
 676.9 101 682.5 95 682.5 86 c 0
 682.5 82 680.9 76 676.9 70 c 0
 644.1 17 591.3 -19 535.3 -19 c 0xae
 475.3 -19 429.7 20 405.7 72 c 1
 375.3 14 320.9 -19 264.1 -19 c 0
 162.5 -19 94.5 81 94.5 204 c 0
 94.5 343 177.7 432 267.3 432 c 0x5e
 320.9 432 374.5 399 405.7 337 c 1
 428.1 386 470.5 431 528.9 431 c 0x2e
595.3 310 m 0
 595.3 322 556.1 376 511.3 376 c 0
 464.9 376 434.5 322 434.5 233 c 0
 434.5 227 436.9 226 438.5 226 c 0
 440.1 226 586.5 297 588.1 298 c 0
 592.9 301 595.3 306 595.3 310 c 0
266.5 30 m 0x5e
 334.5 30 380.1 111 380.1 200 c 0
 380.1 307 322.5 385 261.7 385 c 0
 220.1 385 156.9 343 156.9 209 c 0
 156.9 105 200.9 30 266.5 30 c 0x5e
EndSplineSet
EndChar

StartChar: Scedilla
Encoding: 350 350 236
Width: 443
GlyphClass: 2
Flags: HW
HStem: -195 36<200.914 273.786> -16 55<189.61 232.8 253.215 311.764> 635 50<160.41 265.563>
VStem: 75.2 57.6<479.18 595.956> 88 40<112.089 247.636> 276.8 48.8<-156.256 -91.5187> 368 58.4<105.358 250.11>
LayerCount: 2
Fore
SplineSet
325.6 -120 m 2xf6
 325.6 -152 312 -195 260 -195 c 0
 234.4 -195 200 -186 196.8 -182 c 0
 194.4 -180 193.6 -178 193.6 -175 c 0
 193.6 -174 196 -151 204.8 -151 c 0
 205.6 -151 231.2 -159 246.4 -159 c 0
 264 -159 276.8 -146 276.8 -127 c 0
 276.8 -100 253.6 -78 220 -75 c 0
 218.4 -75 216 -75 216 -72 c 0
 216 -71 227.2 -35 232.8 -16 c 1
 163.2 -8 129.6 41 117.6 48 c 0
 113.6 51 108.8 52 104.8 52 c 0
 96.7998 52 91.2002 49 84 49 c 0
 72.7998 49 69.5996 58 69.5996 64 c 0
 69.5996 76 80.7998 113 88 227 c 0
 88.7998 238 92 248 105.6 248 c 0
 122.4 248 123.2 239 128 190 c 1xee
 133.6 120 124.8 145 148.8 105 c 0
 168.8 71 204.8 39 252 39 c 0
 315.2 39 368 100 368 178 c 0
 368 222 350.4 262 321.6 288 c 0
 275.2 330 224 327 170.4 354 c 0
 104.8 386 75.2002 451 75.2002 516 c 0
 75.2002 605 134.4 685 218.4 685 c 0
 283.2 685 311.2 645 321.6 645 c 0
 333.6 645 336 685 355.2 685 c 0
 362.4 685 368 677 368 666 c 0
 368 658 364.8 633 364.8 583 c 0
 364.8 534 368 510 368 502 c 0
 368 492 362.4 487 354.4 487 c 2
 353.6 487 l 1
 328 488 336.8 524 298.4 579 c 0
 276.8 609 245.6 635 210.4 635 c 0
 165.6 635 132.8 593 132.8 541 c 0
 132.8 504 148.8 472 173.6 450 c 0
 216.8 411 274.4 412 325.6 385 c 0
 383.2 354 426.4 289 426.4 198 c 0
 426.4 89 359.2 -12 259.2 -17 c 1
 254.4 -36 252.8 -38 252.8 -40 c 0
 252.8 -42 253.6 -43 256 -43 c 2
 258.4 -43 l 2
 296.8 -43 325.6 -69 325.6 -119 c 2
 325.6 -120 l 2xf6
EndSplineSet
EndChar

StartChar: scedilla
Encoding: 351 351 237
Width: 306
GlyphClass: 2
Flags: HW
HStem: -195 36<116.514 189.386> -19 54<120.4 148.4 168.403 226.751> 380 47<114.536 205.094> 412 20G<230.8 240.4>
VStem: 57.2 32<71.0105 155.76> 60.4 43.2<283.553 367.539> 192.4 48.8<-156.256 -91.5187> 219.6 44<295.352 359.134> 245.2 53.6<56.0454 149.045>
LayerCount: 2
Back
SplineSet
57.2002 104 m 6x9f
 57.2002 141 54.7998 156 70.7998 156 c 4x9f
 90.7998 156 78 122 89.2002 94 c 4
 97.2002 73 134 35 180.4 35 c 4
 216.4 35 245.2 62 245.2 102 c 4
 245.2 168 174.8 178 149.2 187 c 4
 84.4004 210 60.4004 260 60.4004 309 c 4
 60.4004 369 103.6 427 175.6 427 c 4
 199.6 427 211.6 422 215.6 422 c 4
 222.8 422 226 432 235.6 432 c 4
 245.2 432 247.6 418 248.4 413 c 4
 253.2 378 263.6 312 263.6 308 c 4
 263.6 295 251.6 292 245.2 292 c 4
 228.4 292 230.8 321 219.6 341 c 4
 209.2 359 180.4 380 154 380 c 4
 126.8 380 103.6 359 103.6 327 c 4
 103.6 313 107.6 276 166.8 255 c 4
 207.6 241 245.2 238 274.8 195 c 4
 295.6 165 298.8 132 298.8 116 c 4
 298.8 52 256.4 -19 177.2 -19 c 6
 174 -19 l 5
 169.2 -36 168.4 -38 168.4 -40 c 4
 168.4 -42 169.2 -43 171.6 -43 c 6
 174 -43 l 6
 212.4 -43 241.2 -69 241.2 -119 c 6
 241.2 -120 l 6
 241.2 -152 227.6 -195 175.6 -195 c 4xaf
 150 -195 115.6 -186 112.4 -182 c 4
 110 -180 109.2 -178 109.2 -175 c 4
 109.2 -174 111.6 -151 120.4 -151 c 4x4f
 121.2 -151 146.8 -159 162 -159 c 4
 179.6 -159 192.4 -146 192.4 -127 c 4
 192.4 -100 169.2 -78 135.6 -75 c 4
 134 -75 131.6 -75 131.6 -72 c 4
 131.6 -71 142.8 -35 148.4 -16 c 5
 118 -11 68.4004 11 58.7998 47 c 4
 57.2002 53 57.2002 59 57.2002 65 c 6
 57.2002 104 l 6x9f
EndSplineSet
Fore
SplineSet
57.2002 126 m 2xea80
 57.2002 147 58.7998 156 70.7998 156 c 0
 90.7998 156 78 122 89.2002 94 c 0xea80
 97.2002 73 134 35 180.4 35 c 0
 216.4 35 245.2 62 245.2 102 c 0
 245.2 168 174.8 178 149.2 187 c 0
 84.4004 210 60.4004 260 60.4004 309 c 0
 60.4004 369 103.6 427 175.6 427 c 0xe480
 199.6 427 211.6 422 215.6 422 c 0
 222.8 422 226 432 235.6 432 c 0
 245.2 432 247.6 418 248.4 413 c 0
 253.2 378 263.6 312 263.6 308 c 0xd5
 263.6 295 251.6 292 245.2 292 c 0xd080
 228.4 292 230.8 321 219.6 341 c 0
 209.2 359 180.4 380 154 380 c 0
 126.8 380 103.6 359 103.6 327 c 0xe5
 103.6 313 107.6 276 166.8 255 c 0
 207.6 241 245.2 238 274.8 195 c 0
 295.6 165 298.8 132 298.8 116 c 0
 298.8 52 256.4 -19 177.2 -19 c 1
 172.4 -36 168.4 -38 168.4 -40 c 0
 168.4 -42 169.2 -43 171.6 -43 c 0
 210 -43 241.2 -69 241.2 -119 c 2
 241.2 -120 l 2
 241.2 -152 227.6 -195 175.6 -195 c 0
 150 -195 115.6 -186 112.4 -182 c 0
 110 -180 109.2 -178 109.2 -175 c 0
 109.2 -174 111.6 -151 120.4 -151 c 0
 121.2 -151 146.8 -159 162 -159 c 0
 179.6 -159 192.4 -146 192.4 -127 c 0
 192.4 -100 169.2 -78 135.6 -75 c 0
 134 -75 131.6 -75 131.6 -72 c 0
 131.6 -71 142.8 -35 148.4 -16 c 1
 125.2 -12 90 2 70.7998 25 c 0
 62 36 57.2002 45 57.2002 65 c 2
 57.2002 126 l 2xea80
EndSplineSet
EndChar

StartChar: Tcommaaccent
Encoding: 354 354 240
Width: 623
GlyphClass: 2
Flags: HW
HStem: -195 36<298.214 371.086> -6 53<231.876 316.149 391.732 478.536> 622 66<146.102 316.984 391.79 556.886>
VStem: 317.3 74.4<49.375 621.698> 374.1 48.8<-156.256 -91.5187>
LayerCount: 2
Fore
SplineSet
422.9 -120 m 2xe8
 422.9 -152 409.3 -195 357.3 -195 c 0
 331.7 -195 297.3 -186 294.1 -182 c 0
 291.7 -180 290.9 -178 290.9 -175 c 0
 290.9 -174 293.3 -151 302.1 -151 c 0
 302.9 -151 328.5 -159 343.7 -159 c 0
 361.3 -159 374.1 -146 374.1 -127 c 0xe8
 374.1 -100 350.9 -78 317.3 -75 c 0
 315.7 -75 313.3 -75 313.3 -72 c 0
 313.3 -71 327.7 -24 335.7 0 c 1
 282.9 -1 256.5 -6 247.7 -6 c 0
 234.9 -6 231.7 6 231.7 20 c 0
 231.7 45 240.5 41 290.1 47 c 0
 314.1 50 317.3 64 317.3 84 c 2
 317.3 591 l 2
 317.3 605 316.5 622 295.7 622 c 2
 176.5 622 l 2
 154.9 622 151.7 616 146.1 602 c 0
 113.3 521 112.5 509 97.2998 509 c 0
 86.9004 509 79.7002 520 79.7002 534 c 2
 79.7002 535 l 2
 79.7002 541 80.5 544 102.9 673 c 0
 105.3 687 113.3 688 119.7 688 c 2
 586.1 688 l 2
 598.9 688 600.5 678 602.1 665 c 0
 618.1 563 621.3 543 621.3 537 c 0
 621.3 525 614.9 515 606.1 515 c 0
 595.7 515 590.9 527 587.7 534 c 0
 550.1 616 551.7 622 526.9 622 c 2
 409.3 622 l 2
 392.5 622 391.7 608 391.7 595 c 2
 391.7 71 l 2xf0
 391.7 45 402.1 49 464.5 42 c 0
 477.3 40 478.9 34 478.9 14 c 0
 478.9 4 475.7 -6 465.3 -6 c 0
 461.3 -6 416.5 0 361.3 0 c 1
 357.3 -14 350.1 -39 350.1 -40 c 0
 350.1 -42 350.9 -43 353.3 -43 c 2
 355.7 -43 l 2
 394.1 -43 422.9 -69 422.9 -119 c 2
 422.9 -120 l 2xe8
EndSplineSet
EndChar

StartChar: tcommaaccent
Encoding: 355 355 241
Width: 300
GlyphClass: 2
Flags: HW
HStem: -195 36<124.814 197.686> -18 64<177.21 227.765> 363 54<159.105 266.95>
VStem: 95.1 55.2<55.2482 362.954> 200.7 48.8<-156.256 -91.5187>
LayerCount: 2
Fore
SplineSet
249.5 -120 m 2
 249.5 -152 235.9 -195 183.9 -195 c 0
 158.3 -195 123.9 -186 120.7 -182 c 0
 118.3 -180 117.5 -178 117.5 -175 c 0
 117.5 -174 119.9 -151 128.7 -151 c 0
 129.5 -151 155.1 -159 170.3 -159 c 0
 187.9 -159 200.7 -146 200.7 -127 c 0
 200.7 -100 177.5 -78 143.9 -75 c 0
 142.3 -75 139.9 -75 139.9 -72 c 0
 139.9 -71 151.1 -35 157.5 -16 c 1
 119.1 -3 99.0996 41 95.0996 103 c 0
 94.2998 114 94.2998 124 94.2998 135 c 0
 94.2998 179 97.5 334 97.5 356 c 0
 97.5 361 96.7002 365 91.9004 365 c 2
 66.2998 365 l 2
 59.0996 365 50.2998 366 50.2998 378 c 0
 50.2998 395 90.2998 413 133.5 505 c 0
 135.9 510 140.7 523 149.5 523 c 0
 154.3 523 159.9 520 159.9 507 c 0
 159.9 493 159.1 451 159.1 437 c 0
 159.1 420 165.5 417 175.1 417 c 2
 247.1 417 l 2
 249.5 417 251.1 416 253.5 416 c 0
 260.7 416 274.3 416 274.3 397 c 0
 274.3 391 271.1 374 267.1 368 c 0
 263.9 364 259.9 363 252.7 363 c 2
 159.1 363 l 2
 153.5 363 151.1 361 151.1 354 c 0
 150.3 167 150.3 144 150.3 120 c 0
 150.3 85 157.5 46 191.1 46 c 0
 229.5 46 260.7 106 278.3 106 c 0
 287.1 106 292.7 97 292.7 88 c 0
 292.7 80 288.7 74 287.1 71 c 0
 237.5 -1 204.7 -16 182.3 -18 c 1
 178.3 -36 176.7 -38 176.7 -40 c 0
 176.7 -42 177.5 -43 179.9 -43 c 2
 182.3 -43 l 2
 220.7 -43 249.5 -69 249.5 -119 c 2
 249.5 -120 l 2
EndSplineSet
EndChar

StartChar: longs
Encoding: 383 383 261
Width: 231
GlyphClass: 2
Flags: HW
HStem: -6 45<53.4542 102.865 161.4 222.99> 360 48<47.4055 104.784> 653 67<218.546 314.935>
VStem: 106.2 55.2<38.7292 359.683 408.753 564.612>
LayerCount: 2
Fore
SplineSet
65.4004 -6 m 0
 55 -6 53.4004 8 53.4004 19 c 0
 53.4004 35 61.4004 33 91 39 c 0
 103 41 102.2 51 103 63 c 0
 104.6 88 106.2 156 106.2 350 c 0
 106.2 362 102.2 359 63.7998 360 c 0
 59 360 47 360 47 378 c 0
 47 401 53.4004 408 63.7998 408 c 0
 103.8 410 104.6 406 104.6 418 c 2
 104.6 419 l 1
 105.4 458 109.4 546 139 611 c 1
 171 679 236.6 720 285.4 720 c 0
 328.6 720 343 689 343 668 c 0
 343 649 331 629 309.4 629 c 0
 287 629 267.8 653 243 653 c 0
 186.2 653 160.6 553 160.6 436 c 0
 160.6 421 161.4 407 161.4 365 c 2
 161.4 64 l 1
 161.4 61 l 2
 161.4 51 162.2 38 177.4 37 c 0
 214.2 33 223 39 223 16 c 0
 223 4 219.8 -6 210.2 -6 c 0
 207.8 -6 176.6 0 138.2 0 c 0
 99 0 67.7998 -6 65.4004 -6 c 0
EndSplineSet
EndChar

StartChar: uni0237
Encoding: 567 567 262
Width: 198
GlyphClass: 2
Flags: HW
HStem: -231 77<-11.0134 56.3828> 422 20G<135 139.4>
VStem: 89 56.8<-117.424 346.052>
LayerCount: 2
Fore
SplineSet
88.2002 102 m 0
 88.2002 229 89.7998 293 89.7998 314 c 0
 89.7998 336 85 336 41.7998 369 c 0
 38.5996 371 34.5996 375 34.5996 381 c 0
 34.5996 391 35.4004 389 130.6 440 c 0
 132.2 441 133.8 442 136.2 442 c 0
 142.6 442 144.2 435 144.2 426 c 0
 144.2 407 142.6 350 142.6 235 c 0
 142.6 55 145.8 -35 145.8 -65 c 0
 145.8 -84 141.8 -94 133.8 -109 c 0
 123.4 -127 61.7998 -231 14.5996 -231 c 0
 -2.2002 -231 -15.7998 -217 -15.7998 -197 c 0
 -15.7998 -178 -3.7998 -154 19.4004 -154 c 0
 28.2002 -154 35.4004 -157 43.4004 -157 c 0
 57 -157 89 -147 89 -78 c 0
 89 -60 88.2002 -6 88.2002 102 c 0
EndSplineSet
EndChar

StartChar: circumflex
Encoding: 710 710 263
Width: 193
GlyphClass: 2
Flags: HW
HStem: 479 221
VStem: 34.3 146.4<482 499>
LayerCount: 2
Fore
SplineSet
46.2998 479 m 0
 42.2998 479 34.2998 482 34.2998 494 c 0
 34.2998 501 69.5 631 83.9004 671 c 0
 86.2998 678 93.5 700 107.1 700 c 0
 128.7 700 141.5 639 178.3 506 c 0
 179.1 503 180.7 499 180.7 495 c 0
 180.7 482 171.9 479 168.7 479 c 0
 159.9 479 155.1 487 147.9 502 c 0
 115.9 572 115.1 577 107.9 577 c 0
 99.0996 577 97.5 569 65.5 500 c 0
 59.0996 487 53.5 479 46.2998 479 c 0
EndSplineSet
EndChar

StartChar: caron
Encoding: 711 711 264
Width: 193
GlyphClass: 2
Flags: HW
HStem: 479 221
VStem: 34.3 146.4<680 697>
LayerCount: 2
Fore
SplineSet
168.7 700 m 0
 172.7 700 180.7 697 180.7 685 c 0
 180.7 678 145.5 547 131.1 508 c 0
 128.7 501 121.5 479 107.9 479 c 0
 86.2998 479 73.5 540 36.7002 673 c 0
 35.9004 676 34.2998 680 34.2998 684 c 0
 34.2998 697 43.0996 700 46.2998 700 c 0
 55.0996 700 59.9004 692 67.0996 677 c 0
 77.5 654 98.2998 609 99.0996 607 c 0
 102.3 602 105.5 602 107.1 602 c 0
 115.9 602 117.5 610 149.5 678 c 0
 155.9 692 161.5 700 168.7 700 c 0
EndSplineSet
EndChar

StartChar: breve
Encoding: 728 728 265
Width: 244
GlyphClass: 2
Flags: HW
HStem: 481 68<94.2634 173.211>
VStem: 39.2 45.6<564.065 630.344>
LayerCount: 2
Fore
SplineSet
39.2002 633 m 2
 39.2002 641 50.4004 643 56.7998 643 c 0
 72 643 61.5996 622 84.7998 583 c 0
 97.5996 563 113.6 549 132.8 549 c 2
 133.6 549 l 2
 181.6 549 205.6 629 208.8 635 c 0
 210.4 638 212.8 642 218.4 642 c 0
 224.8 642 232.8 641 232.8 635 c 0
 232.8 627 208.8 481 129.6 481 c 0
 93.5996 481 55.2002 511 39.2002 630 c 1
 39.2002 633 l 2
EndSplineSet
EndChar

StartChar: dotaccent
Encoding: 729 729 266
Width: 131
GlyphClass: 2
Flags: HW
HStem: 479 112<37.2039 109.249>
VStem: 26.6 92.8<492.202 577.369>
LayerCount: 2
Fore
SplineSet
26.5996 534 m 0
 26.5996 566 49 591 73 591 c 0
 98.5996 591 119.4 566 119.4 535 c 0
 119.4 504 97.7998 479 73 479 c 0
 47.4004 479 26.5996 503 26.5996 534 c 0
EndSplineSet
EndChar

StartChar: ring
Encoding: 730 730 267
Width: 176
GlyphClass: 2
Flags: HW
HStem: 474 39<70.021 126.569> 612 38<70.2614 126.167>
VStem: 30 32<522.079 602.575> 134.8 31.2<521.969 601.702>
LayerCount: 2
Fore
SplineSet
98 650 m 0
 136.4 650 166 609 166 562 c 0
 166 513 135.6 474 98 474 c 0
 61.2002 474 30 513 30 562 c 0
 30 610 61.2002 650 98 650 c 0
98 612 m 0
 78 612 62 589 62 563 c 0
 62 536 78 513 98.7998 513 c 0
 120.4 513 134.8 538 134.8 562 c 0
 134.8 587 118.8 612 98 612 c 0
EndSplineSet
EndChar

StartChar: tilde
Encoding: 732 732 268
Width: 302
GlyphClass: 2
Flags: HW
HStem: 568 54<167.056 244.541> 613 52<83.3303 150.855>
VStem: 46.4 243.2
LayerCount: 2
Fore
SplineSet
212 622 m 0xa0
 248.8 622 264.8 668 274.4 668 c 0
 277.6 668 289.6 662 289.6 655 c 0
 289.6 647 264 608 244.8 590 c 0
 233.6 579 217.6 568 198.4 568 c 0xa0
 157.6 568 144.8 613 112.8 613 c 0
 77.5996 613 63.2002 561 56.7998 561 c 0
 53.5996 561 46.4004 571 46.4004 576 c 0
 46.4004 580 71.2002 628 82.4004 642 c 0
 92 654 104 665 122.4 665 c 0x60
 158.4 665 176 622 212 622 c 0xa0
EndSplineSet
EndChar

StartChar: emdash
Encoding: 8212 8212 270
Width: 961
GlyphClass: 2
Flags: HW
HStem: 224 55<128.528 940.404>
LayerCount: 2
Fore
SplineSet
128.5 250 m 2
 128.5 254 l 2
 128.5 266 129.3 279 139.7 279 c 2
 929.3 279 l 2
 939.7 279 940.5 264 940.5 254 c 2
 940.5 252 l 2
 940.5 230 938.1 224 929.3 224 c 2
 139.7 224 l 2
 128.5 224 128.5 238 128.5 250 c 2
EndSplineSet
EndChar

StartChar: quoteleft
Encoding: 8216 8216 271
Width: 204
GlyphClass: 2
Flags: HW
HStem: 464 98<88.7266 162.887>
VStem: 54 31.2<567.528 642.282>
LayerCount: 2
Fore
SplineSet
122.8 464 m 0
 94.7998 464 54 492 54 576 c 0
 54 656 87.5996 687 98.7998 687 c 1
 107.6 686 114 677 114 667 c 0
 114 652 85.2002 637 85.2002 600 c 0
 85.2002 585 91.5996 562 119.6 562 c 0
 124.4 562 129.2 563 134 563 c 0
 166 563 174 536 174 520 c 0
 174 495 155.6 464 122.8 464 c 0
EndSplineSet
EndChar

StartChar: quoteright
Encoding: 8217 8217 272
Width: 204
GlyphClass: 2
Flags: HW
HStem: 586 98<64.6201 138.726>
VStem: 142 32<505.811 580.483>
LayerCount: 2
Fore
SplineSet
104.4 684 m 0
 132.4 684 174 656 174 572 c 0
 174 492 140.4 462 128.4 462 c 0
 119.6 462 113.2 471 113.2 481 c 0
 113.2 497 142 512 142 549 c 0
 142 563 135.6 586 107.6 586 c 0
 102.8 586 98 585 93.2002 585 c 0
 61.2002 585 54 612 54 628 c 0
 54 653 71.5996 684 104.4 684 c 0
EndSplineSet
EndChar

StartChar: quotesinglbase
Encoding: 8218 8218 273
Width: 204
GlyphClass: 2
Flags: HW
HStem: -44 98<64.1131 137.922>
VStem: 141 32<-124.657 -49.5172>
LayerCount: 2
Fore
SplineSet
104.2 54 m 0
 131.4 54 173 26 173 -58 c 0
 173 -138 139.4 -168 128.2 -168 c 0
 119.4 -168 113 -159 113 -149 c 0
 113 -133 141 -118 141 -81 c 0
 141 -67 135.4 -44 106.6 -44 c 0
 101.8 -44 97.7998 -45 93 -45 c 0
 61 -45 53 -18 53 -2 c 0
 53 23 71.4004 54 104.2 54 c 0
EndSplineSet
EndChar

StartChar: quotedblleft
Encoding: 8220 8220 274
Width: 374
GlyphClass: 2
Flags: HW
HStem: 464 98<107.273 181.38 259.274 333.38>
VStem: 72 32<567.528 642.751> 224 32<567.528 642.751>
LayerCount: 2
Fore
SplineSet
293.6 464 m 0
 265.6 464 224 492 224 576 c 0
 224 656 257.6 687 269.6 687 c 1
 278.4 686 284.8 677 284.8 667 c 0
 284.8 652 256 637 256 600 c 0
 256 585 261.6 562 290.4 562 c 0
 295.2 562 300 563 304.8 563 c 0
 336.8 563 344 536 344 520 c 0
 344 495 326.4 464 293.6 464 c 0
141.6 464 m 0
 113.6 464 72 492 72 576 c 0
 72 656 105.6 687 117.6 687 c 1
 126.4 686 132.8 677 132.8 667 c 0
 132.8 652 104 637 104 600 c 0
 104 585 109.6 562 138.4 562 c 0
 143.2 562 148 563 152.8 563 c 0
 184.8 563 192 536 192 520 c 0
 192 495 174.4 464 141.6 464 c 0
EndSplineSet
Substitution2: "'ss01' Style Set 1 in Latin lookup 0 subtable" quotedblleft.001
EndChar

StartChar: quotedblright
Encoding: 8221 8221 275
Width: 374
GlyphClass: 2
Flags: HW
HStem: 586 98<83.1131 156.922 235.113 308.922>
VStem: 160 32<505.343 580.483> 312 32<505.343 580.483>
LayerCount: 2
Fore
SplineSet
123.2 684 m 0
 150.4 684 192 656 192 572 c 0
 192 492 158.4 462 147.2 462 c 2
 146.4 462 l 2
 138.4 462 132 472 132 481 c 0
 132 497 160 512 160 549 c 0
 160 563 154.4 586 125.6 586 c 0
 120.8 586 116.8 585 112 585 c 0
 80 585 72 612 72 628 c 0
 72 653 90.4004 684 123.2 684 c 0
275.2 684 m 0
 302.4 684 344 656 344 572 c 0
 344 492 310.4 462 299.2 462 c 2
 298.4 462 l 2
 290.4 462 284 472 284 481 c 0
 284 497 312 512 312 549 c 0
 312 563 306.4 586 277.6 586 c 0
 272.8 586 268.8 585 264 585 c 0
 232 585 224 612 224 628 c 0
 224 653 242.4 684 275.2 684 c 0
EndSplineSet
Substitution2: "'ss01' Style Set 1 in Latin lookup 0 subtable" quotedblright.001
EndChar

StartChar: bullet
Encoding: 8226 8226 277
Width: 257
GlyphClass: 2
Flags: HW
HStem: 188 160<99.8275 186.173>
VStem: 79 128<214.034 321.966>
LayerCount: 2
Fore
SplineSet
143 188 m 0
 106.2 188 79 227 79 268 c 0
 79 314 110.2 348 143 348 c 0
 179.8 348 207 309 207 268 c 0
 207 222 175.8 188 143 188 c 0
EndSplineSet
EndChar

StartChar: guilsinglleft
Encoding: 8249 8249 280
Width: 200
GlyphClass: 2
Flags: HW
HStem: 52 282<165.5 175.9>
VStem: 39.9 63.2<170.963 215.713>
LayerCount: 2
Fore
SplineSet
170.3 334 m 0
 176.7 334 183.1 322 183.1 315 c 0
 183.1 309 183.1 310 106.3 201 c 0
 104.7 199 103.1 197 103.1 194 c 0
 103.1 188 105.5 186 179.1 79 c 0
 180.7 77 182.3 74 182.3 71 c 0
 182.3 63 175.9 52 169.5 52 c 0
 164.7 52 165.5 52 43.9004 184 c 0
 42.2998 186 39.9004 189 39.9004 193 c 0
 39.9004 198 42.2998 201 45.5 204 c 0
 166.3 334 165.5 334 170.3 334 c 0
EndSplineSet
EndChar

StartChar: guilsinglright
Encoding: 8250 8250 281
Width: 200
GlyphClass: 2
Flags: HW
HStem: 52 282<47.9 56.7>
VStem: 119.9 63.2<170.161 215.625>
LayerCount: 2
Fore
SplineSet
52.7002 334 m 0
 57.5 334 55.9004 334 177.5 204 c 0
 180.7 201 183.1 198 183.1 193 c 2
 183.1 192 l 2
 183.1 186 180.7 186 61.5 57 c 0
 59.0996 54 56.7002 52 53.5 52 c 0
 47.9004 52 40.7002 61 40.7002 70 c 0
 40.7002 73 41.5 76 43.9004 79 c 0
 117.5 186 119.9 189 119.9 193 c 0
 119.9 196 119.1 198 116.7 201 c 2
 43.0996 305 l 2
 40.7002 308 39.9004 311 39.9004 315 c 0
 39.9004 324 47.9004 334 52.7002 334 c 0
EndSplineSet
EndChar

StartChar: fraction
Encoding: 8260 8260 282
Width: 391
GlyphClass: 2
Flags: HW
LayerCount: 2
Fore
SplineSet
71.5 -187 m 0
 65.9004 -187 48.2998 -186 48.2998 -173 c 0
 48.2998 -168 48.2998 -169 349.9 571 c 0
 352.3 576 354.7 580 361.9 580 c 0
 368.3 580 386.7 577 386.7 562 c 0
 386.7 558 385.1 555 384.3 552 c 0
 83.5 -183 85.0996 -179 81.9004 -183 c 0
 79.5 -186 76.2998 -187 71.5 -187 c 0
EndSplineSet
EndChar

StartChar: Euro
Encoding: 8364 8364 283
Width: 641
GlyphClass: 2
Flags: HW
HStem: -14 60<352.534 519.49> 234 62<110.5 166.5 225.7 517.7> 345 61<107.3 166.5 225.7 555.3> 594 60<348.569 518.538>
VStem: 166.5 48.8<296 345>
LayerCount: 2
Fore
SplineSet
432.1 594 m 0
 363.3 594 267.3 549 225.7 406 c 1
 575.3 406 l 1
 555.3 345 l 1
 215.3 345 l 1
 215.3 340 214.5 332 214.5 321 c 0
 214.5 309 215.3 301 215.3 296 c 1
 538.5 296 l 1
 517.7 234 l 1
 225.7 234 l 1
 261.7 100 360.9 46 430.5 46 c 0
 542.5 46 600.1 140 602.5 143 c 1
 605.7 142 l 1
 605.7 64 l 1
 557.7 16 502.5 -14 433.7 -14 c 0
 344.9 -14 221.7 43 174.5 234 c 1
 90.5 234 l 1
 110.5 296 l 1
 166.5 296 l 1
 166.5 345 l 1
 87.2998 345 l 1
 107.3 406 l 1
 174.5 406 l 1
 219.3 598 353.7 654 427.3 654 c 0
 506.5 654 564.9 626 625.7 554 c 1
 612.1 512 603.3 491 603.3 491 c 1
 592.9 512 535.3 594 432.1 594 c 0
EndSplineSet
EndChar

StartChar: trademark
Encoding: 8482 8482 284
Width: 827
GlyphClass: 2
Flags: HW
HStem: 370 31<199.206 240.8 280.8 322.379 410.566 450 483.4 520.617 676.078 717.446 756.094 794.278> 675 36<156.961 240.8 280.8 361.439> 682 23<412.037 444.712>
VStem: 125.6 20.8<620.051 656.362> 240.8 40<400.096 675> 456.8 25.6<401.858 605> 717.6 38.4<398.694 604.998>
LayerCount: 2
Fore
SplineSet
756 421 m 2xbe
 756 398 760.8 399 784.8 397 c 0
 789.6 397 794.4 394 794.4 383 c 0
 794.4 375 791.2 370 784.8 370 c 0
 780 370 765.6 373 736.8 373 c 2
 735.2 373 l 2
 704.8 373 690.4 370 685.6 370 c 0
 677.6 370 676 378 676 384 c 0
 676 397 688 397 703.2 399 c 0
 716 401 717.6 407 717.6 423 c 2
 717.6 526 l 2
 717.6 603 717.6 605 716 605 c 1
 716 605 709.6 600 676 521 c 0
 608 365 609.6 365 600.8 365 c 2
 599.2 365 l 1
 583.2 366 580 424 485.6 604 c 0
 485.6 605 485.6 605 484 605 c 1
 484 595 482.4 544 482.4 504 c 0
 482.4 405 482.4 401 490.4 401 c 1
 504.8 399 520.8 401 520.8 383 c 0
 520.8 375 517.6 370 512.8 370 c 0
 508 370 493.6 373 466.4 373 c 0
 437.6 373 423.2 370 418.4 370 c 0
 413.6 370 410.4 375 410.4 383 c 0
 410.4 400 424.8 399 440.8 401 c 0
 450.4 403 450.4 399 456.8 522 c 0
 460 570 461.6 630 461.6 642 c 0
 461.6 646 447.2 681 421.6 682 c 0
 416.8 682 412 684 412 692 c 0
 412 702 415.2 705 420 705 c 2
 476 705 l 2
 482.4 705 484.8 703 487.2 698 c 2
 560.8 545 l 1
 608.8 449 608.8 449 612 449 c 0
 613.6 449 615.2 452 615.2 454 c 2
 717.6 691 l 2
 720.8 699 720.8 705 728.8 705 c 2
 786.4 705 l 2
 791.2 705 794.4 703 794.4 692 c 0
 794.4 668 754.4 686 754.4 661 c 0
 754.4 637 754.4 614 756 427 c 1
 756 421 l 2xbe
314.4 370 m 0
 309.6 370 293.6 373 263.2 373 c 2
 261.6 373 l 2
 229.6 373 213.6 370 208.8 370 c 0
 205.6 370 199.2 372 199.2 385 c 0
 199.2 400 207.2 398 229.6 400 c 1
 239.2 402 240.8 407 240.8 416 c 2
 240.8 662 l 2
 240.8 670 240.8 675 232.8 675 c 2
 173.6 675 l 2
 162.4 675 164 675 146.4 631 c 1
 146.4 628 143.2 620 135.2 620 c 0
 132 620 125.6 624 125.6 635 c 0
 125.6 638 136.8 703 136.8 703 c 2
 138.4 709 140 711 146.4 711 c 2
 373.6 711 l 2
 384 711 382.4 707 391.2 641 c 0
 391.2 640 392.8 638 392.8 636 c 0
 392.8 627 386.4 623 383.2 623 c 0
 376.8 623 373.6 631 372 633 c 0
 354.4 673 356 675 344.8 675 c 2
 287.2 675 l 2xde
 280.8 675 280.8 671 280.8 664 c 2
 280.8 410 l 2
 280.8 400 283.2 400 314.4 398 c 0
 322.4 397 322.4 393 322.4 382 c 0
 322.4 375 319.2 370 314.4 370 c 0
EndSplineSet
EndChar

StartChar: minus
Encoding: 8722 8722 285
Width: 631
GlyphClass: 2
Flags: HW
HStem: 231 57<112.6 589.363>
LayerCount: 2
Fore
SplineSet
131 231 m 2
 119 231 112.6 235 112.6 253 c 2
 112.6 266 l 2
 112.6 287 123 288 131.8 288 c 2
 573.4 288 l 2
 583.8 288 589.4 284 589.4 269 c 2
 589.4 255 l 2
 589.4 232 578.2 231 567.8 231 c 2
 131 231 l 2
EndSplineSet
EndChar

StartChar: f_f
Encoding: 65537 -1 287
Width: 458
GlyphClass: 3
Flags: HW
HStem: 0 37<66.0306 112.594 171.645 230.576 240.731 292.244 350.855 411.403> 360 51<75.306 114.098 171.606 293.9 350.844 447.065> 630 90<439.71 512.985> 643 62<223.887 299.882>
VStem: 115.6 56<38.2926 360 411 549.4> 294 56<38.1114 358.995 411 571.372> 324.4 25.6<608 615>
LayerCount: 2
Fore
SplineSet
318.8 617 m 2xda
 292.4 617 276.4 643 248.4 643 c 0
 186.8 643 170.8 514 170.8 441 c 2
 170.8 424 l 2
 170.8 416 172.4 411 179.6 411 c 2
 282 411 l 2
 289.2 411 294 412 294 423 c 2
 294 431 l 2xdc
 294 550 324.4 608 324.4 613 c 0
 324.4 615 323.6 617 321.2 617 c 2
 318.8 617 l 2xda
108.4 411 m 2
 113.2 411 114 414 114 420 c 2
 114 421 l 2
 114 480 127.6 634 234.8 690 c 0
 251.6 699 270 705 288.4 705 c 0xdc
 337.2 705 348.4 667 353.2 667 c 0
 357.2 667 398.8 720 466.8 720 c 0
 508.4 720 522 690 522 670 c 0
 522 648 508.4 630 489.2 630 c 0xec
 465.2 630 446.8 655 421.2 655 c 0
 394 655 367.6 633 354 528 c 0
 350.8 504 350 479 350 454 c 2
 350 422 l 2
 350 414 351.6 411 358 411 c 2
 435.6 411 l 2
 445.2 411 448.4 406 448.4 396 c 0
 448.4 390 446.8 366 437.2 360 c 0
 434 359 431.6 359 428.4 359 c 2
 358 359 l 2
 351.6 359 350.8 355 350.8 348 c 2
 350.8 58 l 2
 350.8 36 358.8 38 398.8 34 c 0
 409.2 33 411.6 26 411.6 13 c 0
 411.6 3 409.2 -5 400.4 -5 c 0
 393.2 -5 370.8 0 325.2 0 c 0
 285.2 0 253.2 -5 250.8 -5 c 0
 242.8 -5 240.4 3 240.4 11 c 0
 240.4 32 245.2 31 271.6 37 c 0
 286.8 41 294.8 32 294.8 101 c 2
 295.6 350 l 2
 295.6 356 294 360 286.8 360 c 2
 182.8 360 l 2
 176.4 360 171.6 359 171.6 349 c 2
 171.6 60 l 1
 171.6 58 l 2
 171.6 50 172.4 39 186 37 c 0
 218.8 34 230.8 38 230.8 14 c 0
 230.8 3 229.2 -6 221.2 -6 c 0
 218.8 -6 187.6 0 148.4 0 c 0
 109.2 0 78.7998 -6 76.4004 -6 c 0
 68.4004 -6 66 3 66 17 c 0
 66 38 76.4004 31 101.2 39 c 0
 114 43 115.6 46 115.6 166 c 2
 115.6 350 l 2
 115.6 359 112.4 360 106 360 c 2
 90.7998 360 l 2
 82 360 74.7998 364 74.7998 379 c 0
 74.7998 403 81.2002 411 90.7998 411 c 2
 108.4 411 l 2
EndSplineSet
Ligature2: "'liga' Standard Ligatures in Latin lookup 1 per glyph data 1" f f
EndChar

StartChar: f_i
Encoding: 65538 -1 288
Width: 427
GlyphClass: 3
Flags: HW
HStem: -6 43<61.597 110.817 169.532 231.094 247.974 307.59 364.813 409.443> 359 52<63.1649 113.138 169.548 308.288> 402 20G<346.7 353.9> 656 65<235.231 335.846>
VStem: 112.7 56.8<38.4601 358.944 411.009 541.351> 308.7 53.6<40.9917 355.634>
LayerCount: 2
Fore
SplineSet
308.7 721 m 0xdc
 343.9 721 368.7 700 368.7 669 c 0
 368.7 646 353.5 629 334.3 629 c 2
 333.5 629 l 2
 307.1 629 288.7 656 259.1 656 c 0
 187.1 656 171.9 508 169.5 469 c 0
 168.7 459 168.7 449 168.7 438 c 2
 168.7 429 l 2
 168.7 414 169.5 411 176.7 411 c 2
 278.3 411 l 1xdc
 321.5 414 343.1 422 350.3 422 c 0xbc
 357.5 422 367.9 418 367.9 395 c 0
 367.9 389 362.3 299 362.3 184 c 0
 362.3 166 363.9 58 364.7 53 c 0
 367.1 43 370.3 43 395.1 37 c 0
 400.7 36 409.5 33 409.5 17 c 0
 409.5 10 407.1 -5 396.7 -5 c 0
 390.3 -5 371.1 0 331.9 0 c 0
 293.5 0 262.3 -6 259.9 -6 c 0
 251.9 -6 247.9 1 247.9 11 c 0
 247.9 34 251.1 32 287.1 38 c 0
 307.1 42 308.7 57 308.7 74 c 2
 308.7 120 l 2
 308.7 252 309.5 319 309.5 341 c 0
 309.5 353 306.3 354 287.9 356 c 0
 278.3 358 268.7 359 258.3 359 c 2
 176.7 359 l 2
 171.9 359 169.5 358 169.5 351 c 2
 169.5 64 l 1
 169.5 61 l 2
 169.5 51 170.3 38 185.5 37 c 0
 222.3 33 231.1 39 231.1 16 c 0
 231.1 4 227.9 -6 218.3 -6 c 0
 215.9 -6 184.7 0 146.3 0 c 0
 107.1 0 75.9004 -6 73.5 -6 c 0
 63.0996 -6 61.5 8 61.5 19 c 0
 61.5 35 69.5 33 99.0996 39 c 0
 111.1 41 110.3 51 111.1 63 c 0
 112.7 88 114.3 156 114.3 350 c 0
 114.3 362 108.7 359 79.0996 360 c 0
 71.0996 360 62.2998 364 62.2998 378 c 0
 62.2998 407 75.0996 408 78.2998 408 c 2
 79.0996 408 l 1
 111.1 410 112.7 408 112.7 417 c 2
 112.7 419 l 1
 115.1 497 132.7 573 163.9 626 c 0
 215.9 715 290.3 721 308.7 721 c 0xdc
EndSplineSet
Ligature2: "'liga' Standard Ligatures in Latin lookup 1 per glyph data 1" f i
EndChar

StartChar: f_l
Encoding: 65539 -1 289
Width: 414
GlyphClass: 3
Flags: HW
HStem: -6 45<55.1973 104.565 163.1 224.69 239.119 293.529 353.142 407.774> 359 52<60.0046 106.17 163.118 252.737> 656 64<206.649 277.185>
VStem: 107.9 55.2<39.0996 358.944 411.009 577.529> 294.3 58.4<39.4059 634.46>
LayerCount: 2
Fore
SplineSet
106.3 417 m 2
 106.3 425 l 2
 106.3 461 109.5 542 134.3 605 c 0
 154.3 655 202.3 720 275.1 720 c 0
 298.3 720 307.1 712 315.9 712 c 0
 326.3 712 334.3 723 341.5 723 c 0
 350.3 723 352.7 714 352.7 704 c 2
 352.7 71 l 2
 352.7 39 361.5 41 394.3 34 c 0
 403.1 32 407.9 27 407.9 14 c 0
 407.9 3 406.3 -6 397.5 -6 c 0
 395.9 -6 363.1 0 322.3 0 c 0
 283.9 0 252.7 -5 251.1 -5 c 0
 239.1 -5 239.1 9 239.1 16 c 0
 239.1 35 245.5 34 271.9 38 c 0
 292.7 41 294.3 56 294.3 76 c 2
 294.3 558 l 1
 294.3 566 l 2
 294.3 591 292.7 637 252.7 652 c 0
 247.1 655 241.5 656 235.9 656 c 0
 170.3 656 162.3 512 162.3 434 c 0
 162.3 414 162.3 411 171.1 411 c 2
 235.9 411 l 2
 244.7 411 253.5 407 253.5 391 c 2
 253.5 390 l 2
 253.5 381 251.1 359 232.7 359 c 2
 170.3 359 l 2
 165.5 359 163.1 358 163.1 351 c 2
 163.1 64 l 1
 163.1 59 l 2
 163.1 50 163.9 38 179.1 37 c 0
 215.9 33 224.7 39 224.7 16 c 0
 224.7 4 221.5 -6 211.9 -6 c 0
 210.3 -6 178.3 0 139.9 0 c 0
 100.7 0 69.5 -6 67.0996 -6 c 0
 57.5 -6 55.0996 8 55.0996 19 c 0
 55.0996 35 63.0996 33 93.5 39 c 0
 104.7 41 103.9 51 104.7 63 c 0
 106.3 88 107.9 156 107.9 350 c 0
 107.9 362 103.1 359 75.9004 360 c 0
 67.0996 360 59.0996 364 59.0996 378 c 0
 59.0996 408 72.7002 408 75.9004 408 c 0
 103.1 410 106.3 408 106.3 417 c 2
EndSplineSet
Ligature2: "'liga' Standard Ligatures in Latin lookup 1 per glyph data 1" f l
EndChar

StartChar: f_f_i
Encoding: 65540 -1 290
Width: 639
GlyphClass: 3
Flags: HW
HStem: 0 37<76.4306 122.8 182.045 240.976 259.124 310.644 369.26 429.803 462.186 520.882 578.913 623.538> 360 51<85.706 124.528 182.006 312.3 369.244 523.049> 402 20G<560.8 568> 644 61<237.134 315.772> 668 59<416.058 504.641>
VStem: 126 56<38.2926 360 411 552.357> 312.4 56<38.1114 358.995 411 572.813> 522 56.8<40.3151 74 77 355.724>
LayerCount: 2
Fore
SplineSet
264.4 644 m 0xd7
 198 644 181.2 525 181.2 441 c 2
 181.2 424 l 2
 181.2 416 182.8 411 190 411 c 2
 300.4 411 l 2
 307.6 411 312.4 412 312.4 423 c 2
 312.4 431 l 2
 312.4 550 342.8 608 342.8 613 c 0
 342.8 615 342 617 339.6 617 c 2
 337.2 617 l 2
 310.8 617 294.8 644 264.4 644 c 0xd7
498 727 m 0x8f
 565.2 727 578.8 693 578.8 671 c 0
 578.8 646 562 630 543.6 630 c 0
 512.4 630 491.6 668 454.8 668 c 0
 420.4 668 368.4 633 368.4 454 c 2
 368.4 422 l 2xaf
 368.4 414 370 411 376.4 411 c 2
 493.2 411 l 1xc7
 536.4 414 557.2 422 564.4 422 c 0xa7
 571.6 422 582 418 582 395 c 0
 582 389 576.4 299 576.4 184 c 0
 576.4 166 577.2 58 578.8 53 c 0
 581.2 43 583.6 43 609.2 37 c 0
 614 36 623.6 33 623.6 17 c 0
 623.6 10 621.2 -5 610.8 -5 c 0
 604.4 -5 585.2 0 546 0 c 0
 506.8 0 475.6 -6 473.2 -6 c 0
 466 -6 462 1 462 11 c 0
 462 34 464.4 32 501.2 38 c 0
 521.2 42 522.8 57 522.8 74 c 1
 522 77 l 1
 522 120 l 2
 522 252 523.6 319 523.6 341 c 0
 523.6 353 520.4 354 502 356 c 1
 493.2 358 483.6 359 474.8 359 c 2
 376.4 359 l 2
 370 359 369.2 355 369.2 348 c 2
 369.2 58 l 2
 369.2 36 378 38 417.2 34 c 0
 427.6 33 430 26 430 13 c 0
 430 3 427.6 -5 418.8 -5 c 0
 411.6 -5 389.2 0 343.6 0 c 0
 303.6 0 271.6 -5 269.2 -5 c 0
 261.2 -5 258.8 3 258.8 11 c 0
 258.8 32 262.8 30 290 37 c 0
 305.2 41 313.2 32 313.2 101 c 2
 314 350 l 2
 314 356 312.4 360 305.2 360 c 2
 193.2 360 l 2
 186.8 360 182 359 182 349 c 2
 182 60 l 1
 182 58 l 2
 182 50 182.8 39 196.4 37 c 0
 229.2 34 241.2 38 241.2 14 c 0
 241.2 3 239.6 -6 231.6 -6 c 0
 229.2 -6 198 0 158.8 0 c 0
 119.6 0 89.2002 -6 86.7998 -6 c 0
 78.7998 -6 76.4004 3 76.4004 17 c 0
 76.4004 38 86.7998 31 111.6 39 c 0
 119.6 41 122 46 122.8 55 c 0
 126 79 126 109 126 203 c 2
 126 350 l 2
 126 359 122.8 360 116.4 360 c 2
 101.2 360 l 2
 92.4004 360 85.2002 364 85.2002 379 c 0
 85.2002 403 91.5996 411 101.2 411 c 2
 118.8 411 l 2
 123.6 411 124.4 415 124.4 420 c 2
 124.4 421 l 2
 124.4 500 143.6 595 197.2 652 c 0
 220.4 677 262.8 705 306 705 c 2
 306.8 705 l 2xd7
 357.2 705 366 666 371.6 666 c 0
 377.2 667 410 727 498 727 c 0x8f
EndSplineSet
Ligature2: "'liga' Standard Ligatures in Latin lookup 1 per glyph data 0" f f i
EndChar

StartChar: f_f_l
Encoding: 65541 -1 291
Width: 637
GlyphClass: 3
Flags: HW
HStem: 0 37<85.1283 131.241 190.745 249.676 273.478 324.112 384.355 444.854 460.346 514.295 575.117 628.9> 360 51<78.4339 133.38 190.706 327.4 384.344 480.258> 645 60<245.858 328.678> 703 20G<559.9 567.9>
VStem: 134.7 56<38.2926 360 411 552.477> 327.5 56<50.4385 358.995 411 574.152> 516.3 58.4<39.238 633.094>
LayerCount: 2
Fore
SplineSet
351.5 617 m 2xee
 325.1 617 308.3 645 273.1 645 c 0
 241.1 645 209.1 621 193.9 511 c 0
 190.7 488 189.9 464 189.9 441 c 2
 189.9 424 l 2
 189.9 416 191.5 411 198.7 411 c 2
 315.5 411 l 2
 321.9 411 327.5 412 327.5 423 c 2
 327.5 431 l 2
 327.5 550 357.1 608 357.1 613 c 0
 357.1 615 356.3 617 353.9 617 c 2
 351.5 617 l 2xee
386.7 667 m 2
 391.5 667 429.1 720 499.5 720 c 0
 520.3 720 529.1 712 537.1 712 c 2
 537.9 712 l 2
 548.3 712 556.3 723 563.5 723 c 0xde
 572.3 723 574.7 713 574.7 704 c 2
 574.7 80 l 2
 574.7 77 573.9 74 573.9 71 c 0
 573.9 39 582.7 41 615.5 34 c 0
 625.1 32 629.1 27 629.1 14 c 0
 629.1 3 627.5 -6 619.5 -6 c 0
 617.1 -6 584.3 0 544.3 0 c 0
 505.9 0 474.7 -5 472.3 -5 c 0
 460.3 -5 460.3 9 460.3 16 c 0
 460.3 35 466.7 34 493.9 38 c 0
 513.9 41 516.3 56 516.3 76 c 2
 516.3 567 l 2
 516.3 614 505.9 630 485.9 645 c 1
 473.9 652 463.5 655 454.7 655 c 0
 397.1 655 383.5 537 383.5 454 c 2
 383.5 422 l 2
 383.5 414 385.1 411 391.5 411 c 2
 469.1 411 l 2
 477.9 411 481.9 406 481.9 396 c 0
 481.9 390 479.5 366 469.9 360 c 0
 467.5 359 464.3 359 461.9 359 c 2
 390.7 359 l 2
 385.1 359 384.3 355 384.3 348 c 2
 384.3 58 l 2
 384.3 36 392.3 38 432.3 34 c 0
 441.9 33 445.1 26 445.1 13 c 0
 445.1 3 441.9 -5 433.9 -5 c 0
 425.9 -5 403.5 0 358.7 0 c 0
 317.9 0 285.9 -5 283.5 -5 c 0
 275.5 -5 273.1 3 273.1 11 c 0
 273.1 32 278.7 31 305.1 37 c 0
 315.5 40 320.3 37 324.3 50 c 0
 326.7 59 328.3 91 328.3 101 c 2
 329.1 350 l 2
 329.1 356 327.5 360 320.3 360 c 2
 201.1 360 l 2
 194.7 360 190.7 359 190.7 349 c 2
 190.7 60 l 1
 190.7 58 l 2
 190.7 50 191.5 39 205.1 37 c 0
 237.9 34 249.9 38 249.9 14 c 0
 249.9 3 247.5 -6 239.5 -6 c 0
 237.9 -6 205.9 0 167.5 0 c 0
 127.5 0 97.9004 -6 95.5 -6 c 0
 85.9004 -6 85.0996 5 85.0996 17 c 0
 85.0996 38 94.7002 31 120.3 39 c 0
 133.1 43 134.7 46 134.7 190 c 2
 134.7 350 l 2
 134.7 359 130.7 360 125.1 360 c 2
 93.9004 360 l 2
 87.5 360 77.9004 362 77.9004 379 c 0
 77.9004 403 84.2998 411 93.9004 411 c 2
 127.5 411 l 2
 137.1 411 130.7 419 135.5 472 c 1
 143.5 547 166.7 614 206.7 654 c 0
 241.9 690 291.5 705 320.3 705 c 0
 366.7 705 382.7 669 384.3 667 c 1
 386.7 667 l 2
EndSplineSet
Ligature2: "'liga' Standard Ligatures in Latin lookup 1 per glyph data 0" f f l
EndChar

StartChar: circumflex.cap
Encoding: 65542 -1 292
Width: 243
GlyphClass: 2
Flags: HW
HStem: 804 79<108.775 161.307>
VStem: 38.3 194.4<742 755>
LayerCount: 2
Fore
SplineSet
50.2998 732 m 0
 40.7002 732 38.2998 742 38.2998 746 c 0
 38.2998 755 38.2998 752 107.1 859 c 0
 111.9 867 122.3 883 137.5 883 c 0
 145.5 883 150.3 879 157.5 869 c 0
 231.9 754 232.7 756 232.7 747 c 0
 232.7 741 228.7 732 219.9 732 c 0
 211.9 732 203.9 740 199.1 746 c 0
 155.1 792 147.1 804 135.9 804 c 0
 115.1 804 69.5 732 50.2998 732 c 0
EndSplineSet
EndChar

StartChar: acute.cap
Encoding: 65543 -1 293
Width: 253
GlyphClass: 2
Flags: HW
HStem: 730 169
VStem: 41.8 198.4
LayerCount: 2
Fore
SplineSet
208.2 899 m 0
 225 899 240.2 884 240.2 863 c 0
 240.2 834 218.6 823 207.4 816 c 0
 64.2002 731 65 730 57.7998 730 c 0
 49.7998 730 41.7998 738 41.7998 750 c 0
 41.7998 760 47.4004 768 57 776 c 2
 167.4 876 l 2
 177.8 886 192.2 899 208.2 899 c 0
EndSplineSet
EndChar

StartChar: grave.cap
Encoding: 65544 -1 294
Width: 253
GlyphClass: 2
Flags: HW
HStem: 730 169
VStem: 41.8 198.4
LayerCount: 2
Fore
SplineSet
41.7998 863 m 0
 41.7998 885 56.2002 899 73 899 c 0
 89.7998 899 104.2 886 114.6 876 c 0
 237 765 233.8 768 237 762 c 0
 238.6 758 240.2 754 240.2 749 c 0
 240.2 737 232.2 730 224.2 730 c 2
 223.4 730 l 2
 217 730 217 731 74.5996 816 c 0
 66.5996 821 41.7998 833 41.7998 863 c 0
EndSplineSet
EndChar

StartChar: breve.cap
Encoding: 65545 -1 295
Width: 291
GlyphClass: 2
Flags: HW
HStem: 728 65<111.554 212.786>
VStem: 45.3 234.4<834 848>
LayerCount: 2
Fore
SplineSet
162.1 793 m 0
 214.9 793 250.9 861 259.7 861 c 0
 268.5 861 279.7 849 279.7 839 c 0
 279.7 834 230.9 728 163.7 728 c 2
 160.5 728 l 2
 93.2998 728 45.2998 834 45.2998 839 c 0
 45.2998 848 54.0996 861 64.5 861 c 0
 74.0996 861 109.3 793 162.1 793 c 0
EndSplineSet
EndChar

StartChar: longs_i
Encoding: 65546 -1 296
Width: 428
GlyphClass: 3
Flags: HW
HStem: -6 44<249.809 309.746 366.275 418.493> -6 45<62.5692 111.73 170.078 231.985> 360 50<64.7971 114.209> 421 20<354.9 360.1> 656 65<237.33 336.846>
VStem: 115.3 54.4<115.416 360> 310.5 53.6<39.1511 336.573>
LayerCount: 2
Fore
SplineSet
169.7 436 m 0x7e
 169.7 421 170.5 428 170.5 362 c 2
 170.5 120 l 2
 170.5 103 169.7 89 169.7 78 c 0
 169.7 44 172.1 38 186.5 37 c 2
 222.5 33 l 2
 228.9 33 232.1 24 232.1 14 c 0
 232.1 4 228.1 -6 219.3 -6 c 0
 216.9 -6 185.7 0 147.3 0 c 0
 108.1 0 76.9004 -6 74.5 -6 c 0
 64.0996 -6 62.5 8 62.5 19 c 0
 62.5 34 72.9004 33 100.1 39 c 0
 116.1 42 114.5 52 115.3 348 c 0
 115.3 357 115.3 359 105.7 360 c 1
 80.0996 360 l 2
 68.0996 360 64.0996 367 64.0996 378 c 0
 64.0996 408 76.9004 408 80.0996 408 c 2
 108.9 410 l 2
 119.3 410 107.3 439 126.5 525 c 0
 164.1 688 261.7 721 309.7 721 c 0
 344.9 721 369.7 700 369.7 669 c 0
 369.7 646 353.7 629 335.3 629 c 2
 334.5 629 l 2
 308.1 629 289.7 656 260.1 656 c 0
 194.5 656 169.7 525 169.7 436 c 0x7e
EndSplineSet
Refer: 203 305 S 1 0 0 1 187.2 0 2
Ligature2: "'liga' Standard Ligatures in Latin lookup 1 per glyph data 3" longs i
EndChar

StartChar: caron.cap
Encoding: 65547 -1 297
Width: 243
GlyphClass: 2
Flags: HW
HStem: 732 79<109.591 162.225>
VStem: 38.3 194.4<860 874>
LayerCount: 2
Fore
SplineSet
220.7 883 m 0
 226.3 883 232.7 877 232.7 869 c 0
 232.7 860 232.7 863 163.9 756 c 0
 159.1 748 148.7 732 133.5 732 c 0
 125.5 732 120.7 736 113.5 746 c 0
 42.2998 856 38.2998 859 38.2998 868 c 0
 38.2998 874 42.2998 883 51.0996 883 c 0
 59.0996 883 67.0996 875 71.9004 869 c 0
 115.1 823 123.9 811 135.1 811 c 0
 155.9 811 201.5 883 220.7 883 c 0
EndSplineSet
EndChar

StartChar: longs_longs
Encoding: 65548 -1 298
Width: 410
GlyphClass: 3
Flags: HW
HStem: -6 43<66.0162 112.456 171.61 231.494 240.559 292.803 350.8 412.294> 360 51<74.8219 114.039 254.822 294.022> 630 90<437.438 512.985> 643 62<223.558 300.11> 655 12<355.6 357.2>
VStem: 115.6 56<37.75 360 411 549.823> 254 96.8<360 411> 295.6 55.2<38.4201 360 411 581.069>
LayerCount: 2
Fore
SplineSet
294 421 m 0xce
 294 564 323.6 603 323.6 614 c 0
 323.6 616 322.8 617 320.4 617 c 2
 318 617 l 2
 294 617 276.4 643 248.4 643 c 0
 186.8 643 170.8 515 170.8 441 c 2
 170.8 424 l 2
 170.8 416 171.6 359 171.6 349 c 2
 171.6 59 l 2
 171.6 34 184.4 36 218 33 c 0
 227.6 32 231.6 23 231.6 13 c 0
 231.6 4 227.6 -6 221.2 -6 c 0
 218.8 -6 187.6 0 148.4 0 c 0
 109.2 0 78.7998 -6 76.4004 -6 c 0
 68.4004 -6 66 3 66 17 c 0
 66 33 70.7998 32 95.5996 37 c 0
 113.2 41 115.6 38 115.6 169 c 2
 115.6 350 l 2
 115.6 359 111.6 360 106 360 c 2
 90.7998 360 l 2
 78.7998 360 74 370 74 381 c 0
 74 387 76.4004 411 90.7998 411 c 2
 108.4 411 l 2
 114 411 114 415 114 421 c 0
 114 596 201.2 705 288.4 705 c 0xd6
 338 705 346 667 354 667 c 0xce
 357.2 667 400.4 720 466.8 720 c 0
 508.4 720 522 690 522 670 c 0
 522 651 512.4 630 490 630 c 0xe6
 464.4 630 446.8 655 421.2 655 c 0
 355.6 655 350 503 350 454 c 2
 350 422 l 2
 350 397 350.8 373 350.8 348 c 2
 350.8 58 l 2
 350.8 37 357.2 38 398.8 34 c 0
 408.4 33 412.4 23 412.4 13 c 0
 412.4 6 410 -5 400.4 -5 c 0
 391.6 -5 372.4 0 325.2 0 c 0
 290 0 267.6 -5 254.8 -5 c 0
 244.4 -5 240.4 -2 240.4 10 c 0
 240.4 33 246 31 271.6 37 c 0
 288.4 41 294.8 34 294.8 101 c 0
 295.6 300 295.6 325 295.6 350 c 0xcd
 295.6 359 291.6 360 286 360 c 2
 270.8 360 l 2
 258.8 360 254 370 254 381 c 0
 254 387 256.4 411 270.8 411 c 2
 288.4 411 l 2
 294 411 294 415 294 421 c 0xce
EndSplineSet
Ligature2: "'liga' Standard Ligatures in Latin lookup 1 per glyph data 3" longs longs
EndChar

StartChar: longs_l
Encoding: 65549 -1 299
Width: 414
GlyphClass: 3
Flags: HW
HStem: -5 43<55.1642 104.269 163.508 225.444 239.122 293.39 353.11 407.826> 360 50<59.6906 106.275> 656 64<207.455 295.933>
VStem: 107.9 55.2<114.998 360 409.156 575.581> 294.3 58.4<39.4737 633.725>
LayerCount: 2
Fore
SplineSet
163.1 366 m 2
 163.1 78 l 2
 163.1 45 164.7 38 179.1 37 c 2
 215.1 33 l 2
 221.5 33 225.5 24 225.5 15 c 0
 225.5 5 220.7 -6 211.9 -6 c 0
 210.3 -6 178.3 0 139.9 0 c 0
 100.7 0 69.5 -6 67.0996 -6 c 0
 57.5 -6 55.0996 8 55.0996 19 c 0
 55.0996 35 64.7002 33 93.5 39 c 0
 108.7 42 107.1 50 107.9 350 c 0
 107.9 357 107.1 359 98.2998 360 c 1
 75.9004 360 l 2
 63.0996 360 59.0996 367 59.0996 379 c 0
 59.0996 408 72.7002 408 75.9004 408 c 2
 101.5 410 l 2
 106.3 410 106.3 413 106.3 417 c 2
 106.3 419 l 2
 106.3 494 113.5 652 219.1 706 c 0
 231.1 712 253.5 720 275.1 720 c 0
 300.7 720 306.3 713 315.9 713 c 0
 326.3 713 334.3 723 341.5 723 c 0
 350.3 723 352.7 714 352.7 704 c 2
 352.7 69 l 2
 352.7 40 360.7 41 394.3 34 c 0
 403.9 32 407.9 26 407.9 14 c 0
 407.9 -1 406.3 -5 396.7 -5 c 0
 385.5 -5 363.9 0 322.3 0 c 0
 285.5 0 263.9 -5 252.7 -5 c 0
 241.5 -5 239.1 -1 239.1 15 c 0
 239.1 36 246.3 34 271.9 38 c 0
 294.3 41 294.3 58 294.3 79 c 2
 294.3 558 l 2
 294.3 590 293.5 636 252.7 652 c 0
 247.1 655 241.5 656 235.9 656 c 0
 177.5 656 162.3 540 162.3 434 c 2
 162.3 429 l 2
 162.3 414 163.1 427 163.1 366 c 2
EndSplineSet
Ligature2: "'liga' Standard Ligatures in Latin lookup 1 per glyph data 3" longs l
EndChar

StartChar: longs_longs_i
Encoding: 65550 -1 300
Width: 641
GlyphClass: 3
Flags: HW
HStem: -6 40<77.2455 123.592 183.038 242.774 259.707 311.334 370.185 431.574> -6 44<462.109 522.046 578.575 630.793> 360 51<86.0219 125.239 274.646 313.998> 421 20<567.2 572.4> 644 61<239.342 316.686> 668 59<416.776 505.143>
VStem: 126.8 56<37.6372 360 411 551.625> 274 96<360 411> 314 56<38.1504 360 411 573.284> 522.8 53.6<39.1511 336.573>
LayerCount: 2
Fore
SplineSet
305.2 360 m 2xb6c0
 290.8 360 l 2
 278 360 274 370 274 381 c 0xb740
 274 387 275.6 411 290.8 411 c 2
 307.6 411 l 2
 313.2 411 314 415 314 421 c 2
 314 444 l 2
 314 550 342.8 603 342.8 614 c 0
 342.8 616 342 617 339.6 617 c 2
 337.2 617 l 2
 313.2 617 294 644 265.2 644 c 0
 231.6 644 182 605 182 441 c 2
 182 424 l 2
 182 416 182.8 359 182.8 349 c 2
 182.8 59 l 2
 182.8 33 195.6 37 229.2 34 c 0
 238.8 33 242.8 23 242.8 13 c 0
 242.8 4 238.8 -6 232.4 -6 c 0
 230 -6 198.8 0 159.6 0 c 0
 120.4 0 90 -6 87.5996 -6 c 0
 79.5996 -6 77.2002 3 77.2002 17 c 0
 77.2002 35 83.5996 33 106.8 37 c 0
 122.8 40 126.8 41 126.8 122 c 2
 126.8 350 l 2
 126.8 359 122.8 360 117.2 360 c 2
 102 360 l 2
 90 360 85.2002 370 85.2002 381 c 0
 85.2002 387 87.5996 411 102 411 c 2
 119.6 411 l 2
 125.2 411 125.2 415 125.2 421 c 0
 125.2 490 141.2 637 249.2 690 c 0
 267.6 699 287.6 705 306.8 705 c 2
 307.6 705 l 2xbac0
 358.8 705 365.2 667 373.2 667 c 0
 379.6 667 409.2 727 498.8 727 c 0
 566 727 579.6 693 579.6 671 c 0
 579.6 650 566.8 630 544.4 630 c 0
 512.4 630 491.6 668 455.6 668 c 0
 421.2 668 369.2 633 369.2 454 c 2
 369.2 422 l 2
 369.2 415 370 422 370 348 c 2
 370 58 l 2x36c0
 370 36 379.6 38 418 34 c 0
 427.6 33 431.6 23 431.6 13 c 0
 431.6 6 429.2 -5 419.6 -5 c 0
 410.8 -5 391.6 0 344.4 0 c 0
 308.4 0 286.8 -5 274 -5 c 0xb740
 263.6 -5 259.6 -2 259.6 10 c 0
 259.6 33 266 31 290.8 37 c 0
 307.6 41 314 34 314 101 c 2
 314.8 350 l 2
 314.8 359 310.8 360 305.2 360 c 2xb6c0
EndSplineSet
Refer: 203 305 S 1 0 0 1 376.8 0 2
Ligature2: "'liga' Standard Ligatures in Latin lookup 1 per glyph data 2" longs longs i
EndChar

StartChar: longs_longs_l
Encoding: 65551 -1 301
Width: 637
GlyphClass: 3
Flags: HW
HStem: -6 40<84.3082 131.148 190.938 250.674 273.17 325.281 384.377 445.074 460.38 514.216 575.412 629.097> 360 51<78.4339 133.38 272.793 327.364> 645 60<245.522 327.682> 656 11<386.7 454.7> 703 20G<559.5 567.9>
VStem: 134.7 56<37.7056 360 411 549.021> 328.3 56<38.1504 360 411 574.119> 516.3 58.4<39.2047 632.074>
LayerCount: 2
Fore
SplineSet
454.7 656 m 0xdf
 394.7 656 383.5 526 383.5 454 c 2
 383.5 422 l 2
 383.5 414 384.3 355 384.3 348 c 2
 384.3 58 l 2
 384.3 38 387.5 39 432.3 34 c 0
 441.1 33 445.1 23 445.1 13 c 0
 445.1 6 442.7 -5 433.1 -5 c 0
 424.3 -5 405.1 0 358.7 0 c 0
 323.5 0 301.1 -5 288.3 -5 c 0
 277.9 -5 273.1 -2 273.1 11 c 0
 273.1 33 278.7 31 305.1 37 c 0
 321.9 41 327.5 34 328.3 101 c 2
 329.1 350 l 2
 329.1 359 325.1 360 318.7 360 c 2
 288.3 360 l 2
 281.1 360 272.3 362 272.3 379 c 0
 272.3 403 278.7 411 288.3 411 c 2
 321.1 411 l 2
 327.5 411 327.5 417 327.5 442 c 0
 327.5 554 357.1 601 357.1 614 c 0
 357.1 616 356.3 617 351.5 617 c 2
 347.5 617 l 2
 327.5 617 306.7 645 273.1 645 c 0
 241.1 645 209.1 621 193.9 511 c 0
 190.7 488 189.9 464 189.9 441 c 2
 189.9 424 l 2
 189.9 416 190.7 359 190.7 349 c 2
 190.7 59 l 2
 190.7 33 203.5 37 237.1 34 c 0
 246.7 33 250.7 23 250.7 13 c 0
 250.7 4 246.7 -6 239.5 -6 c 0
 237.9 -6 205.9 0 167.5 0 c 0
 127.5 0 97.9004 -6 95.5 -6 c 0
 88.2998 -6 84.2998 4 84.2998 14 c 0
 84.2998 35 95.5 34 113.9 37 c 0
 129.9 40 134.7 41 134.7 122 c 2
 134.7 350 l 2
 134.7 359 130.7 360 125.1 360 c 2
 93.9004 360 l 2
 87.5 360 77.9004 362 77.9004 379 c 0
 77.9004 403 84.2998 411 93.9004 411 c 2
 127.5 411 l 2
 137.1 411 130.7 419 135.5 472 c 0
 157.1 679 279.5 705 320.3 705 c 0xe7
 371.5 705 378.7 667 386.7 667 c 0
 390.7 667 431.5 720 499.5 720 c 0
 521.9 720 527.5 712 537.1 712 c 0
 547.5 712 555.5 723 563.5 723 c 0
 572.3 723 574.7 713 574.7 704 c 2
 574.7 80 l 2
 574.7 76 573.9 73 573.9 69 c 0
 573.9 39 583.5 41 615.5 34 c 0
 625.1 32 629.1 26 629.1 14 c 0
 629.1 2 627.5 -6 619.5 -6 c 0
 617.1 -6 584.3 0 544.3 0 c 0
 506.7 0 485.9 -5 473.9 -5 c 0
 463.5 -5 461.1 -1 460.3 15 c 1
 460.3 36 468.3 34 493.9 38 c 0
 516.3 41 516.3 58 516.3 79 c 2
 516.3 567 l 2
 516.3 651 465.1 656 454.7 656 c 0xdf
EndSplineSet
Ligature2: "'liga' Standard Ligatures in Latin lookup 1 per glyph data 2" longs longs l
EndChar

StartChar: quotedblleft.001
Encoding: 65552 -1 302
Width: 428
GlyphClass: 2
Flags: HW
HStem: 464 98<113.273 187.38 313.274 387.38>
VStem: 78 32<567.528 642.751> 278 32<567.528 642.751>
LayerCount: 2
Fore
SplineSet
347.6 464 m 0
 319.6 464 278 492 278 576 c 0
 278 656 311.6 687 323.6 687 c 1
 332.4 686 338.8 677 338.8 667 c 0
 338.8 652 310 637 310 600 c 0
 310 585 315.6 562 344.4 562 c 0
 349.2 562 354 563 358.8 563 c 0
 390.8 563 398 536 398 520 c 0
 398 495 380.4 464 347.6 464 c 0
147.6 464 m 0
 119.6 464 78 492 78 576 c 0
 78 656 111.6 687 123.6 687 c 1
 132.4 686 138.8 677 138.8 667 c 0
 138.8 652 110 637 110 600 c 0
 110 585 115.6 562 144.4 562 c 0
 149.2 562 154 563 158.8 563 c 0
 190.8 563 198 536 198 520 c 0
 198 495 180.4 464 147.6 464 c 0
EndSplineSet
EndChar

StartChar: quotedblright.001
Encoding: 65553 -1 303
Width: 428
GlyphClass: 2
Flags: HW
HStem: 586 98<89.1131 162.922 289.113 362.922>
VStem: 166 32<505.343 580.483> 366 32<505.343 580.483>
LayerCount: 2
Fore
SplineSet
129.2 684 m 0
 156.4 684 198 656 198 572 c 0
 198 492 164.4 462 153.2 462 c 2
 152.4 462 l 2
 144.4 462 138 472 138 481 c 0
 138 497 166 512 166 549 c 0
 166 563 160.4 586 131.6 586 c 0
 126.8 586 122.8 585 118 585 c 0
 86 585 78 612 78 628 c 0
 78 653 96.4004 684 129.2 684 c 0
329.2 684 m 0
 356.4 684 398 656 398 572 c 0
 398 492 364.4 462 353.2 462 c 2
 352.4 462 l 2
 344.4 462 338 472 338 481 c 0
 338 497 366 512 366 549 c 0
 366 563 360.4 586 331.6 586 c 0
 326.8 586 322.8 585 318 585 c 0
 286 585 278 612 278 628 c 0
 278 653 296.4 684 329.2 684 c 0
EndSplineSet
EndChar

